<svg width="549" height="1200" xmlns="http://www.w3.org/2000/svg" xmlns:xlink="http://www.w3.org/1999/xlink" xml:space="preserve" overflow="hidden"><defs><clipPath id="clip0"><rect x="1503" y="222" width="549" height="1200"/></clipPath></defs><g clip-path="url(#clip0)" transform="translate(-1503 -222)"><path d="M228.267 1196.13C225.882 1196.11 223.156 1196.1 220.352 1195.42 217.934 1194.82 215.501 1193.72 213.156 1192.16 209.026 1189.43 205.383 1185.77 201.997 1180.95 198.546 1176.05 196.479 1171.2 195.852 1166.52 195.123 1161.54 195.657 1156.16 197.378 1150.86 198.811 1146.34 200.935 1141.8 204.073 1136.54 206.368 1132.62 209.03 1128.88 211.606 1125.26L212.9 1123.45 214.19 1121.69C215.562 1119.82 216.937 1117.96 218.24 1116.07L218.646 1115.47 218.911 1114.81C220.445 1110.9 221.613 1107.66 222.594 1104.61 226.469 1092.63 228.764 1081.02 229.411 1070.12 229.916 1060.79 230.583 1050.77 232.044 1040.54L232.907 1034.47 222.33 1032.75C218.781 1032.15 215.541 1031.53 212.412 1030.23 212.383 1024.36 213.14 1018.25 213.808 1012.85 214.544 1006.84 215.26 1000.84 215.875 994.818 216.982 984.557 218.032 973.414 219.277 958.722 220.046 950.489 220.738 942.225 221.43 933.966L221.552 932.474 221.369 931.591C219.473 922.414 218.187 913.188 216.941 904.265 215.468 893.895 213.893 883.493 212.253 873.258 209.567 856.321 206.462 839.164 203.458 822.573L201.48 811.648C200.577 806.465 199.629 801.276 198.68 796.085L198.44 794.773C195.762 780.175 192.991 765.082 191.147 749.931 190.899 747.456 190.716 745.057 190.606 742.803L190.289 736.254 183.765 736.883C176.126 737.62 168.516 737.994 161.145 737.996 156.127 737.996 151.097 737.823 146.193 737.481 129.703 736.36 115.463 733.473 102.647 728.652 99.5825 727.496 95.7732 726.06 92.489 724.078 89.339 722.228 86.3477 719.98 83.5396 717.359 78.3629 712.558 73.9432 706.535 70.3822 699.448 70.1421 698.97 69.9182 698.475 69.6944 697.981L68.8153 696.041 66.9392 695.038C64.1392 693.547 62.0108 692.061 60.2323 690.36 57.8881 688.13 56.2643 685.495 55.5277 682.733 55.1533 681.337 54.9579 679.862 54.9416 678.326L54.9376 677.846 54.8602 677.374C54.1155 672.842 53.5457 668.127 53.0452 663.968L52.5527 659.898C51.6411 652.996 50.3713 646.301 48.7638 639.936 47.0749 633.131 44.8284 626.347 42.8545 620.523L41.6418 616.857C39.9528 611.796 38.211 606.581 37.4418 600.909 36.6686 593.686 38.0034 586.665 39.4116 580.774 41.0598 574.015 43.2819 567.46 45.4388 561.386L47.1115 556.743C50.4853 547.423 53.6597 538.645 55.8451 529.543L57.4608 522.797 50.583 521.888C43.3551 520.933 36.1639 519.244 29.2087 517.608L25.5134 516.745C23.5152 516.369 20.2269 515.549 17.4228 513.597 15.1438 512.116 13.0763 510.004 11.2775 507.381 7.63512 501.873 6.03978 495.501 5.16479 491.196 4.16364 486.318 3.6712 481.323 3.19504 476.494L2.95086 474.009C2.36075 468.084 2.06773 462.24 2.08401 456.64 2.04331 433.115 7.69616 409.946 13.8089 388.411 16.7432 378.257 20.8332 367.673 26.2948 356.087L28.8547 350.629C32.843 342.126 36.9697 333.329 40.7464 324.532 43.1679 319.046 45.4592 313.385 47.6772 307.913 49.7853 302.698 51.8527 297.591 54.0667 292.501 58.7183 282.142 63.5532 271.377 72.0101 263.01 74.1304 261.044 76.4502 259.327 78.9612 257.898 81.4559 256.474 84.2722 255.455 86.9379 254.531 92.6436 252.681 98.3656 251.342 103.685 250.176 112.825 248.278 122.312 246.717 132.612 245.421L136.226 244.965 137.61 241.597C139.124 239.766 141.02 238.142 143.031 236.423 144.455 235.202 145.725 234.103 146.909 232.906 150.149 229.724 152.969 226.065 155 222.388 156.005 220.516 156.75 218.536 157.544 216.442 158.056 215.075 158.598 213.628 159.257 212.149L162.745 204.268 154.17 203.399C150.784 203.055 147.601 202.214 144.712 200.904 139.108 198.307 134.069 193.621 130.569 187.728 123.297 175.405 121.486 160.986 120.721 149.804 120 137.805 120.529 124.892 122.349 110.377 124.18 96.1919 126.744 83.5187 130.175 71.6555 134.012 58.2193 139.779 46.3031 147.308 36.2224 155.309 25.46 165.634 16.6795 177.188 10.8191 188.429 5.1032 200.634 2.08346 212.481 2.08346 213.429 2.08346 214.377 2.10178 215.322 2.14044 222.501 2.44974 228.91 3.96164 234.368 6.63545 237.469 8.20637 240.082 10.1863 242.051 12.4837 243.195 13.8145 244.111 15.3833 244.709 17.0275L246.435 21.785 251.444 21.0891C253.333 20.8266 255.213 20.6943 257.044 20.6943 258.355 20.6943 259.669 20.7594 260.984 20.8978 265.75 21.4879 270.45 23.0649 274.463 25.4437 281.796 29.7556 288.113 36.9468 293.265 46.8322 302.349 64.625 306.097 83.9481 308.783 102.17 311.318 121.502 312.596 140.365 312.678 159.733 312.393 167.652 311.469 178.24 306.825 187.712 304.518 192.335 301.274 195.986 297.465 198.23 295.284 199.502 292.777 200.34 290.038 200.707L283.787 201.543 284.678 207.788C285.402 212.845 286.595 217.144 288.32 220.935 289.635 223.882 291.336 226.667 293.354 229.168 293.9 229.846 294.457 230.505 295.011 231.166 296.48 232.904 297.803 234.465 299.003 236.205L300.485 239.672 303.7 240.529C307.163 241.286 310.586 242.295 313.475 243.184 318.302 244.633 323.129 246.031 327.972 247.348 332.863 248.689 337.654 249.875 342.598 250.976 346.631 251.869 351.926 253.145 357.111 255.096 362.263 257.103 366.626 259.699 370.012 262.786 373.439 265.879 376.442 269.941 378.957 274.883 380.943 278.972 382.681 283.617 384.223 288.979 384.993 291.651 385.546 294.131 385.925 296.567L387.007 303.553 397.332 300.627C398.101 300.403 398.895 300.205 399.701 300.205 400.002 300.205 400.303 300.234 400.6 300.293L401.162 300.401C402.407 304.065 402.981 307.765 403.542 311.847L408.935 349.76 413.786 387.709C414.291 391.618 414.702 395.801 414.307 399.975 412.83 401.141 411.112 401.737 409.195 402.337L401.988 404.665 402.24 409.463C402.867 421.363 402.68 433.281 401.691 444.884 400.974 451.662 400.287 458.184 397.637 464.818 394.329 472.239 391.561 477.928 388.757 483.042 385.587 488.815 382.416 493.808 379.063 498.305L377.472 500.446 377.911 503.075C379.384 511.85 382.775 519.828 386.222 527.144 388.415 531.714 390.845 536.341 393.193 540.816 395.326 544.877 397.466 548.953 399.493 553.102 404.527 563.366 407.934 571.968 410.217 580.176 412.939 589.612 414.352 599.288 414.429 608.988 414.425 618.529 413.196 628.262 410.774 637.865 408.516 646.881 406.143 656.492 404.104 666.231 402.94 671.859 402.11 676.411 401.495 680.562 401.129 682.971 400.848 685.383 400.637 687.78 400.571 688.598 400.527 689.448 400.49 690.321 400.417 691.831 400.344 693.433 400.108 695.054 399.513 700.056 397.141 704.704 393.734 707.646 391.919 709.213 389.77 710.422 387.17 711.337L385.286 712.001 384.138 713.633C383.19 714.976 382.298 716.077 381.338 717.1 379.03 719.725 376.141 721.799 373.601 723.502 372.987 723.868 372.177 724.318 371.404 724.704L365.242 727.785 368.905 733.619C379.897 751.131 391.036 769.846 402.965 790.833 410.131 803.448 415.931 813.931 421.217 823.827L422.593 826.379C425.055 830.939 427.594 835.651 429.711 840.631 431.054 843.972 431.868 846.817 432.23 849.468 432.466 850.996 432.482 852.496 432.295 853.924 432.234 854.26 432.124 854.836 431.945 855.412L431.013 858.417 432.873 860.957C440.113 870.844 446.983 880.77 453.401 890.088 462.199 902.466 470.913 916.167 480.098 932.051 484.249 939.242 488.315 946.562 492.177 953.806L497.968 964.818C498.945 966.662 499.905 968.538 500.825 970.451L501.216 971.263 501.818 971.93C509.062 979.942 516.465 988.962 524.454 999.507L525.191 1000.5C528.988 1005.62 532.911 1010.92 536.285 1016.64 539.284 1021.95 542.67 1028.44 544.603 1035.66 545.617 1039.64 545.987 1042.94 545.747 1045.97 545.49 1049.65 544.196 1053.05 542.096 1055.61 537.29 1061.3 529.977 1063.09 523.461 1064.09 517.438 1064.89 511.533 1065.3 506.022 1065.3 497.496 1065.3 489.43 1064.32 482.056 1062.38 468.422 1058.85 455.875 1051.36 446.694 1041.27 442.07 1036.22 438.111 1030.46 434.904 1024.13 433.475 1021.38 432.222 1018.27 431.123 1015.52L430.757 1014.6C429.666 1011.81 428.201 1008.84 426.158 1005.28 422.601 999.161 418.267 993.516 414.107 988.321L412.85 986.744C411.124 984.581 409.387 982.41 407.734 980.1 406.127 977.862 403.913 974.486 403.18 970.886 401.597 963.805 402.216 956.748 402.981 950.117 403.726 944.633 404.873 939.079 406.375 933.732L407.262 930.568 405.158 928.04C403.099 925.566 400.079 921.783 397.67 917.536 395.842 914.462 394.406 910.618 393.331 906.005 392.456 902.183 391.158 898.549 389.136 894.243 388.598 893.073 388.016 891.867 387.414 890.676L384.862 885.615 379.576 887.665C378.192 888.2 376.735 888.517 375.246 888.607L374.66 888.617C372.181 888.615 369.34 887.559 367.22 885.79L366.597 885.251 366.251 884.895C364.766 883.481 363.598 881.745 362.471 880.066L356.509 871.19C350.534 862.127 343.485 852.541 334.988 841.929 329.876 835.653 324.48 829.551 318.461 823.237L307.468 811.701 307.684 827.634C307.749 832.328 307.684 836.706 307.603 840.399L306.858 868.543 304.738 924.778 302.259 980.975 301.262 1011.34C301.01 1019.58 300.753 1028.07 299.838 1036.46 297.827 1037.5 295.503 1038.2 292.744 1038.58L286.908 1039.38 287.368 1045.26C287.669 1049.11 287.787 1052.96 287.722 1056.69 287.518 1062.78 286.892 1068.95 286.31 1074.17 285.39 1083.59 285.752 1093.14 286.241 1102.92L286.265 1103.44 286.379 1103.96C288.219 1112.24 290.298 1121.63 291.836 1131 293.42 1141.16 295.06 1151.72 293.778 1162.54 292.886 1168.98 290.799 1173.65 287.409 1176.68 283.872 1179.94 279.587 1182.8 274.243 1185.49 265.265 1189.94 255.099 1193.09 244.066 1194.84 238.433 1195.7 233.289 1196.13 228.369 1196.13L228.267 1196.13Z" fill="#FFFFFF" transform="matrix(1 0 0 1.00109 1503.47 222.48)"/><path d="M283.445 604.115 281.337 601.463 287.047 601.372C289.244 601.333 291.446 601.294 293.644 601.294 296.13 601.294 298.621 601.343 301.108 601.496 307.44 601.882 313.663 602.971 319.605 604.727 331.435 608.168 342.574 614.556 351.821 623.198 360.074 631.254 369.552 640.643 377.952 650.416 380.512 653.356 383.084 656.624 386.039 660.692L386.324 661.089 386.352 661.581C386.519 664.695 387.296 667.55 388.029 669.93 388.688 672.692 389.201 675.345 389.718 678.021L390.035 679.645C390.703 686.879 391.106 693.227 389.466 699.395 388.082 706.025 385.103 712.032 380.878 716.675 378.665 719.298 375.889 721.374 373.467 723.05L371.001 724.516C369.703 725.281 368.397 726.048 367.106 726.848L365.812 727.649 364.897 726.437C364.697 726.17 364.567 725.971 364.437 725.704 355.589 711.727 346.038 697.653 336.799 684.042 332.062 677.067 327.333 670.095 322.665 663.095 316.035 653.069 309.39 642.684 302.341 631.335 295.5 620.369 289.493 611.719 283.445 604.115ZM432.568 846.091C431.929 844.17 431.205 842.251 430.37 840.332 428.694 836.73 426.618 833.186 424.612 829.755 423.468 827.799 422.32 825.84 421.226 823.833L402.599 791.031C388.863 767.016 376.133 745.89 363.676 726.453 354.657 712.292 345.04 698.215 335.741 684.602 331.016 677.681 326.283 670.757 321.607 663.791 314.245 652.681 307.562 642.293 301.169 632.031 295.166 622.441 287.901 611.29 279.51 601.276 271.8 592.404 262.207 582.942 249.571 580.04 243.973 578.63 238.224 578.292 232.14 577.934L230.99 577.867C229.34 577.788 227.676 577.753 226.003 577.753 221.449 577.753 216.887 578.003 212.219 578.282 201.432 578.97 190.425 580.044 179.781 581.082L174.651 581.581C168.416 582.205 162.137 582.787 155.875 583.243L154.467 583.331C151.73 583.497 149.144 583.656 146.47 584.1 143.153 584.71 140.203 585.451 137.442 586.371 126.923 589.94 116.678 596.521 106.117 606.493 96.6079 615.518 88.3647 625.965 81.5479 635.002 79.8895 637.226 77.8261 639.993 75.7098 642.405L69.5279 649.506C67.4239 651.989 65.4623 654.49 63.5312 657.149L63.2361 657.554 63.2158 658.055C62.9024 665.205 62.7457 671.66 63.989 678.212 65.271 685.465 67.6681 692.483 71.1172 699.076 76.5625 709.462 86.5028 722.932 102.835 728.115 115.5 732.94 129.695 735.878 146.234 737.095 157.603 737.913 169.236 738.013 180.487 738.108L190.049 738.204 190.071 736.54C190.159 729.906 190.993 724.131 192.631 718.848 194.312 712.992 197.112 707.73 200.703 703.516 197.389 707.944 194.847 713.245 193.299 719.066 190.836 727.891 190.317 737.691 191.667 749.939 193.594 764.956 196.481 780.224 199.273 794.989 200.313 800.491 201.355 805.992 202.352 811.506 206.027 830.949 209.459 851.119 212.843 873.171 214.427 883.455 215.926 893.778 217.34 904.141 217.963 908.83 218.545 913.561 219.001 918.294L222.322 918.263 223.406 904.493C223.697 900.269 224.041 895.847 224.721 891.425 224.825 895.912 224.566 900.346 224.249 904.56L223.04 922.638C222.232 933.807 221.315 946.466 220.208 958.818 218.895 972.883 217.705 984.351 216.461 994.908 215.774 1000.74 215.004 1006.58 214.233 1012.42L214.172 1012.89C213.293 1019.42 212.227 1024.62 210.813 1029.25L210.131 1031.48 213.501 1031.38C216.445 1031.38 219.272 1031.8 222.419 1032.3L233.597 1033.93C241.517 1035.03 248.856 1035.92 256.021 1036.64 264.439 1037.58 271.795 1038.19 278.488 1038.48 280.149 1038.58 281.793 1038.62 283.433 1038.62 286.461 1038.62 289.464 1038.49 292.468 1038.36 294.995 1038.25 297.522 1038.14 300.066 1038.11L301.877 1038.09 301.706 1036.29C300.794 1026.74 300.819 1017.19 300.961 1009.11L301.71 980.996 303.794 924.746 306.211 868.513 307.184 838.615C307.408 830.713 307.64 822.541 308.336 814.508L308.405 813.726 307.843 813.175C300.485 805.935 292.512 798.593 283.49 790.742 274.616 782.808 265.439 774.606 256.841 765.923 248.734 757.857 241.02 748.789 233.269 738.218L227.987 730.795C227.395 729.853 226.786 728.921 226.176 727.989 225.124 726.382 224.072 724.774 223.075 723.052 219.477 717.255 216.618 712.038 214.325 707.081 212.852 704.014 211.541 700.765 210.32 697.143L209.577 694.937 209.525 694.977 209.431 694.682C208.943 693.136 208.456 691.591 208.013 690.061 207.707 688.969 207.398 687.862 207.077 686.744 207.469 687.805 209.795 694.19 209.795 694.19L210.139 694.921 210.092 694.967 210.475 695.977C212.046 700.118 213.495 703.548 215.027 706.765 217.42 711.83 220.301 717.013 223.813 722.578 224.821 724.265 225.897 725.901 226.976 727.539 227.56 728.425 228.142 729.31 228.764 730.278L234.03 737.632C241.765 748.083 249.495 757.075 257.655 765.121 265.909 773.332 274.296 780.794 284.406 789.694 306.134 808.787 322.36 825.262 335.456 841.528 344.088 852.445 350.893 861.794 356.863 870.936L362.455 879.698C363.305 881.027 364.115 882.283 364.998 883.408L366.74 885.62 367.843 883.03C368.681 881.056 369.707 879.387 371.001 877.93 372.548 875.769 374.542 873.877 376.475 872.049L377.749 870.828C382.144 866.94 387.345 863.407 394.081 859.726 399.139 857.109 404.772 854.8 412.337 852.246 415.243 851.29 418.348 850.386 421.84 849.479 424.119 848.862 426.818 848.233 429.548 848.233 429.984 848.233 430.423 848.25 430.863 848.282L433.366 848.469 432.568 846.091Z" fill="#FDA188" transform="matrix(1 0 0 1.00109 1503.47 222.48)"/><path d="M291.821 1133.51C293.135 1142.36 294.433 1152.63 293.2 1162.39 292.285 1168.82 290.217 1173.34 286.884 1176.23 283.522 1179.33 279.265 1182.14 273.91 1184.8 265.17 1189.07 255.085 1192.13 243.926 1193.91 237.943 1194.83 232.976 1195.26 228.286 1195.26 225.541 1195.26 222.881 1195.21 220.545 1194.63 218.236 1194.08 215.873 1193.02 213.539 1191.49 209.523 1188.87 205.823 1185.19 202.545 1180.56 199.092 1175.67 197.102 1171.03 196.461 1166.36 195.103 1157.73 197.647 1148.31 204.47 1136.74 206.11 1133.97 207.872 1131.2 209.675 1128.43L212.734 1129.49C212.469 1132.33 213.562 1135.44 215.658 1137.82 219.868 1142.48 225.81 1144.3 231.534 1145.77 237.142 1147.13 243.027 1148.14 249.005 1148.76 252.853 1149.15 256.392 1149.33 259.814 1149.33 262.181 1149.33 264.511 1149.24 266.739 1149.06 272.453 1148.45 278.496 1147.53 283.612 1143.6 286.123 1141.64 287.865 1138.79 288.272 1135.98 288.439 1135.16 288.471 1134.42 288.508 1133.67L291.821 1133.51ZM414.275 400.958 416.619 400.958 415.85 398.744C414.576 395.079 413.933 391.3 413.424 387.758L407.967 349.903 403.091 311.9C402.639 308.329 402.236 304.833 402.314 301.311L402.387 298.022 399.693 299.909C398.972 300.413 398.191 300.731 397.471 300.993L393.088 302.538C390.853 303.333 388.599 304.058 386.332 304.784L384.342 305.425 370.997 309.387C370.269 309.607 369.54 309.794 368.779 309.867L366.887 310.046 367.44 312.439C367.554 312.93 367.668 313.404 367.75 313.839L367.953 314.989C368.283 316.792 368.596 318.495 368.307 320.497 367.391 324.632 365.82 327.973 364.16 331.512L363.517 332.886C361.315 337.436 359.264 340.659 356.859 343.335L356.432 343.809 356.448 344.653C355.402 349.722 354.075 354.756 352.691 359.913 351.979 362.519 351.267 365.124 350.726 367.668 350.412 369.043 350.193 370.417 350.111 371.432 350.03 372.018 350.168 372.956 350.286 373.577L350.579 375.51C351.458 381.016 352.932 386.044 355.068 390.865 356.126 393.317 357.307 395.749 358.503 398.201 359.663 400.586 360.835 402.991 361.914 405.475 363.029 407.952 364.058 410.428 365.055 412.953 365.23 413.389 366.321 415.843 366.321 415.843L367.912 414.958C368.808 414.461 369.833 414.04 371.168 413.627L377.448 411.547 390.035 407.516 409.041 401.89C410.677 401.406 412.443 400.958 414.275 400.958ZM293.778 435.009 295.414 441.523 291.218 437.327 279.241 433.508 272.75 431.469C265.917 429.271 259.847 427.678 254.186 426.599L251.589 426.086C246.095 424.996 240.904 423.966 235.105 423.327 234.781 423.317 234.348 423.309 233.914 423.309 227.49 423.309 221.701 425.354 217.613 429.07L217.196 429.448 216.636 429.497C211.378 429.955 206.232 431.227 201.412 432.492L185.981 436.413 155.413 444.268 154.744 443.627C152.811 441.773 150.697 440.322 148.462 439.317L147.532 438.898 147.482 437.881C147.38 435.833 147.011 433.691 146.285 430.927L139.283 404.425 134.29 386.869 131.75 378.082C131.03 375.469 130.334 373.32 129.251 371.271L127.912 368.734 130.781 368.827C131.534 368.852 132.283 368.864 133.032 368.864 136.984 368.864 140.882 368.553 145.522 368.085L195.283 363.209 244.937 357.752C249.398 357.28 254.662 356.612 259.949 355.214L262.071 354.653 262.069 354.701 262.39 354.604C262.958 354.431 263.396 354.154 263.904 353.647L265.953 351.472 270.218 347.042 270.876 346.301C271.962 345.087 273.057 343.864 274.068 342.582L276.05 340.179C276.433 339.755 276.628 339.426 276.74 339.053L279.978 339.831C279.632 341.713 279.615 343.593 279.599 345.41L279.587 346.731C279.62 348.471 279.697 350.223 280.206 351.95L280.755 351.95 280.755 353.914C281.658 359.671 282.855 365.899 284.507 373.471 284.987 375.571 285.521 377.659 286.05 379.728 287.173 384.146 288.337 388.714 288.947 393.276 289.55 397.594 289.765 402.077 289.973 406.415 290.087 408.774 290.201 411.153 290.38 413.546 290.803 419.947 291.812 426.54 293.465 433.713 293.554 434.195 293.668 434.602 293.778 435.009ZM277.052 428.579C276.929 426.477 276.569 424.461 276.203 422.67L270.326 393.83 263.955 365.144C263.414 362.776 262.881 360.594 262.075 358.533 262.199 360.914 262.628 363.203 263.088 365.352L269.008 394.161 273.293 413.263 275.422 422.851C275.843 424.713 276.331 426.672 277.052 428.579ZM544.034 1035.78C542.565 1030.11 540.05 1024.28 535.866 1016.86 532.626 1011.26 528.646 1005.86 524.8 1000.63L524.137 999.739C521.54 996.225 518.924 992.719 516.307 989.213 513.462 985.406 510.621 981.596 507.805 977.779L504.871 979.258C505.901 982.608 506.446 985.446 506.588 988.197 506.837 992.65 505.799 997.012 503.67 1000.47 501.631 1003.75 498.494 1006.62 494.33 1009 490.843 1011.01 486.984 1012.72 482.841 1014.07 476.016 1016.34 469.053 1017.5 462.147 1017.5 460.788 1017.5 459.424 1017.45 458.114 1017.37 453.096 1016.88 449.189 1016.08 445.677 1014.79 445.03 1014.62 444.439 1014.34 443.849 1014.06 443.512 1013.91 442.209 1013.34 442.209 1013.34 441.485 1013.03 440.781 1012.74 440.016 1012.28 438.319 1011.11 436.874 1009.56 435.653 1007.63 432.837 1002.56 430.757 996.823 429.109 989.567L429.044 989.272 428.877 989.017C428.397 988.293 427.953 987.53 427.526 986.795L423.855 980.158C421.58 976.135 419.276 971.746 416.822 966.762 414.275 961.366 412.675 956.787 411.788 952.363 411.235 949.5 410.999 946.989 411.064 944.735 411.165 942.97 411.43 940.934 412.61 939.2L413.335 938.14 405.976 929.681 405.382 933.146C404.243 939.827 403.51 945.231 403.075 950.16 402.485 956.964 402.139 964.16 403.608 970.679 404.784 975.848 408.386 980.312 411.869 984.63 412.757 985.729 413.644 986.83 414.523 987.982 418.735 993.203 423.122 998.872 426.671 1004.94 428.73 1008.5 430.22 1011.47 431.359 1014.31 432.67 1017.59 433.911 1020.69 435.547 1023.82 438.644 1029.94 442.588 1035.63 447.268 1040.74 456.506 1050.79 468.618 1057.94 482.268 1061.43 489.679 1063.44 497.867 1064.46 506.609 1064.46 511.899 1064.46 517.532 1064.09 523.36 1063.35 532.049 1062.14 538.003 1059.48 541.576 1055.23 545.336 1050.75 546.211 1043.83 544.034 1035.78Z" fill="#FCCB6C" transform="matrix(1 0 0 1.00109 1503.47 222.48)"/><path d="M312.092 159.605C311.779 171.38 310.008 180.228 306.508 187.515 303.843 192.635 300.973 196.053 297.449 198.324 294.527 200.365 290.856 201.739 286.274 202.485L284.56 202.764 284.349 201.041C283.64 195.229 282.566 189.065 279.53 183.37 277.943 180.238 275.808 177.63 273.342 175.798 271.209 174.148 268.774 173.251 266.458 173.251L264.81 173.251 264.791 171.602C264.751 167.917 264.834 164.23 264.918 160.543L265.125 155.018C265.215 153.71 265.229 152.731 265.034 151.74L264.659 149.86 266.574 149.75C267.984 149.668 269.394 149.591 270.805 149.388 275.786 148.566 279.941 146.934 283.128 144.539 286.803 141.851 289.651 137.978 290.958 133.902 292.435 129.472 293.269 125.338 293.591 120.871 293.998 115.959 293.575 111.521 292.333 107.667 291.173 103.976 288.28 99.4907 283.645 97.9442 282.212 97.4661 280.686 97.2239 279.103 97.2239 276.465 97.2239 273.674 97.8669 270.57 99.1875 267.51 100.645 264.578 102.641 261.92 105.089L258.86 107.911 259.128 103.756C259.269 101.562 258.73 99.1835 257.606 97.057 256.286 94.3792 254.265 91.8783 251.581 89.5871 249.42 87.7089 246.779 86.0444 243.493 84.4918 242.514 84.0543 241.561 83.6534 240.648 83.2688 238.694 82.4447 236.849 81.6694 234.936 80.6092 228.695 77.3168 224.086 73.2227 221.266 68.455 219.652 65.6917 218.576 62.7859 218.059 59.8068 217.756 57.9938 217.625 56.1909 217.495 54.3025L217.456 53.745 217.764 53.2749C218.199 52.6095 218.445 51.8953 218.73 51.0691L219.013 50.2735C219.453 48.9467 220.047 47.5976 220.629 46.2851L220.84 45.8049C222.22 42.834 223.96 40.0279 226.021 37.4396 227.999 34.6986 230.417 32.2914 232.514 30.3074 233.721 29.1882 234.997 28.1647 236.277 27.1411 237.099 26.5286 237.866 25.9223 238.485 25.1246 237.561 25.3708 236.733 25.8368 235.846 26.4371L235.286 26.8461C234.136 27.6783 232.968 28.5228 231.859 29.4568 229.362 31.4876 227.026 33.905 224.894 36.6623 222.912 39.3178 221.225 42.2459 219.898 45.343L219.674 45.9107C219.141 47.2578 218.594 48.6313 218.173 50.0415L217.778 51.4415 217.52 51.9136C214.99 55.1979 212.066 57.7882 208.584 59.8333 205.241 61.6972 201.241 63.1542 195.964 64.4341 191.14 65.6286 186.099 66.4995 181.224 67.3419 177.294 68.0216 173.332 68.7053 169.381 69.5681 160.71 71.6131 151.675 74.3296 144.498 80.2674 138.483 85.1734 134.713 92.2975 134.163 99.3503L134.511 98.2006 137.761 98.864C136.89 107.453 136.68 116.262 136.477 124.782 136.328 135.886 136.459 149.011 138.54 162.028 139.421 167.081 140.799 173.719 143.625 180.029 144.905 182.961 146.519 185.706 148.428 188.199 150.442 190.699 152.803 192.82 155.413 194.472 158.641 196.542 162.155 197.744 165.195 198.709L167.879 199.561 165.84 201.505C165.108 202.203 164.385 203.037 163.567 204.13L163.038 204.834 161.911 205.129C155.049 204.836 149.419 203.478 144.7 200.98 139.348 198.304 134.688 193.774 130.887 187.537 123.621 175.096 121.944 160.046 121.311 149.807 120.656 137.813 121.246 124.955 123.114 110.485 124.888 97.0265 127.568 84.0583 131.083 71.9366 134.843 58.5533 140.514 46.6901 147.931 36.6928 155.861 25.9467 166.078 17.1886 177.475 11.3628 188.643 5.596 200.801 2.54574 212.634 2.54574 213.525 2.54574 214.414 2.56202 215.306 2.59661 222.883 2.94457 229.1 4.28962 234.319 6.70907 241.209 9.72067 245.841 14.7 247.058 20.4037 248.384 20.2836 249.923 20.2307 251.453 20.2307 260.561 20.2307 268.015 22.0662 274.241 25.8429 281.475 30.1507 287.702 37.3175 292.736 47.1337 301.755 65.0283 305.422 85.0615 307.827 102.301 310.448 121.42 311.884 140.699 312.092 159.605Z" fill="#4F494B" transform="matrix(1 0 0 1.00109 1503.47 222.48)"/><path d="M357.664 530.221C357.292 529.735 357.385 529.04 357.871 528.668 358.244 528.383 358.742 528.373 359.121 528.603 363.392 531.211 366.965 534.572 370.362 538.105 373.774 541.622 377.092 545.239 380.242 549.015 386.501 556.574 392.423 564.609 396.328 574.003 398.116 578.72 399.535 583.884 398.88 589.319 398.802 590.654 398.369 592.031 398.047 593.289L396.852 596.805 394.474 603.633C392.986 608.158 391.796 612.73 391.377 617.343 390.926 621.97 391.199 626.464 391.777 631.236L391.781 631.267C391.839 631.747 391.497 632.183 391.018 632.241 390.661 632.284 390.327 632.105 390.157 631.813 387.584 627.399 386.814 622.026 387.269 616.995 387.665 611.919 388.889 607.024 390.368 602.315L392.689 595.361 393.792 591.969C394.041 590.877 394.361 589.918 394.405 588.82 394.891 584.545 393.661 580.01 391.966 575.749 388.462 567.139 382.89 559.217 376.867 551.807 373.842 548.091 370.636 544.51 367.331 541.02 363.989 537.567 360.638 534.115 357.68 530.243L357.664 530.221ZM58.3067 581.248C63.8649 580.46 68.2724 577.211 72.9027 574.461 77.4578 571.555 81.7687 568.154 85.6044 564.143 89.319 560.044 92.353 554.995 93.5515 549.294 94.0959 546.448 94.1935 543.464 93.5668 540.6 93.0276 537.736 91.8524 534.942 89.3689 533.045 89.1145 532.852 88.7747 532.767 88.44 532.846 87.8407 532.986 87.4693 533.585 87.6097 534.184L87.6606 534.405C88.2273 536.823 89.0209 539.067 89.436 541.382 89.9 543.702 89.7565 546.097 89.2651 548.412 88.1795 553.049 85.5372 557.341 82.1125 560.988 78.7347 564.691 74.7901 567.99 70.5108 570.864 68.3111 572.221 66.2406 573.774 63.9331 574.98 61.6428 576.216 59.437 577.572 57.5568 579.7L57.5019 579.761C57.335 579.952 57.2496 580.211 57.2882 580.482 57.3574 580.974 57.8132 581.317 58.3067 581.248ZM138.513 526.207C142.79 527.445 147.101 527.421 151.372 527.111 155.639 526.775 159.905 526.33 164.111 525.523 172.537 524.017 180.822 521.629 188.734 518.305 196.591 514.947 204.11 510.434 210.951 505.636 214.37 503.392 218.009 501.269 221.619 499.168 225.247 497.076 228.827 494.89 232.028 492 232.267 491.784 232.382 491.442 232.293 491.11 232.164 490.639 231.679 490.361 231.208 490.488 227.027 491.621 223.261 493.52 219.579 495.58 215.894 497.652 212.232 499.707 208.585 502.021 201.587 506.762 194.56 510.816 186.898 513.972 179.344 517.238 171.416 519.664 163.314 521.22 159.272 522.055 155.167 522.537 151.063 522.918 146.956 523.236 142.836 523.403 138.728 524.035L138.651 524.046C138.238 524.111 137.88 524.407 137.756 524.834 137.586 525.422 137.925 526.037 138.513 526.207ZM547.824 1046.14C547.562 1049.93 546.234 1053.86 543.703 1056.93 538.474 1063.12 530.703 1065.09 523.778 1066.15 509.8 1068.01 495.384 1068.04 481.526 1064.39 467.708 1060.82 454.802 1053.28 445.155 1042.68 440.323 1037.39 436.266 1031.44 433.043 1025.07 431.417 1021.95 430.064 1018.47 428.817 1015.36 427.594 1012.24 426.031 1009.25 424.349 1006.32 420.949 1000.47 416.805 995.024 412.484 989.624 410.332 986.91 408.122 984.217 406.038 981.31 404.003 978.481 401.896 975.021 401.14 971.301 399.512 964.005 400.105 956.865 400.91 949.879 401.78 943.484 403.129 937.217 404.982 931.06 401.67 927.185 398.444 923.123 395.854 918.567 393.644 914.84 392.238 910.498 391.307 906.48 390.381 902.472 388.998 898.847 387.248 895.129 386.135 892.689 384.9 890.291 383.62 887.909 381.165 889.513 378.403 890.503 375.368 890.686 371.957 890.842 368.447 889.542 365.851 887.365 365.668 887.223 365.523 887.049 365.349 886.898 365.306 886.864 365.245 886.871 365.207 886.828 365.187 886.805 365.204 886.771 365.187 886.747 362.889 884.696 361.327 882.034 359.819 879.877L354.781 872.356C348.141 862.28 340.891 852.634 333.359 843.232 325.856 834.016 317.796 825.313 309.375 816.943 309.87 824.777 309.857 832.616 309.688 840.443L308.939 868.599 306.821 924.858 304.345 981.066 303.416 1009.17C303.121 1018.53 302.9 1027.89 301.845 1037.26 301.818 1037.52 301.667 1037.72 301.467 1037.86 301.398 1037.94 301.332 1038.02 301.238 1038.08 297.728 1040.03 293.752 1040.72 289.929 1040.94 289.636 1040.96 289.345 1040.95 289.052 1040.97 289.635 1046.19 289.901 1051.45 289.807 1056.73 289.608 1062.67 289.023 1068.62 288.378 1074.4 287.457 1083.83 287.857 1093.51 288.34 1103.16 290.357 1112.26 292.368 1121.38 293.892 1130.67 295.519 1141.13 297.152 1151.78 295.848 1162.78 295.107 1168.15 293.383 1174.13 288.798 1178.23 284.713 1182 280.022 1184.92 275.177 1187.35 265.44 1192.17 255.007 1195.21 244.391 1196.9 239.074 1197.72 233.704 1198.22 228.27 1198.21 225.577 1198.19 222.826 1198.16 219.862 1197.44 216.991 1196.74 214.353 1195.46 212.002 1193.89 207.261 1190.76 203.453 1186.65 200.292 1182.15 197.16 1177.7 194.545 1172.45 193.79 1166.79 192.963 1161.17 193.694 1155.44 195.395 1150.22 197.065 1144.96 199.535 1140.08 202.285 1135.47 205.001 1130.83 208.158 1126.53 211.207 1122.23 213.098 1119.64 215.021 1117.09 216.793 1114.49 218.166 1111.02 219.469 1107.53 220.615 1103.98 224.176 1092.94 226.644 1081.52 227.332 1070 227.942 1058.72 228.765 1047.41 230.597 1036.2L221.992 1034.8C218.262 1034.17 214.544 1033.47 210.984 1031.88 210.578 1031.69 210.417 1031.29 210.405 1030.88 210.385 1030.8 210.337 1030.74 210.336 1030.66 210.282 1024.54 210.998 1018.57 211.738 1012.59 212.473 1006.6 213.189 1000.61 213.804 994.609 215.094 982.609 216.182 970.581 217.199 958.546 218.01 949.904 218.727 941.252 219.453 932.6 217.497 923.269 216.177 913.876 214.867 904.475 213.401 894.166 211.844 883.87 210.196 873.588 206.934 853.017 203.13 832.535 199.434 812.022 195.847 791.473 191.624 771.088 189.076 750.182 188.693 746.333 188.426 742.419 188.397 738.492 174.375 740.094 160.202 740.546 146.046 739.558 131.108 738.545 116.073 735.93 101.913 730.602 98.4413 729.29 94.7653 727.883 91.4098 725.863 88.0513 723.89 84.9481 721.522 82.1217 718.882 76.4383 713.615 71.9535 707.221 68.5197 700.383 68.0257 699.399 67.5989 698.384 67.1471 697.381 67.0586 697.361 66.9686 697.4 66.8846 697.358 64.0104 695.9 61.2064 694.174 58.791 691.866 56.3878 689.577 54.4099 686.618 53.5186 683.272 53.0445 681.523 52.8492 679.773 52.8583 678.039 51.8567 672.046 51.2233 666.084 50.4816 660.136 49.6056 653.501 48.3806 646.925 46.7446 640.447 45.1319 633.96 43.0554 627.601 40.8811 621.193 38.7913 614.707 36.3617 608.439 35.3788 601.187 34.6046 593.988 35.7868 586.986 37.3832 580.291 39.0233 573.58 41.2036 567.093 43.4725 560.687 47.8098 548.578 52.431 536.633 54.823 524.451 44.6314 523.567 34.6249 520.994 25.0285 518.773 22.1268 518.231 18.8568 517.132 16.2297 515.308 13.5152 513.543 11.3247 511.132 9.55641 508.557 6.09002 503.314 4.30646 497.42 3.12217 491.611 1.92974 485.784 1.4546 479.892 0.875677 474.204 0.293706 468.363-0.0166108 462.498 0.000685616 456.634-0.0389943 433.093 5.48566 410.104 11.8029 387.841 15.0546 376.611 19.4662 365.684 24.413 355.2 29.3221 344.691 34.282 334.301 38.8361 323.71 43.4898 313.165 47.4985 302.379 52.1553 291.671 56.8955 281.112 61.8077 270.173 70.5474 261.528 72.7868 259.45 75.2652 257.607 77.9278 256.09 80.5986 254.566 83.4647 253.529 86.2576 252.564 91.8819 250.736 97.5521 249.387 103.237 248.14 114.16 245.873 125.143 244.184 136.192 242.888 136.091 242.532 135.964 242.188 135.875 241.827 135.86 241.77 135.904 241.722 135.899 241.665 135.811 241.565 135.696 241.49 135.659 241.353 135.583 241.068 135.652 240.779 135.821 240.564L135.853 240.523C138.726 236.927 142.367 234.524 145.426 231.444 148.485 228.442 151.194 224.968 153.179 221.38 155.091 217.82 156.154 213.387 158.417 209.077 159.037 207.849 159.76 206.699 160.517 205.577 154.926 205.942 149.149 205.203 143.85 202.801 137.487 199.855 132.285 194.694 128.779 188.793 121.735 176.857 119.549 163.184 118.645 149.947 117.841 136.609 118.632 123.286 120.282 110.116 121.982 96.9469 124.467 83.8846 128.172 71.0767 131.846 58.2351 137.561 45.7871 145.641 34.9759 153.683 24.1565 164.182 15.0823 176.242 8.96014 188.277 2.84384 201.813-0.494858 215.411 0.0596424 222.19 0.350882 229.033 1.70076 235.289 4.76374 238.386 6.33135 241.303 8.40996 243.629 11.1257 245.686 13.5162 247.098 16.5469 247.493 19.6912 251.927 18.698 256.564 18.3409 261.201 18.8262 266.2 19.445 271.147 21.0554 275.519 23.6519 284.356 28.8451 290.598 37.1974 295.114 45.869 304.102 63.4754 308.03 82.7812 310.845 101.866 313.372 121.098 314.678 140.24 314.762 159.725 314.416 169.464 313.187 179.47 308.699 188.627 306.444 193.147 303.046 197.361 298.522 200.027 294.733 202.234 290.417 203.095 286.24 202.985 286.74 208.957 287.8 214.772 290.216 220.072 291.463 222.859 293.057 225.484 294.976 227.861 296.899 230.247 298.965 232.448 300.835 235.194L300.852 235.219C300.9 235.29 300.875 235.374 300.9 235.451 301.076 235.668 301.179 235.935 301.108 236.206 300.956 236.752 300.723 237.267 300.553 237.806 305.186 238.56 309.651 239.83 314.085 241.192 318.883 242.632 323.694 244.024 328.517 245.337 333.354 246.662 338.146 247.85 343.051 248.94 347.992 250.036 352.965 251.309 357.846 253.148 362.69 255.033 367.451 257.632 371.415 261.249 375.403 264.841 378.452 269.298 380.816 273.94 383.093 278.632 384.815 283.495 386.225 288.404 387.412 292.53 388.239 296.735 388.5 301.021 389.765 300.639 391.024 300.236 392.299 299.887L396.764 298.62C398.249 298.191 399.772 297.88 401.551 298.375 401.576 298.382 401.584 298.412 401.609 298.421 401.721 298.394 401.809 298.307 401.93 298.317 402.38 298.353 402.746 298.651 402.892 299.048 404.379 303.14 405.026 307.345 405.607 311.559L407.406 324.194 410.997 349.465 414.234 374.785 415.853 387.444C416.397 391.663 416.799 395.902 416.374 400.252 416.363 400.361 416.276 400.427 416.231 400.519 416.231 400.556 416.265 400.582 416.262 400.619 416.23 400.939 416.071 401.219 415.844 401.411 414.009 402.945 411.924 403.667 409.819 404.325L404.132 406.159C404.969 419.103 404.872 432.068 403.765 445.062 403.046 451.89 402.309 458.738 399.574 465.589 396.804 471.81 393.887 478.02 390.584 484.044 387.376 489.892 383.811 495.584 379.692 500.927 380.856 509.632 384.148 517.827 387.934 525.893 392.011 534.434 396.738 542.794 401.004 551.444 409.661 568.614 416.163 587.613 416.506 607.302 416.68 617.095 415.473 626.871 413.253 636.353 410.993 645.724 408.636 654.934 406.649 664.273 404.723 673.615 402.757 682.901 402.475 692.341 402.23 697.326 400.811 702.68 397.396 706.776 394.598 710.18 390.746 712.281 386.777 713.434 385.602 715.231 384.329 716.961 382.856 718.527 380.525 721.186 377.663 723.288 374.761 725.235 372.636 726.515 370.399 727.625 367.969 728.222 380.769 748.44 392.965 769.022 404.776 789.804 410.993 800.75 417.129 811.743 423.057 822.846 426.026 828.392 429.099 833.851 431.633 839.816 432.833 842.807 433.849 845.909 434.295 849.186 434.547 850.812 434.583 852.508 434.364 854.202 434.15 855.423 433.863 856.65 433.115 857.774 440.662 868.002 447.91 878.443 455.117 888.908 464.725 902.416 473.585 916.622 481.906 931.006 486.063 938.215 490.104 945.488 494.017 952.828L499.812 963.848C500.891 965.88 501.95 967.963 502.961 970.087 511.136 979.093 518.765 988.547 526.116 998.25 530.267 1003.86 534.44 1009.41 538.081 1015.58 541.548 1021.71 544.737 1028.1 546.618 1035.12 547.513 1038.64 548.13 1042.32 547.824 1046.14ZM387.866 698.98C389.487 692.857 388.971 686.334 388.407 679.947 387.761 676.773 387.202 673.574 386.45 670.411 385.576 667.598 384.854 664.756 384.671 661.671 382.153 658.188 379.514 654.773 376.695 651.485 368.564 642.046 359.588 633.133 350.668 624.403 341.729 616.029 330.893 609.748 319.116 606.31 313.237 604.572 307.141 603.548 301.006 603.14 295.601 602.809 290.177 602.989 284.75 603.088 291.713 611.819 297.896 621.057 303.758 630.445 310.372 641.112 317.119 651.694 324.062 662.155 337.969 683.055 352.476 703.668 365.94 724.982 366.032 725.128 366.122 725.276 366.215 725.422 368.32 724.145 370.443 722.941 372.513 721.682 375.084 719.877 377.62 717.966 379.635 715.565 383.847 710.926 386.574 705.118 387.866 698.98ZM399.744 444.656C401.09 432.141 401.552 419.46 402.18 406.788L390.931 410.411 378.245 414.167 371.883 415.983C370.773 416.304 369.651 416.584 368.491 416.741 368.919 417.669 369.349 418.592 369.832 419.538 372.225 424.281 374.822 429.148 376.863 434.29 380.901 444.545 382.929 456.075 380.351 466.846 380.24 467.314 379.769 467.602 379.302 467.49 378.926 467.4 378.666 467.074 378.637 466.709 377.797 456.014 377.075 445.609 372.902 435.882 370.913 431.02 368.384 426.386 365.873 421.54 364.618 419.166 363.422 416.521 362.403 414.043 361.377 411.583 360.314 409.143 359.187 406.725 356.962 401.878 354.582 397.082 352.433 391.978 350.27 386.879 348.791 381.393 347.978 375.933L347.705 373.884C347.618 373.217 347.494 372.573 347.53 371.515 347.647 369.856 347.931 368.529 348.232 367.156 348.851 364.447 349.542 361.817 350.342 359.219 351.616 355.073 353.118 351.02 354.812 347.032 354.293 347.357 353.776 347.688 353.235 347.962 351.693 348.617 350.11 349.198 348.507 349.694 345.287 350.525 342.059 351.324 338.813 351.896 332.324 353.085 325.806 353.962 319.28 354.545 312.745 355.043 306.21 355.353 299.676 355.508L289.876 355.64C287.126 355.659 284.377 355.588 281.629 354.994L286.594 372.905C288.223 379.384 290.54 385.918 291.453 392.888 292.465 399.793 292.501 406.665 293.052 413.315 293.548 419.989 294.644 426.563 296.18 433.08 297.698 439.588 299.732 446.037 301.854 452.375 304.073 458.581 306.963 464.721 309.881 470.794 312.821 476.873 315.903 482.901 319.022 488.918L323.72 497.949C325.3 501.08 326.715 503.732 328.739 506.266 332.62 511.15 338.065 515.609 343.778 516.47 349.995 517.314 356.308 515.524 361.722 512.101 367.174 508.694 371.852 503.935 375.944 498.743 380.044 493.534 383.616 487.861 386.86 481.998 390.108 476.128 392.994 470.051 395.77 463.882 398.141 458.106 398.956 451.268 399.744 444.656ZM294.247 322.446 295.387 317.661 296.788 311.789C295.47 311.34 294.466 311.153 293.543 311.409 292.224 311.734 290.749 313.155 290.248 314.642 288.724 318.736 287.329 323.068 286.075 327.373 284.761 331.661 283.492 336.018 282.631 340.31 281.792 343.861 282.546 348.078 281.575 352.135 284.326 351.577 287.076 351.471 289.826 351.436L299.533 351.134C306 350.873 312.454 350.431 318.882 349.856 325.323 349.41 331.727 348.673 338.052 347.643 341.225 347.15 344.325 346.442 347.42 345.712 348.922 345.244 350.438 344.838 351.999 344.518 353.43 344.147 354.874 343.804 356.458 343.623 357.645 339.444 359.467 335.628 361.268 331.825 363.034 327.973 364.926 323.847 365.668 320.154 365.899 318.679 365.466 316.488 365.049 314.473 364.604 312.417 364.052 310.342 363.455 308.276 362.445 304.782 361.31 301.289 360.177 297.819 358.347 298.335 356.892 299.316 356.05 300.889 354.882 302.972 354.634 305.897 354.706 308.841 354.699 311.892 355.303 314.723 354.908 318.558 354.428 320.719 353.632 321.947 352.798 323.395 352.209 324.34 351.532 325.213 350.808 326.057L351.019 329.973C351.202 333.199 351.241 336.435 350.507 339.729 350.401 340.214 349.922 340.52 349.438 340.413 349.135 340.346 348.899 340.126 348.793 339.858 347.581 336.7 347.163 333.482 346.907 330.252L346.197 320.552C345.982 317.308 345.768 314.085 345.663 310.77 345.591 307.66 345.247 304.628 344.205 302.082 343.182 299.517 341.493 297.852 339.147 297.737 336.885 297.541 333.832 298.932 332.685 300.647 331.56 302.517 331.122 305.996 330.872 308.996 330.668 312.123 330.576 315.295 329.769 318.498L329.761 318.529C329.608 319.136 328.992 319.503 328.386 319.35 327.999 319.253 327.707 318.96 327.588 318.608 326.509 315.348 326.471 312.04 326.674 308.71 326.941 306.06 327.004 303.486 327.993 300.65 327.051 299.969 326.29 299.281 325.493 298.702 324.304 297.849 323.001 297.472 321.696 297.562 320.391 297.626 319.06 298.231 317.953 299.068 317.42 299.501 316.94 299.994 316.658 300.462 316.345 301.031 316.048 301.745 315.771 302.515 314.669 305.687 313.942 309.262 313.334 312.804 313.028 314.582 312.759 316.373 312.517 318.17 312.292 319.969 312.025 321.764 310.945 323.482L310.931 323.505C310.574 324.074 309.824 324.246 309.255 323.888 309.026 323.745 308.862 323.537 308.77 323.303 308.011 321.368 308.131 319.514 308.343 317.671 308.533 315.826 308.751 313.982 309.01 312.135 309.434 309.165 309.981 306.194 310.769 303.177 310.411 303.103 310.062 303.03 309.715 302.975 308.38 302.735 307.129 302.797 306.127 303.22 304.138 304.124 302.797 306.281 302.174 309.474L299.607 318.813 298.32 323.485C297.909 325.049 297.433 326.59 296.132 327.947L296.106 327.975C295.63 328.47 294.843 328.487 294.347 328.012 294.18 327.852 294.066 327.651 294.008 327.442 293.517 325.646 293.849 324.035 294.247 322.446ZM384.828 307.032 375.933 309.67 371.484 310.986C370.654 311.243 369.812 311.461 368.928 311.546 369.081 312.225 369.273 312.882 369.41 313.572 369.785 315.82 370.352 317.996 369.948 320.868 368.863 325.738 366.89 329.558 365 333.608 363.13 337.469 361.022 341.192 358.115 344.459 358.117 344.54 358.162 344.614 358.146 344.695 357.057 349.986 355.664 355.181 354.288 360.345 353.604 362.926 352.892 365.5 352.347 368.052 352.071 369.307 351.835 370.634 351.768 371.661 351.73 371.955 351.82 372.644 351.93 373.31L352.218 375.262C353.076 380.448 354.492 385.419 356.606 390.22 358.663 395.04 361.277 399.806 363.432 404.805 364.54 407.289 365.589 409.807 366.596 412.336 366.755 412.741 366.926 413.113 367.087 413.507 368.242 412.891 369.444 412.428 370.664 412.029L376.945 409.949 389.544 405.911 402.235 402.173 408.581 400.308C410.41 399.752 412.265 399.278 414.275 399.306 412.994 395.597 412.304 391.808 411.763 387.998L409.954 375.365 406.335 350.098 403.07 324.782 401.441 312.124C400.963 308.539 400.566 304.945 400.66 301.283 399.825 301.862 398.929 302.25 398.011 302.566L393.629 304.095C390.717 305.142 387.763 306.056 384.828 307.032ZM162 203.459C162.082 203.346 162.159 203.228 162.24 203.115 163.002 202.125 163.791 201.154 164.702 200.301 161.276 199.207 157.789 197.952 154.538 195.886 151.7 194.104 149.193 191.785 147.099 189.192 145.049 186.561 143.403 183.685 142.095 180.712 139.454 174.761 137.981 168.516 136.913 162.289 134.912 149.785 134.647 137.238 134.795 124.763 135.017 116.05 135.209 107.34 136.109 98.7027 135.526 100.577 134.969 102.495 134.34 104.463L134.332 104.489C134.185 104.951 133.69 105.206 133.228 105.059 132.896 104.953 132.67 104.666 132.625 104.342 131.336 95.0039 135.987 85.0872 143.42 78.9824 150.924 72.7877 160.178 70.0282 169.038 67.9534 177.997 66.0017 186.993 64.936 195.584 62.8322 199.854 61.7649 204.058 60.457 207.731 58.3956 211.078 56.4325 213.826 53.996 216.213 50.8809 216.315 50.4332 216.442 49.9922 216.596 49.5603 217.06 47.8909 217.723 46.2839 218.36 44.6677 219.745 41.4778 221.491 38.4329 223.559 35.626 225.701 32.8772 228.106 30.3336 230.796 28.1657 232.125 27.0631 233.517 26.0525 234.92 25.0765 236.33 24.1133 237.84 23.2952 239.784 23.2464 240.34 23.2324 240.8 23.6714 240.815 24.227 240.819 24.3918 240.78 24.5546 240.713 24.6937 239.869 26.4328 238.629 27.4627 237.346 28.429 236.083 29.4161 234.844 30.4246 233.681 31.5052 231.363 33.6705 229.17 35.944 227.31 38.4743 225.379 40.9452 223.701 43.6167 222.351 46.4632 221.729 47.9085 221.068 49.3446 220.594 50.856 220.178 51.9825 219.86 53.1228 219.162 54.2025 219.286 56.0019 219.426 57.7872 219.712 59.5349 220.197 62.3888 221.235 65.1237 222.715 67.6034 225.678 72.5959 230.461 76.3744 235.755 79.1307 238.452 80.6339 241.034 81.5811 244.212 82.9727 247.221 84.3844 250.116 86.109 252.681 88.3181 255.23 90.5246 257.528 93.1516 259.091 96.2586 260.287 98.5913 260.96 101.269 260.781 103.868 263.463 101.395 266.501 99.2595 269.928 97.6746 274.125 95.8588 279.19 94.6885 284.159 96.371 289.179 98.0315 292.518 102.652 293.907 107.146 295.367 111.717 295.634 116.43 295.272 120.985 294.902 125.598 294.048 129.926 292.55 134.422 291.071 138.956 287.997 143.038 284.11 145.883 280.235 148.79 275.601 150.309 271.031 151.05 269.593 151.229 268.137 151.341 266.681 151.397 266.897 152.651 266.883 153.872 266.805 155.093L266.58 160.592C266.517 164.253 266.426 167.916 266.479 171.585 269.362 171.565 272.119 172.755 274.354 174.448 277.235 176.643 279.46 179.523 281.014 182.6 284.097 188.364 285.261 194.658 285.987 200.824 289.856 200.218 293.518 199.051 296.562 196.908 300.278 194.506 302.944 190.786 305.001 186.775 308.982 178.557 310.179 168.989 310.425 159.617 310.218 140.672 308.777 121.378 306.183 102.517 303.538 83.6931 299.712 64.6897 291.242 47.8935 286.996 39.6052 281.217 31.919 273.379 27.2663 265.562 22.5154 256.166 21.4494 246.737 22.0738 246.429 22.0944 246.148 21.9815 245.935 21.7894 245.709 21.6269 245.534 21.3993 245.483 21.1118 244.379 15.0001 239.254 10.6893 233.632 8.21792 227.96 5.60897 221.573 4.55339 215.235 4.25223 202.477 3.77937 189.611 6.98912 178.23 12.8411 166.814 18.698 156.89 27.339 149.27 37.6779 141.613 48.0227 136.182 59.9187 132.676 72.3909 129.08 84.8931 126.496 97.7568 124.781 110.696 123.092 123.637 122.255 136.721 122.974 149.691 123.759 162.555 125.914 175.733 132.319 186.656 135.562 192.008 139.905 196.707 145.467 199.494 150.432 202.138 156.159 203.213 162 203.459ZM189.349 211.519C193.941 212.931 198.592 214.138 203.285 215.088 212.655 216.976 222.275 217.822 231.575 216.658 240.856 215.661 249.82 211.911 255.936 205.062 259.06 201.718 261.341 197.613 262.987 193.263 263.087 193.017 263.164 192.762 263.26 192.515 262.781 191.18 262.642 189.817 262.556 188.453L262.189 182.855C261.978 179.12 261.824 175.377 261.77 171.627 261.809 167.878 261.865 164.122 262.173 160.372L262.681 154.751C262.802 153.599 263.012 152.451 263.419 151.331 261.366 151.162 259.346 150.757 257.441 149.84 256.876 149.568 256.638 148.889 256.909 148.324 257.078 147.974 257.402 147.749 257.759 147.694L257.802 147.687C262.192 147.035 266.269 147.55 270.361 146.812 274.374 146.073 278.283 144.679 281.383 142.239 284.501 139.834 286.836 136.577 288.229 132.831 289.59 129.06 290.48 124.731 290.837 120.629 291.218 116.484 290.973 112.281 289.801 108.49 288.638 104.707 286.211 101.507 282.779 100.329 279.344 99.0621 275.241 99.8969 271.436 101.319 267.595 102.806 263.837 104.838 260.023 106.972 259.606 107.21 259.076 107.064 258.837 106.647 258.808 106.595 258.823 106.537 258.806 106.483 258.764 106.419 258.67 106.399 258.645 106.328L258.634 106.295C257.616 103.293 256.749 100.689 255.433 98.1655 254.113 95.6588 252.144 93.4866 249.91 91.627 247.663 89.7656 245.067 88.2855 242.359 87.0816 239.753 85.9932 236.389 84.8087 233.554 83.2841 227.769 80.1934 222.342 75.7719 218.934 69.8128 217.241 66.8551 216.072 63.5835 215.562 60.2163 215.428 59.3678 215.335 58.5109 215.294 57.6524 213.723 59.4309 211.816 60.9283 209.821 62.0436 205.624 64.4616 201.12 65.8923 196.661 67.0736 187.715 69.3699 178.732 70.5634 170.054 72.5476 161.421 74.4189 152.78 76.9813 146.17 82.3137 143.52 84.4511 141.319 87.0671 139.641 90.0106 140.104 95.476 139.829 100.874 139.598 106.28 139.328 112.457 139.151 118.632 139.115 124.804 139.092 137.129 139.499 149.503 141.554 161.512 142.547 167.499 143.895 173.45 146.258 178.877 148.577 184.312 152.028 189.126 156.879 192.188 161.692 195.359 167.694 196.549 173.749 198.847 176.777 199.981 179.809 201.639 182.287 203.98 184.303 205.907 185.808 208.254 186.85 210.729 187.681 210.996 188.518 211.254 189.349 211.519ZM138.11 241.469C145.216 255.62 157.82 266.828 172.652 272.866 187.543 279.157 204.023 281.188 220.283 281.117 236.461 281.211 252.847 278.049 267.008 270.351 274.065 266.513 280.473 261.513 285.808 255.52 291.01 249.728 295.112 243.106 299.113 236.235 296.217 234.957 293.78 232.881 291.775 230.466 289.589 227.864 287.747 224.963 286.297 221.889 283.341 215.742 282.066 208.978 281.458 202.458 280.873 196.24 279.897 189.955 277.133 184.621 275.839 181.921 274.025 179.552 271.803 177.788 271.256 177.373 270.631 177.083 270.045 176.731 270.042 181.55 269.186 186.211 268.351 189.58 267.975 191.322 267.51 193.049 266.846 194.724 265.119 199.478 262.644 204.092 259.163 207.934 252.33 215.819 242.15 220.14 232.17 221.326 222.1 222.492 212.065 221.426 202.395 219.373 197.553 218.333 192.783 217.035 188.083 215.528 185.116 214.588 182.2 213.497 179.389 212.142L179.306 212.142C177.33 211.404 175.948 210.571 175.004 209.706 174.863 209.614 174.712 209.542 174.572 209.447 174.301 209.266 174.157 208.987 174.112 208.689 172.756 206.78 173.167 204.838 173.819 203.475 173.287 203.248 172.8 202.969 172.243 202.772 171.015 202.309 169.727 201.897 168.422 201.487 167.667 203.046 166.615 204.3 165.638 205.626 164.434 207.399 163.245 209.172 162.357 211.074 160.448 214.73 159.722 219.27 157.28 223.596 154.907 227.859 151.779 231.336 148.37 234.532 145.267 237.3 142.094 240.018 138.11 241.469ZM25.9645 514.384C37.3842 517.059 48.3165 519.95 59.7128 520.344 71.049 520.978 82.3995 519.52 93.6624 517.33 116.24 512.87 138.124 506.082 159.297 496.47 170.609 492.568 182.074 490.837 193.562 489.088 204.436 487.558 215.346 486.47 226.3 485.827 225.771 485.272 225.272 484.688 224.841 484.064 224.197 482.949 223.636 481.781 223.133 480.593 222.26 478.201 221.411 475.798 220.759 473.367 219.373 468.517 218.404 463.596 217.606 458.675 216.885 453.738 216.319 448.793 215.891 443.842L215.329 436.411C215.196 434.505 215.119 432.594 215.457 430.659 211.093 432.463 206.598 433.759 202.071 434.935L186.667 439.053 155.855 447.271C154.981 447.504 154.092 447.207 153.525 446.579L153.462 446.508C150.909 443.664 147.153 441.204 143.443 440.801 139.623 440.302 136.095 441.959 132.788 444.872L122.266 453.358C118.759 456.189 115.16 458.903 111.04 460.989 110.608 461.21 110.078 461.039 109.856 460.606 109.695 460.291 109.745 459.922 109.949 459.66 112.808 456.037 116.187 453.042 119.659 450.162L126.522 444.465C124.476 444.75 122.428 444.957 120.385 445.179 116.284 445.648 112.194 446.24 108.243 447.149 106.23 447.582 104.406 448.148 102.457 448.82 100.27 449.609 97.8726 449.993 95.5386 449.977 90.8391 449.907 86.5252 448.477 82.5419 446.758 75.5369 443.387 67.3201 444.206 61.0639 448.997 57.8763 451.247 55.1292 454.22 52.6803 457.419 50.1733 460.592 48.0184 464.038 45.1146 467.179L45.0872 467.209C44.7575 467.566 44.201 467.587 43.8439 467.258 43.5936 467.026 43.5091 466.683 43.5936 466.376 44.7524 462.212 46.7507 458.361 49.3909 454.926 51.964 451.46 54.9013 448.153 58.5193 445.504 62.0813 442.832 66.3851 440.818 71.0154 440.315 73.1714 440.031 75.3364 440.119 77.4573 440.444 76.6301 439.766 75.7699 439.118 74.8338 438.556 71.923 436.79 68.715 435.389 65.328 434.446 63.6838 433.848 61.9297 433.514 60.2347 433.03L54.9939 432.007C53.2215 431.766 51.4553 431.46 49.6697 431.268 47.8739 431.12 46.1016 430.847 44.3241 429.727L44.26 429.687C43.8154 429.406 43.6811 428.818 43.9619 428.372 44.0677 428.205 44.2163 428.082 44.3841 428.008 48.1649 426.343 51.8806 427.456 55.6227 427.639 59.3617 428.077 63.0815 428.833 66.7412 429.954 70.3897 431.078 73.9283 432.745 77.2126 434.882 78.8588 435.947 80.3961 437.228 81.8124 438.656 82.0464 438.896 82.2652 439.157 82.4875 439.414 82.6671 437.293 82.9713 435.199 83.2287 433.098 83.7547 429.387 84.1098 425.661 84.3896 421.933 84.9807 414.467 84.8189 406.999 85.1445 399.29 85.58 391.584 86.9515 383.837 89.1562 376.475 90.2856 372.801 91.4556 369.146 92.8088 365.573 94.0531 361.953 95.7248 358.509 98.0028 355.332 98.2867 354.936 98.8391 354.845 99.2359 355.129 99.5025 355.32 99.6307 355.632 99.6002 355.937L99.5961 355.981C99.1942 359.885 97.8604 363.4 96.6964 366.961 95.4256 370.493 94.3492 374.07 93.3124 377.651 91.3 384.836 90.1421 392.117 89.843 399.537 89.4421 406.952 89.4645 414.649 88.7513 422.279 88.4074 426.093 87.9852 429.905 87.392 433.681 86.9972 436.779 86.3517 439.836 85.3002 442.804 88.6862 444.251 92.1811 445.347 95.6006 445.432 97.4483 445.462 99.2471 445.208 101.007 444.602 103.02 443.934 105.208 443.292 107.294 442.879 111.512 441.97 115.725 441.425 119.94 440.999 123.556 440.623 127.182 440.441 130.835 440.863 134.141 438.055 138.996 435.648 143.938 436.323 144.553 436.397 145.109 436.593 145.697 436.722 144.971 435.056 144.406 433.344 143.912 431.613L141.392 422.825 136.352 405.249 131.656 387.577 129.312 378.741C128.512 375.8 127.777 372.842 127.859 369.658 127.862 369.532 127.961 369.45 128.002 369.337 128.002 369.318 127.983 369.306 127.984 369.287 128.013 368.799 128.354 368.404 128.799 368.283 130.046 367.946 131.298 367.66 132.552 367.397 132.549 366.61 132.761 365.907 133.023 365.224L134.156 362.1 136.428 355.856C137.281 353.811 138.072 351.743 138.993 349.726L140.335 346.684C140.768 345.683 141.321 344.729 142.621 344.067 142.717 343.708 142.944 343.395 143.29 343.273 148.725 341.467 154.294 340.575 159.886 339.858 165.473 339.113 171.07 338.45 176.671 337.833 187.876 336.615 199.112 335.688 210.368 335.033 221.628 334.456 232.908 334.234 244.186 334.309 249.826 334.333 255.466 334.457 261.103 334.704 266.741 334.825 272.373 335.479 277.924 336.753 278.393 336.86 278.685 337.327 278.578 337.795 278.555 337.893 278.484 337.959 278.433 338.04 278.442 338.093 278.496 338.124 278.499 338.18L278.499 338.189C278.562 339.619 277.999 340.48 277.345 341.258L275.396 343.606C274.118 345.191 272.738 346.682 271.405 348.217L267.181 352.617 265.068 354.815C264.505 355.423 263.822 355.923 262.877 356.186 264.212 358.965 264.933 361.876 265.568 364.805L267.702 374.376 271.963 393.518 275.875 412.735 277.831 422.343C278.449 425.361 278.919 428.411 278.722 431.603L291.553 435.679 291.68 435.72C291.928 435.799 292.151 435.923 292.342 436.079 292.18 435.413 291.974 434.763 291.822 434.093 290.283 427.389 289.184 420.524 288.718 413.652 288.2 406.773 288.2 400.027 287.276 393.479 286.401 386.958 284.434 380.539 282.892 373.826 281.429 367.169 280.081 360.508 279.03 353.775 279.021 353.72 279.066 353.678 279.065 353.624 279.053 353.599 279.015 353.592 279.005 353.566 278.087 351.295 277.942 349.008 277.94 346.704 277.959 344.443 277.873 342.022 278.345 339.539 279.156 334.889 280.33 330.47 281.563 326.033 282.934 321.634 284.282 317.283 286.166 312.943 287.363 310.26 289.513 308.129 292.631 307.369 294.185 307.015 295.92 307.321 297.181 308.103 297.344 308.202 297.435 308.352 297.582 308.463L297.673 308.084C298.323 305.054 300.268 300.568 304.565 299.09 306.629 298.369 308.758 298.488 310.587 298.929 311.077 299.035 311.545 299.185 311.991 299.371 312.198 298.923 312.422 298.471 312.696 298.006 313.393 296.916 314.245 296.113 315.144 295.409 316.957 294.051 319.166 293.162 321.547 293.151 324.919 293.137 328.058 294.847 329.747 297.311 330.874 295.986 332.217 295.12 333.623 294.417 335.364 293.587 337.318 293.104 339.389 293.185 341.449 293.255 343.62 294.074 345.206 295.465 346.824 296.836 347.872 298.589 348.555 300.326 349.891 303.825 350.13 307.359 350.157 310.694 350.191 313.426 350.322 316.228 350.452 319.018 350.598 318.591 350.723 318.193 350.781 317.889 351.017 315.514 350.464 312.135 350.376 308.97 350.288 305.755 350.325 302.199 352.123 298.732 353.912 295.124 358.055 293.189 361.467 292.864L361.51 292.86C362.597 292.757 363.581 293.416 363.934 294.399 365.435 298.574 366.711 302.768 367.86 307.054 367.929 307.311 367.978 307.578 368.046 307.835 368.745 307.47 369.478 307.215 370.217 306.977L374.614 305.497 383.409 302.542C384.314 302.271 385.222 302.008 386.126 301.73 384.584 297.695 383.471 293.61 382.262 289.566 380.84 284.838 379.128 280.227 376.962 275.899 374.714 271.632 371.932 267.714 368.403 264.617 364.893 261.498 360.67 259.242 356.151 257.545 347.176 254.032 337.029 252.524 327.346 249.548 322.49 248.167 317.664 246.711 312.855 245.209 308.381 243.838 303.96 242.305 299.736 240.161 294.363 254.711 282.619 266.644 269.101 274.152 254.188 282.388 237.075 285.869 220.293 285.805 203.606 285.762 186.563 283.59 170.937 276.876 163.15 273.555 155.806 269.015 149.526 263.224 144.114 258.174 139.381 252.155 136.855 245.065 125.878 247.126 114.903 249.306 104.073 251.867 98.4851 253.178 92.9095 254.597 87.5599 256.425 82.2011 258.214 77.409 260.774 73.4349 264.57 65.5996 272.302 60.6834 282.956 56.0754 293.382 51.5285 303.893 47.5036 314.812 42.8519 325.444 33.9351 346.907 22.3109 367.082 16.2023 389.12 9.94914 411.262 4.72971 433.783 4.67273 456.659 4.64119 462.36 4.92811 468.055 5.47651 473.722 6.04932 479.534 6.49801 485.196 7.6121 490.711 8.7038 496.197 10.3856 501.583 13.3199 506.029 16.2827 510.488 20.5671 513.503 25.9645 514.384ZM276.921 445.142C278.784 444.913 280.626 444.738 282.271 444.149 283.927 443.605 285.413 442.744 286.539 441.548 287.198 440.883 287.714 440.027 288.122 439.161L271.902 434.292C265.717 432.52 259.793 430.627 253.562 429.365 247.423 428.067 240.949 426.634 235.016 425.93 229.362 425.567 223.746 427.364 218.294 429.496 219.103 431.672 219.351 433.882 219.521 436.096L220.245 443.41C220.776 448.28 221.461 453.127 222.258 457.94 222.948 462.773 223.927 467.539 225.025 472.237 225.564 474.597 226.281 476.875 227.01 479.148 227.456 480.237 227.846 481.346 228.153 482.508 228.379 483.181 228.565 483.884 228.723 484.616 229.733 484.723 230.728 484.824 231.717 484.781 233.002 484.796 234.252 484.61 235.467 484.398 236.677 484.139 237.838 483.746 238.932 483.25 239.979 482.764 241.131 482.047 241.789 481.447 242.329 480.955 243.056 480.799 243.713 480.968L243.818 480.995C245.054 481.322 246.27 481.669 247.472 481.833 248.654 481.971 249.834 482.015 250.791 481.742 251.771 481.508 252.509 481.049 253.028 480.353 253.554 479.723 253.891 478.568 253.915 477.809L253.918 477.729C253.955 476.552 254.94 475.628 256.117 475.665 256.234 475.669 256.36 475.685 256.472 475.707 260.04 476.427 263.617 476.072 265.431 473.756 266.382 472.631 266.988 471.066 267.287 469.367 267.586 467.698 267.614 465.758 267.414 464.145 267.252 462.89 268.138 461.741 269.392 461.579 269.796 461.527 270.21 461.592 270.562 461.734 273.377 462.899 276.301 464.011 279.172 464.902 282.038 465.789 284.836 466.387 286.979 465.71 291.14 464.825 291.14 456.692 285.942 455.362 280.541 452.573 274.71 450.377 268.843 448.294 262.958 446.242 256.968 444.396 251.316 441.468 250.772 441.188 250.56 440.52 250.839 439.977 251.061 439.548 251.529 439.325 251.982 439.389 258.278 440.3 264.256 442.239 270.23 444.294 271.247 444.643 272.263 445.004 273.28 445.363 274.502 445.295 275.75 445.226 276.921 445.142ZM185.559 434.814 201.008 430.866C206.088 429.529 211.2 428.309 216.507 427.833 221.535 423.252 228.449 421.384 235.279 421.688 242.059 422.407 248.114 423.703 254.502 424.946 260.827 426.182 267.184 427.922 273.238 429.861L276.167 430.792C275.056 428.332 274.368 425.781 273.795 423.206L271.651 413.638 267.362 394.502 263.423 375.291 261.456 365.684C260.843 362.78 260.318 359.857 260.387 356.807 255.343 358.16 250.232 358.867 245.106 359.423L228.546 361.233 195.429 364.853 162.275 368.117 145.697 369.746C140.741 370.263 135.771 370.653 130.746 370.499 131.939 372.786 132.688 375.195 133.366 377.624L135.876 386.415 140.889 404 145.557 421.678 147.891 430.518C148.521 432.893 149.039 435.298 149.141 437.818 151.666 438.909 153.914 440.486 155.909 442.41L185.559 434.814ZM140.812 357.576 138.23 363.699 137.01 366.583C139.753 366.159 142.507 365.846 145.265 365.564L161.824 363.764 194.945 360.172 228.103 356.936 244.681 355.318C249.982 354.796 255.299 354.424 260.689 354.772 260.74 353.506 261.31 352.712 261.957 351.987L263.943 349.673 267.92 345.05C269.321 343.577 270.674 342.061 272.13 340.638L273.948 338.81C269.598 339.062 265.287 338.879 260.962 338.829 255.371 338.647 249.776 338.589 244.18 338.629 232.99 338.683 221.797 339.031 210.622 339.732 199.442 340.297 188.265 341.083 177.119 342.186 171.547 342.742 165.978 343.344 160.421 344.028 155.137 344.716 149.842 345.33 144.47 345.401 144.686 346.454 144.487 347.345 144.187 348.196L143.102 351.338C142.405 353.443 141.578 355.498 140.812 357.576ZM55.1984 667.467C55.697 666.237 56.2342 665.034 56.809 663.885 62.7691 652.243 72.3126 643.376 79.5578 633.481 87.1193 623.407 95.0584 613.419 104.33 604.617 113.559 595.859 124.216 588.089 136.591 583.86 139.669 582.797 142.85 582.028 146.064 581.455 149.037 580.939 152.094 580.767 154.942 580.578 156.474 580.004 158.04 579.618 159.616 579.284L167.166 577.622 182.261 574.306 197.423 571.297 205.019 569.855C207.551 569.367 210.108 568.999 212.867 569.454L212.914 569.462C213.411 569.544 213.748 570.014 213.667 570.512 213.623 570.773 213.471 570.991 213.267 571.127 210.973 572.635 208.478 573.32 205.956 573.885L198.396 575.602 190.957 577.227C197.965 576.554 204.986 575.924 212.04 575.455 218.358 575.061 224.674 574.717 231.159 574.999 237.421 575.359 243.872 575.629 250.302 577.23 256.736 578.769 262.789 581.904 267.939 585.895 273.112 589.892 277.553 594.574 281.787 599.373 282.169 599.828 282.518 600.305 282.896 600.763 288.873 598.787 295.103 598.617 301.252 598.908 307.693 599.265 314.114 600.27 320.342 602.037 322.542 602.653 324.708 603.397 326.854 604.198 323.972 602.128 321.052 600.115 318.062 598.224 313.618 595.314 309.001 592.701 304.261 590.359 301.853 589.282 299.469 588.133 296.985 587.268 294.539 586.254 292.071 585.498 289.758 583.763L289.688 583.71C289.29 583.411 289.21 582.847 289.508 582.449 289.67 582.233 289.915 582.11 290.164 582.091 293.024 581.888 295.82 582.385 298.39 583.388 301.029 584.241 303.541 585.374 306.086 586.444 311.081 588.762 315.933 591.361 320.592 594.256 325.179 597.259 329.6 600.49 333.864 603.905 335.993 605.615 338.088 607.367 340.136 609.176 341.513 610.363 342.832 611.619 343.966 613.076 347.459 615.475 350.77 618.135 353.795 621.1 362.796 630.083 371.672 639.009 379.92 648.741 384.005 653.618 387.97 658.644 391.36 664.139 391.869 664.977 392.324 665.855 392.797 666.72L392.869 666.757C392.869 666.757 393.183 667.307 393.643 668.239 393.688 668.328 393.732 668.417 393.776 668.506 394.237 669.46 394.825 670.795 395.442 672.422 395.5 672.583 395.585 672.73 395.642 672.893 395.71 673.075 395.759 673.268 395.823 673.452 397.072 676.967 398.302 681.648 398.663 686.979 399.311 678.997 400.858 671.122 402.403 663.375 404.341 653.962 406.674 644.592 408.844 635.329 410.929 626.156 412.011 616.768 411.796 607.403 411.571 588.58 405.505 570.349 397.081 553.371 392.926 544.814 388.261 536.457 384.134 527.683 380.713 520.346 377.611 512.305 377.237 503.953 373.448 508.441 369.168 512.607 364.057 515.837 358.066 519.686 350.562 521.901 343.23 520.92 339.28 520.435 335.894 518.65 332.923 516.593 329.952 514.491 327.319 511.986 325.082 509.161 322.801 506.418 321.004 503.044 319.553 500.11L314.868 491.066C311.752 485.024 308.664 478.958 305.704 472.81 302.762 466.645 299.856 460.477 297.513 453.89 295.822 448.757 294.295 443.604 292.946 438.384 292.355 440.896 291.195 442.781 289.574 444.487 287.886 446.221 285.729 447.399 283.539 448.078 282.911 448.294 282.279 448.443 281.644 448.559 283.77 449.442 285.886 450.37 287.973 451.418L290.183 452.605C291.169 453.201 291.942 453.989 292.542 454.827 293.736 456.517 294.337 458.409 294.495 460.35 294.639 462.282 294.348 464.344 293.286 466.204 292.288 467.994 290.508 469.407 288.629 470.036 289.868 472.232 290.385 474.572 290.732 476.934 291.144 479.492 291.461 482.061 291.708 484.64 292.193 489.798 292.361 494.996 292.16 500.203 291.842 505.404 291.11 510.607 289.821 515.696 289.081 518.221 288.392 520.755 287.349 523.188 286.509 525.679 285.029 527.972 283.053 529.837 282.692 530.178 282.122 530.161 281.782 529.8 281.606 529.613 281.525 529.371 281.538 529.134L281.546 529.009C281.705 526.258 282.758 524.103 283.476 521.732 284.367 519.445 284.921 517.038 285.532 514.656 286.512 509.824 287.244 504.922 287.458 499.953 287.738 494.993 287.708 489.994 287.347 485.009 287.166 482.516 286.915 480.025 286.573 477.549 286.251 475.245 285.934 472.942 286.174 470.531 283.084 470.884 280.219 470.135 277.77 469.359 275.794 468.714 273.894 467.991 272.008 467.236 271.958 468.21 271.868 469.178 271.689 470.181 271.267 472.382 270.436 474.686 268.791 476.61 267.17 478.552 264.711 479.797 262.369 480.148 260.771 480.41 259.24 480.344 257.746 480.175 257.453 481.135 257.037 482.042 256.386 482.916 255.251 484.434 253.471 485.437 251.78 485.802 250.06 486.23 248.438 486.121 246.903 485.925 245.719 485.746 244.602 485.448 243.505 485.113 242.487 485.812 241.488 486.352 240.386 486.769 238.942 487.312 237.433 487.638 235.922 487.751 233.52 487.92 231.156 487.553 228.974 486.81 228.866 487.1 228.658 487.345 228.342 487.395 216.921 489.137 205.503 490.89 194.14 492.795 188.465 493.765 182.788 494.755 177.191 495.991 171.602 497.187 165.971 498.457 160.752 500.364 139.83 509.945 117.264 517.039 94.4825 521.565 83.0801 523.81 71.3084 525.36 59.5052 524.735 58.8485 524.715 58.1958 524.658 57.5405 524.621 57.7369 530.947 56.0347 537.072 54.2257 542.885 52.1614 549.408 49.7999 555.767 47.6012 562.137 45.4056 568.504 43.327 574.886 41.809 581.34 40.3144 587.771 39.3366 594.362 40.055 600.658 40.8007 606.864 43.15 613.398 45.1645 619.775 47.2777 626.202 49.3482 632.742 50.9384 639.41 53.0404 648.629 54.7803 658.027 55.1984 667.467ZM60.5191 668.434C60.5191 668.333 60.5175 668.231 60.5186 668.129 60.5175 668.231 60.5191 668.332 60.5191 668.434ZM60.6758 664.77C60.6742 664.773 60.6722 664.776 60.6712 664.779 60.6651 664.847 60.6671 664.916 60.6615 664.984 60.6676 664.913 60.6691 664.841 60.6758 664.77ZM61.244 677.595C61.2923 677.939 61.3305 678.29 61.3814 678.632 61.4007 678.75 61.4393 678.863 61.4597 678.981 61.4404 678.868 61.4088 678.759 61.3905 678.646 61.3376 678.299 61.2944 677.945 61.244 677.595ZM60.9082 674.969C60.9225 675.099 60.9342 675.228 60.9489 675.357 60.9337 675.229 60.9225 675.098 60.9082 674.969ZM60.6162 671.612C60.6213 671.697 60.6264 671.781 60.6315 671.866 60.6259 671.781 60.6213 671.697 60.6162 671.612ZM60.1665 665.64C60.0948 665.771 60.0312 665.907 59.961 666.039 60.0333 665.904 60.0989 665.764 60.1726 665.629 60.1706 665.633 60.1681 665.636 60.1665 665.64ZM56.2199 679.597C56.1111 677.247 56.4936 674.864 57.2099 672.522 56.4916 674.864 56.108 677.246 56.2199 679.597ZM56.2433 680.366C56.2454 680.391 56.253 680.415 56.2555 680.44 56.2525 680.415 56.2454 680.391 56.2433 680.366ZM57.3594 684.84C57.3055 684.711 57.2414 684.587 57.1916 684.456 57.2414 684.587 57.306 684.711 57.3594 684.84ZM58.3708 686.834C58.2594 686.65 58.1449 686.466 58.0421 686.278 58.1449 686.467 58.2599 686.649 58.3708 686.834ZM61.0273 690.258C60.7872 690.012 60.5623 689.756 60.3364 689.5 60.5618 689.757 60.7882 690.011 61.0273 690.258ZM59.5988 688.619C59.4309 688.405 59.2681 688.187 59.1104 687.967 59.2681 688.188 59.4309 688.404 59.5988 688.619ZM65.7431 694.109C65.738 694.098 65.7339 694.086 65.7299 694.074 64.2444 693.105 62.8515 692.013 61.6016 690.818 62.8571 692.027 64.252 693.131 65.7431 694.109ZM63.4355 687.341C63.2819 686.816 63.1232 686.292 62.9808 685.764 63.1252 686.293 63.2789 686.816 63.4355 687.341ZM290.17 1133.75C290.148 1134.57 290.082 1135.42 289.932 1136.23 289.42 1139.66 287.276 1142.85 284.645 1144.93 279.23 1149.1 272.845 1150.11 266.856 1150.72 260.789 1151.23 254.767 1151.01 248.812 1150.42 242.853 1149.81 236.966 1148.8 231.126 1147.38 225.414 1145.93 219.018 1144.06 214.393 1138.93 212.204 1136.43 210.757 1132.91 211.094 1129.34 209.303 1132.08 207.545 1134.83 205.892 1137.61 200.68 1146.41 196.572 1156.36 198.094 1166.14 198.765 1171 200.995 1175.47 203.927 1179.6 206.83 1183.71 210.368 1187.44 214.468 1190.1 216.503 1191.45 218.704 1192.48 220.965 1193.01 223.129 1193.54 225.708 1193.61 228.276 1193.6 233.393 1193.58 238.555 1193.07 243.657 1192.26 253.86 1190.64 263.949 1187.8 273.152 1183.3 277.731 1181.03 282.108 1178.34 285.808 1174.96 289.272 1171.96 290.846 1167.12 291.553 1162.19 292.728 1152.95 291.578 1143.29 290.17 1133.75ZM287.037 1041.04C284.164 1041.14 281.3 1041.17 278.442 1041.13 270.824 1040.93 263.249 1040.38 255.701 1039.67 248.17 1038.81 240.669 1037.77 233.191 1036.63L232.922 1036.58C232.69 1047.82 232.088 1059.01 231.528 1070.23 230.868 1082.21 228.376 1093.97 224.778 1105.31 222.974 1110.99 220.877 1116.57 218.531 1122.03 217.496 1124.76 215.704 1127.62 215.567 1129.58 215.326 1131.83 216.22 1134.11 217.831 1135.95 221.209 1139.71 226.682 1141.55 232.229 1142.88 237.817 1144.22 243.556 1145.14 249.291 1145.74 255.026 1146.35 260.806 1146.58 266.463 1146.13 272.034 1145.65 277.838 1144.53 281.828 1141.4 283.764 1139.84 285.16 1137.84 285.543 1135.41 285.762 1134.18 285.766 1133.01 285.689 1131.58L285.394 1127.18 284.33 1109.54C283.837 1097.77 283.047 1085.98 284.269 1073.98 285.728 1062.91 286.59 1052.12 287.037 1041.04ZM305.485 840.347C305.705 831.677 305.922 823.019 306.69 814.351 298.828 806.67 290.7 799.232 282.376 791.975 273.331 783.906 264.248 775.781 255.647 767.1 246.978 758.484 239.113 749.035 231.891 739.168L226.594 731.674C224.95 729.096 223.219 726.581 221.655 723.945 218.43 718.746 215.427 713.379 212.807 707.8 211.236 704.519 209.917 701.119 208.724 697.689 201.824 702.953 197.165 711.066 194.884 719.495 192.188 729.204 192.181 739.536 193.313 749.71 195.934 770.2 200.29 790.681 204.002 811.184 207.847 831.688 211.312 852.278 214.506 872.91 216.087 883.229 217.577 893.563 218.977 903.909 219.62 908.638 220.199 913.378 220.67 918.129L221.736 904.373C222.149 898.346 222.67 892.327 223.942 886.356 224.067 885.76 224.652 885.378 225.248 885.503 225.734 885.606 226.078 886.018 226.121 886.488 226.647 892.586 226.355 898.63 225.93 904.664L224.7 922.772C223.842 934.841 222.931 946.907 221.886 958.966 220.738 971.015 219.52 983.06 218.096 995.089 217.417 1001.11 216.633 1007.11 215.831 1013.12 215.087 1018.71 214.085 1024.28 212.395 1029.72 215.891 1029.63 219.287 1030.1 222.67 1030.65L233.827 1032.3C241.273 1033.33 248.733 1034.22 256.196 1034.99 263.65 1035.82 271.115 1036.49 278.571 1036.82 285.852 1037.25 292.886 1036.51 300.061 1036.45 299.152 1027.33 299.147 1018.19 299.291 1009.07L300.028 980.915 302.119 924.655 304.566 868.446 305.485 840.347ZM366.289 882.383C367.139 880.416 368.23 878.558 369.642 876.967 371.646 874.181 374.216 871.933 376.641 869.57 381.727 865.079 387.434 861.453 393.318 858.253 399.268 855.153 405.517 852.771 411.823 850.665 414.977 849.605 418.175 848.694 421.395 847.867 424.5 847.044 427.651 846.385 430.992 846.621 430.381 844.729 429.672 842.856 428.857 841.018 426.268 835.486 422.779 830.174 419.783 824.655L401.169 791.864C388.687 770.051 375.815 748.47 362.253 727.338 348.784 706.149 334.263 685.645 320.238 664.702 313.239 654.224 306.43 643.612 299.756 632.92 293.131 622.316 286.211 611.874 278.253 602.386 270.229 593.135 260.959 584.345 249.182 581.658 243.387 580.192 237.183 579.886 230.911 579.52 224.826 579.242 218.557 579.556 212.329 579.936 199.844 580.741 187.34 582.044 174.816 583.245 168.55 583.844 162.282 584.453 155.961 584.893 152.727 585.108 149.77 585.244 146.782 585.752 143.808 586.279 140.856 586.982 137.985 587.967 126.444 591.876 116.226 599.229 107.262 607.708 98.2521 616.227 90.4433 625.99 82.897 636.002 81.0503 638.462 79.0592 641.13 76.947 643.488L70.7946 650.591C68.7364 653.045 66.7442 655.55 64.8971 658.132 64.5791 664.804 64.3965 671.349 65.624 677.921 66.8867 685.01 69.2756 691.915 72.5812 698.311 79.2434 711.032 89.5154 722.119 103.431 726.542 117.114 731.759 131.659 734.369 146.342 735.435 160.289 736.424 174.322 736.346 188.42 736.509 188.506 730.405 189.204 724.293 191.041 718.37 193.712 709.116 199.373 700.259 207.884 695.245 207.368 693.672 206.87 692.097 206.395 690.526 204.773 684.657 203.12 678.966 200.871 673.382 200.693 672.94 200.907 672.438 201.35 672.26 201.746 672.1 202.193 672.258 202.409 672.611 205.627 677.872 207.794 683.736 209.823 689.419 210.31 690.849 210.862 692.236 211.38 693.644 211.766 693.672 212.131 693.828 212.3 694.206 212.489 694.631 212.333 695.074 212.021 695.382 213.396 698.996 214.851 702.565 216.531 706.041 219.092 711.426 222.045 716.645 225.237 721.731 226.779 724.304 228.502 726.777 230.13 729.302L235.371 736.631C242.516 746.278 250.262 755.487 258.846 763.926 267.363 772.427 276.408 780.433 285.499 788.456 303.718 804.454 321.418 821.466 336.742 840.477 344.324 850.034 351.608 859.83 358.264 870.036L363.191 877.73C364.263 879.432 365.22 880.992 366.289 882.383ZM372.845 879.569C372.109 880.368 371.443 881.203 370.781 882.043 371.449 881.208 372.116 880.38 372.853 879.584 372.935 879.472 373.036 879.372 373.122 879.262 373.037 879.371 372.927 879.458 372.845 879.569ZM376.857 887.491C373.863 887.704 370.935 886.919 368.7 884.933 370.92 886.92 373.852 887.706 376.857 887.491ZM378.629 887.245C378.099 887.351 377.567 887.44 377.036 887.485 377.568 887.44 378.098 887.351 378.629 887.245ZM380.477 886.752C379.974 886.921 379.468 887.072 378.957 887.186 379.47 887.072 379.973 886.92 380.477 886.752ZM382.276 886.022C381.805 886.248 381.329 886.456 380.842 886.632 381.33 886.455 381.805 886.248 382.276 886.022ZM382.524 885.902C380.596 882.438 378.55 879.026 376.443 875.653 376.181 875.901 375.94 876.164 375.683 876.417 375.937 876.169 376.178 875.908 376.436 875.667 378.559 879.038 380.599 882.41 382.513 885.907 382.518 885.906 382.521 885.904 382.524 885.902ZM399.446 916.535C403.439 923.486 409.052 929.354 414.629 935.714 420.353 942.234 423.829 950.549 425.917 958.669 428.133 966.834 429.216 975.221 430.678 983.254 432.24 991.216 434.003 999.479 437.986 1005.99 438.987 1007.58 440.195 1008.94 441.527 1009.83 442.107 1010.21 443.126 1010.6 444.004 1010.99 444.912 1011.36 445.78 1011.83 446.735 1012.08 450.425 1013.44 454.362 1014.07 458.299 1014.41 466.212 1014.95 474.3 1013.74 481.893 1011.19 489.345 1008.58 497.192 1005.13 501.12 998.903 505.12 992.631 503.891 984.284 501.015 976.954 499.587 973.219 497.754 969.606 495.827 965.945L490.079 954.922C486.212 947.609 482.22 940.365 478.114 933.188 462.39 904.741 442.185 879.039 425.224 851.166 424.309 851.429 423.392 851.681 422.474 851.93 419.359 852.788 416.261 853.729 413.219 854.813 407.132 856.958 401.133 859.389 395.486 862.429 389.804 865.378 384.314 868.722 379.473 872.832 378.951 873.324 378.423 873.816 377.893 874.304 382.666 880.302 386.927 886.672 390.535 893.536 392.423 897.267 394.096 901.401 395.13 905.462 396.209 909.479 397.433 913.093 399.446 916.535ZM413.834 941.714C413.833 941.724 413.832 941.733 413.832 941.742 415.667 944.376 417.197 947.203 418.481 950.162 417.216 947.18 415.679 944.355 413.834 941.714ZM414.043 949.557C414.166 950.3 414.272 951.044 414.438 951.782 414.854 953.655 415.429 955.496 416.076 957.321 415.431 955.491 414.86 953.644 414.444 951.763 414.273 951.028 414.167 950.292 414.043 949.557ZM418.277 962.743C418.69 963.642 419.109 964.54 419.555 965.43 421.184 968.869 422.933 972.285 424.669 975.71 422.931 972.277 421.192 968.871 419.569 965.432 419.116 964.542 418.693 963.644 418.277 962.743ZM420.248 954.761C419.817 953.458 419.306 952.198 418.793 950.938 419.316 952.193 419.809 953.464 420.248 954.761ZM421.736 959.765C421.768 959.876 421.79 959.991 421.822 960.102 421.792 959.996 421.774 959.886 421.745 959.781 421.67 959.49 421.567 959.214 421.489 958.925 421.566 959.208 421.663 959.481 421.736 959.765ZM425.068 976.5C424.769 974.62 424.461 972.749 424.14 970.889 424.458 972.748 424.764 974.615 425.066 976.496 425.067 976.497 425.067 976.499 425.068 976.5ZM423.329 966.536C423.242 966.102 423.153 965.668 423.061 965.235 423.153 965.668 423.242 966.102 423.329 966.536ZM542.442 1036.21C540.762 1029.79 537.749 1023.62 534.417 1017.68 531.033 1011.87 526.89 1006.27 522.81 1000.72 517.391 993.388 511.887 986.098 506.449 978.749 507.389 981.737 508.072 984.85 508.24 988.095 508.501 992.569 507.541 997.364 505.064 1001.33 502.611 1005.31 498.938 1008.29 495.173 1010.43 491.398 1012.62 487.442 1014.31 483.373 1015.66 475.245 1018.35 466.602 1019.62 457.96 1019.01 453.657 1018.62 449.328 1017.91 445.223 1016.38 444.169 1016.09 443.193 1015.58 442.184 1015.16 441.171 1014.7 440.231 1014.38 439.059 1013.64 436.932 1012.21 435.397 1010.34 434.188 1008.43 430.845 1002.44 428.885 996.207 427.489 989.929 426.992 989.173 426.522 988.402 426.083 987.615L422.386 980.979C419.913 976.553 417.587 972.056 415.312 967.476 413.099 962.827 411.195 957.893 410.157 952.684 409.634 950.082 409.304 947.402 409.416 944.653 409.527 942.487 409.88 940.211 411.232 938.243 409.857 936.661 408.444 935.065 407.024 933.445 406.087 939.052 405.253 944.688 404.738 950.306 404.132 957.068 403.824 964.019 405.228 970.326 406.596 976.348 411.641 981.481 415.832 986.946 420.198 992.358 424.522 997.97 428.124 1004.11 429.909 1007.19 431.578 1010.36 432.905 1013.7 434.253 1017.02 435.433 1020.02 437.018 1023.05 440.09 1029.05 443.943 1034.66 448.501 1039.6 457.61 1049.52 469.674 1056.48 482.724 1059.84 495.768 1063.36 509.662 1063.42 523.133 1061.69 529.695 1060.77 536.397 1058.81 540.289 1054.14 544.23 1049.5 544.112 1042.52 542.442 1036.21Z" transform="matrix(1 0 0 1.00109 1503.47 222.48)"/></g></svg>