<svg width="540" height="665" xmlns="http://www.w3.org/2000/svg" xmlns:xlink="http://www.w3.org/1999/xlink" xml:space="preserve" overflow="hidden"><defs><clipPath id="clip0"><rect x="158" y="156" width="540" height="665"/></clipPath></defs><g clip-path="url(#clip0)" transform="translate(-158 -156)"><path d="M165.919 661.222C152.859 661.222 139.621 660.486 126.821 659.772 122.601 659.537 118.406 659.305 114.215 659.096 103.024 658.864 91.4545 657.729 79.6669 655.716 74.6567 654.825 68.6979 653.671 62.739 651.902L61.6569 651.567C59.2572 650.832 57.0051 650.142 54.8759 648.419 54.1802 647.863 53.07 646.549 53.1262 645.002 53.1403 644.41 53.2562 643.897 53.474 643.391L54.2259 641.655 53.7305 639.83C53.6673 639.591 53.6111 639.352 53.5689 639.115 53.3511 638.02 53.4249 636.847 53.7551 635.886 54.2435 634.384 55.2237 633.175 56.7767 632.12L65.9363 625.885 55.3819 622.516 53.6111 621.932C52.7643 621.649 51.9316 621.372 51.0919 621.114 46.6931 619.94 43.0918 617.505 40.4215 615.51 37.4773 613.323 34.6524 610.677 31.7714 607.411 29.175 604.53 26.6558 601.428 24.2491 598.151 23.7994 597.501 23.311 596.83 22.8226 596.159 21.094 593.789 19.3162 591.351 18.5046 588.509L18.2832 587.738 17.8511 587.065C13.9511 581.02 10.7047 574.504 8.20662 567.7 4.8091 558.314 2.92237 549.223 2.60616 540.703 2.21617 531.262 3.75858 521.878 7.07177 513.54 10.5817 504.762 15.7184 497.027 22.3342 490.564 23.708 489.248 25.2258 487.955 26.8069 486.761L30.7349 483.79 28.1315 479.607C27.7239 478.949 27.3409 478.165 26.9966 477.276 25.9109 474.46 25.6158 471.574 25.4015 468.861 25.2891 466.386 25.3488 463.711 25.6018 460.355 25.7107 458.927 25.8547 457.504 26.0199 456.085 26.0796 455.565 26.1499 455.02 26.3009 454.451L26.9439 452.002 25.4683 449.941C25.0642 449.374 24.7129 448.84 24.3931 448.299 20.964 442.605 19.4146 435.297 19.7694 426.538 19.8818 422.565 20.4018 418.631 20.9078 414.828 21.3751 411.29 21.8599 407.631 21.997 404.059 22.1761 396.375 21.5051 388.702 20.7989 381.494 18.4132 360.473 14.4254 339.322 10.5712 318.868L10.4939 318.447C8.85661 309.744 7.21582 301.032 5.68747 292.301 4.43316 284.788 3.22805 277.387 2.3813 269.915L1.80158 258.612C1.9105 257.307 1.98779 256.188 2.06509 255.067 2.23374 252.504 2.40941 249.86 2.82048 247.32L4.29262 240.741C4.41208 240.163 4.521 239.627 4.7037 239.113L6.47097 234.55C6.88907 233.454 7.30015 232.374 7.76744 231.322L10.7187 226.166C15.0227 219.499 20.2543 213.969 26.1253 209.97 39.0759 200.582 54.4262 196.071 67.7527 192.884 71.4173 192.045 75.0924 191.245 78.771 190.52L89.8384 188.027C95.084 186.922 101.134 185.659 107.188 184.515L110.459 183.895 113.027 174.917C115.121 167.614 117.286 160.058 119.204 152.532 121.414 143.988 123.22 135.993 124.727 128.108L125.472 124.177C126.782 117.254 128.096 110.304 129.547 103.514 132.699 88.9246 136.87 71.807 143.911 55.5449 147.47 47.3955 151.654 40.084 156.345 33.83 161.232 27.2967 167.11 21.2624 173.821 15.8903 188.707 4.25018 207.086 1.79954 219.872 1.79954L220.971 1.80481C228.964 1.87157 237.295 2.95899 245.713 5.03896 252.905 6.99771 260.561 9.48524 266.983 14.1687L267.37 14.4515 267.802 14.6606C275.532 18.4235 282.819 24.3542 289.463 32.2876 296.124 40.2631 301.296 49.551 304.838 59.8929 308.14 69.4055 310.023 79.888 310.434 91.0766 310.638 96.15 310.526 101.492 310.101 106.968 309.609 113.271 309.345 118.162 309.24 122.822 308.952 134.326 309.047 145.918 309.138 157.13L309.142 157.683C309.215 167.073 309.289 176.782 309.138 186.326 309.061 191.96 308.906 197.387 308.678 202.469L308.558 205.088 310.543 206.799C311.116 207.291 311.685 207.834 312.247 208.389 313.526 209.672 314.696 211.089 315.691 212.572 316.109 213.248 316.558 214.044 316.938 214.817L320.883 222.891 357.416 172.471 429.948 192.025C436.849 193.956 444.03 195.964 450.969 198.39L453.229 199.179 455.33 198.037C457.49 196.862 459.816 196.11 462.276 195.316 463.393 194.956 464.401 194.627 465.399 194.269L477.482 190.253C483.002 188.361 488.648 186.613 494.108 184.923 496.873 184.066 499.339 183.301 501.806 182.521L507.543 187.507C509.201 188.976 510.937 190.652 512.276 192.816L512.701 193.731 513.379 194.353C504.936 205.956 496.251 217.549 486.845 229.886 476.112 243.952 467.662 254.67 459.44 264.634L431.013 298.573C427.629 302.568 424.264 306.592 420.905 310.619L420.592 310.993C414.717 318.022 408.643 325.293 402.508 332.293 398.766 332.163 394.663 332.003 390.527 331.731L386.571 331.469 384.277 337.395C384.108 337.883 384.01 338.131 383.894 338.373L382.534 341.191 384.301 343.772C385.015 344.81 385.577 346.045 386.016 347.545 386.648 349.773 386.979 352.034 386.982 354.222 387.003 356.127 386.68 358.045 386.395 359.737L384.498 371.604 387.724 373.459C394.389 377.29 400.945 382.286 407.209 388.305 414.932 395.753 420.673 403.156 424.759 410.928 428.792 419.202 431.856 428.137 434.049 438.094 434.424 439.916 434.758 441.788 435.036 443.633L436.083 450.593 442.53 447.777C450.333 444.373 457.828 441.822 465.438 439.981 471.326 438.547 476.516 437.806 481.308 437.715L482.573 437.697C487.495 437.697 492.505 438.591 497.066 440.283 501.816 442.05 506.45 444.239 511.64 447.166 516.453 449.973 520.68 453.353 524.134 457.179 531.01 464.596 535.384 474.94 536.494 486.36 536.989 491.172 537.01 496.275 536.564 502.448 536.202 508.107 535.085 513.38 533.237 518.168 529.811 527.259 523.125 535.578 513.34 542.939 510.698 544.973 507.937 546.89 505.27 548.743 503.573 549.922 501.893 551.089 500.249 552.276L497.8 554.145C494.41 556.74 490.9 559.423 487.372 561.885 479.232 567.653 471.741 572.475 464.44 576.649L463.899 576.956 463.446 577.38C461.615 579.075 459.595 580.781 457.35 582.538L454.212 584.992 455.632 588.711C455.871 589.338 456.092 590 456.296 590.67 456.918 592.72 457.304 594.738 457.448 596.693 457.522 598.789 457.287 600.809 456.724 602.664 456.457 603.473 456.12 604.434 455.632 605.329L455.467 605.66 454.353 607.587 454.866 609.855C455.045 610.522 455.119 611.211 455.094 611.901 454.957 614.12 453.618 616.358 451.69 617.475L448.598 619.267 449.03 622.758C449.118 623.642 448.826 624.668 448.271 625.435 446.999 627.069 445.2 627.81 442.751 628.43 440.032 629.021 437.158 629.289 433.318 629.289 432.13 629.289 430.943 629.263 429.762 629.23 426.249 629.11 422.682 628.812 419.236 628.522L416.759 628.315C413.126 628.065 409.384 627.977 405.769 627.891L403.703 627.84C396.325 627.633 388.721 627.533 380.472 627.533L377.605 627.536 364.542 627.659C363.319 627.686 362.121 627.705 360.919 627.705 358.516 627.705 356.426 627.626 354.528 627.461L351.134 627.167 349.645 629.704 349.448 629.81 349.044 630.14C348.317 630.732 347.642 630.944 346.648 631.129L342.99 631.826C341.356 632.156 339.73 632.427 338.106 632.699L335.717 633.103 324.703 634.625C324.204 634.7 323.75 634.763 323.283 634.763 322.83 634.763 322.443 634.7 322.064 634.56L321.874 634.386 321.671 634.252 319.756 631.466 316.225 632.221C307.132 634.168 297.927 635.712 289.027 637.205L281.03 638.547C271.098 640.204 260.821 641.917 250.864 644.476 239.241 647.294 227.777 651.164 217.665 654.579 212.367 656.32 206.633 658.052 200.892 658.852 195.126 659.823 189.413 660.287 183.57 660.714 178.016 661.055 172.218 661.222 165.919 661.222Z" fill="#FFFFFF" transform="matrix(1.00204 0 0 1 158 156.592)"/><path d="M535.664 486.481C534.641 475.189 530.369 464.935 523.655 457.634 516.097 449.036 505.409 444.104 496.949 440.768 492.476 439 487.449 438.104 481.999 438.104 477.014 438.104 471.614 438.826 465.521 440.307 458.111 441.985 450.74 444.344 443.611 446.626 441.457 447.317 436.036 449.024 436.036 449.024L436.124 450.168C436.57 455.993 436.349 461.576 435.453 466.776 433.939 476.317 429.923 485.376 423.838 492.983 417.801 500.574 410.04 506.74 401.394 510.819 393.46 514.596 384.09 516.946 373.546 517.807 370.352 518.067 366.955 518.194 363.16 518.194 358.371 518.194 353.516 517.99 348.818 517.795L347.16 517.735C346.341 517.788 345.519 517.814 344.693 517.814 342.817 517.814 340.944 517.672 339.128 517.389L338.144 517.238 338.12 517.28 335.825 516.667C334.817 516.398 333.756 516.089 332.625 515.597 330.84 515.065 329.209 514.125 327.481 513.133 326.722 512.695 325.96 512.256 325.387 511.982L324.094 511.01C322.298 509.668 320.44 508.28 318.848 506.58 317.299 505.208 316.013 503.592 314.657 501.882L313.452 500.396 312.426 498.843C311.189 496.985 310.022 495.23 309.039 493.243 308.726 492.689 308.448 492.12 308.167 491.544L307.131 489.459 305.841 490.112C300.252 492.944 294.605 495.086 289.82 496.804L272.095 503.096C266.171 505.141 260.244 507.153 254.204 509.071 248.895 510.938 242.676 512.147 235.744 512.662 232.965 512.827 230.067 512.911 227.129 512.911 218.722 512.911 209.52 512.24 198.154 510.8 191.383 509.983 184.659 508.857 179.55 507.966 173.106 506.87 167.991 505.673 163.455 504.203L162.945 504.038 162.45 504.247C156.614 506.715 150.838 508.303 145.287 508.964L140.888 509.486 170.426 525.925 201.013 543.445 200.803 543.487 205.03 545.708C207.153 546.943 209.358 548.332 211.539 549.828 209.049 548.704 206.725 547.472 204.689 546.336L193.07 539.859 169.842 526.953 135.231 507.2C132.919 505.875 130.453 504.43 128.088 502.831L127.874 502.687 127.625 502.626C126.831 502.432 126.068 502.183 125.309 501.935 124.673 501.728 124.037 501.521 123.514 501.384 122.446 500.979 121.307 500.663 120.046 500.419L119.041 500.194C118.247 500.012 117.45 499.829 116.712 499.759 114.284 499.384 111.74 499.202 108.93 499.202 107.022 499.202 105.019 499.286 102.837 499.458 99.7559 499.651 96.6781 499.992 93.5547 500.337 92.0263 500.505 90.4909 500.676 88.9239 500.83 86.7175 501.067 84.5813 501.189 82.5786 501.189L81.9075 501.185C80.3581 501.115 78.51 500.906 77.0028 500.024 78.4784 500.207 79.8873 500.298 81.3594 500.393L81.9427 500.426C84.0753 500.393 86.4013 500.219 88.8501 499.913 90.2696 499.745 91.6996 499.56 93.1401 499.374 96.2881 498.966 99.5451 498.546 102.763 498.302 104.32 498.207 105.883 498.153 107.457 498.153 110.855 498.153 113.915 498.406 116.898 498.942 117.759 499.042 118.602 499.263 119.442 499.479L120.584 499.781 122.066 497.417C120.008 495.261 117.306 493.343 113.557 491.379 109.847 489.455 105.641 487.899 100.701 486.622 98.3013 485.996 95.7541 485.566 93.2912 485.15 91.2463 484.802 89.1769 484.452 87.1075 483.981 82.7473 483.054 78.6084 481.97 73.6298 480.645 72.4212 480.343 71.2161 480.015 70.011 479.688 66.7891 478.811 63.4619 477.907 60.2435 477.553 58.8733 477.395 57.4503 477.316 56.0098 477.316 53.0304 477.316 49.8824 477.657 46.6465 478.332 37.9366 480.176 29.7186 484.621 22.8884 491.186 16.4026 497.417 11.15 505.227 7.69272 513.777 4.34439 522.087 2.7528 531.397 3.0936 540.696 3.36062 549.149 5.17708 558.205 8.4973 567.61 11.0938 574.938 14.3472 581.836 18.0188 589.45L18.1277 589.675 18.3069 589.851C19.8563 591.379 21.1036 593.106 22.4211 594.933 23.1414 595.932 23.8617 596.929 24.6206 597.875 27.3435 601.373 29.8591 604.326 32.2975 606.898 35.4104 610.22 38.1333 612.781 40.8633 614.949 44.5173 617.89 47.8375 619.754 50.8626 620.597L51.228 620.736 51.2877 620.736C52.0958 621.041 52.9074 621.326 53.7226 621.611 56.2312 622.489 58.5992 623.316 60.7741 624.717L62.8611 626.057 62.9911 623.582C63.1176 621.189 63.8484 618.759 65.1167 616.535 65.6437 615.576 66.3043 614.67 67.144 613.762L67.9872 612.846 68.8058 612.163C69.3961 611.673 69.9864 611.246 70.6223 610.865 72.7304 609.646 75.2214 608.883 78.2184 608.534 79.5465 608.393 80.8746 608.358 82.4416 608.33 83.7486 608.33 84.8132 608.115 85.9726 607.857 87.9507 607.416 89.9744 606.831 92.0298 606.236L93.523 605.805C95.6838 605.089 98.1222 604.727 100.768 604.727 103.322 604.727 106.136 605.066 109.151 605.742 114.418 606.815 119.495 608.602 124.399 610.331 129.185 612.015 134.132 613.758 139.086 614.763 150.539 617.412 160.152 619.239 169.832 619.548 170.475 619.571 171.118 619.582 171.757 619.582 176.546 619.582 181.036 618.932 185.154 617.63 188.011 616.604 190.21 615.562 192.04 614.373 194.015 613.163 196.471 611.659 198.997 610.575 201.597 609.422 204.162 608.713 206.663 608.456 207.679 608.321 208.694 608.288 209.71 608.288L210.781 608.288 210.82 608.288 214.488 608.288 214.516 608.288C219.344 608.1 224.283 605.972 229.23 603.843 233.896 601.719 238.896 599.186 244.514 596.094L245.259 595.683 245.259 594.833 245.238 594.209 245.129 594.095C244.542 590.618 244.612 587.209 244.749 583.73L245.15 572.663 245.16 572.023C245.231 568.614 245.305 565.09 244.883 561.662 244.324 557.177 243.302 553.94 241.7 551.521 239.999 548.736 237.301 546.728 233.246 545.217 229.926 543.865 226.63 542.595 222.822 541.934 220.524 541.502 218.163 541.284 215.809 541.284 214.502 541.284 213.199 541.351 211.895 541.486 209.569 541.737 207.257 542.199 204.787 542.693L204.375 542.775C206.494 541.767 208.939 541.089 211.825 540.747 213.325 540.566 214.85 540.473 216.357 540.473 218.56 540.473 220.781 540.671 222.984 541.066 226.543 541.607 230.197 542.92 233.668 544.276 236.029 545.096 240.336 547.037 242.645 550.858 244.83 554.237 245.505 558.021 245.912 561.597 246.236 564.624 246.186 567.593 246.085 570.351L246.035 571.695 247.37 571.835C247.866 571.886 248.333 572.011 248.923 572.255L258.094 575.693 259.348 576.204C260.922 576.846 262.503 577.489 264.098 578.23L267.141 579.584C267.763 579.834 268.23 580.133 268.602 580.529L269.4 581.376 275.387 577.754 283.334 573.06C283.334 573.06 281.535 570.843 281.152 570.344 283.099 571.827 284.757 573.559 286.286 575.259 288.443 577.622 290.642 580.169 292.821 582.829 296.988 587.917 300.951 593.345 304.594 598.952 308.016 604.328 311.231 610.216 314.14 616.437L316.196 620.971 318.047 625.727C319.066 628.119 319.769 630.881 320.134 633.932L320.408 636.206 322.337 634.972C323.026 634.535 323.827 634.366 324.621 634.243L335.593 632.306 337.403 632.035C339.23 631.759 341.06 631.483 342.901 631.267L346.608 630.798C346.984 630.751 347.357 630.716 347.736 630.716 348.323 630.716 348.825 630.805 349.317 630.999L350.8 631.585 351.228 630.048C352.31 626.187 351.639 622.146 350.782 617.974 349.893 614.027 348.635 609.939 347.047 605.83 344.212 598.436 340.621 590.889 336.057 582.752 334.019 579.166 331.816 575.375 329.304 571.885 326.694 568.366 324.038 565.002 321.406 561.885 318.673 558.646 315.781 555.461 312.809 552.417 311.365 550.934 309.836 549.499 308.325 548.079 307.379 547.191 306.489 546.311 305.584 545.43 306.015 545.653 306.446 545.882 306.79 546.091L307.515 546.528 308.607 547.415C309.759 548.351 310.827 549.386 311.892 550.419 312.401 550.911 312.911 551.403 313.402 551.861 316.276 554.67 319.157 557.727 322.228 561.227 327.688 567.228 332.618 574.307 336.89 582.288 341.394 590.437 344.953 598.048 347.771 605.537 349.166 609.415 350.561 613.598 351.302 617.869 351.555 619.464 351.685 620.752 351.717 621.923L351.762 623.907 353.635 623.244C359.597 621.133 365.816 619.501 371.178 618.138L390.948 613.069C402.63 610.213 415.11 605.603 429.115 598.973 434.958 596.171 440.959 592.879 446.981 589.166 453.677 584.786 458.832 580.9 463.143 576.991 464.049 576.261 464.861 575.431 465.669 574.599 466.041 574.212 466.417 573.826 466.821 573.434L467.492 572.768C468.483 571.784 469.463 570.81 470.356 569.712L476.933 561.915C479.965 558.389 482.698 555.243 485.471 552.318 482.983 555.656 480.306 558.927 477.435 562.393L472.323 568.51 474.252 570.611 478.103 567.925C481.124 565.819 484.135 563.723 487.136 561.58 490.442 559.25 493.492 556.901 496.721 554.414L499.964 551.923C501.583 550.741 503.214 549.594 504.833 548.453 507.549 546.542 510.356 544.564 512.974 542.517 522.65 535.174 529.252 526.895 532.59 517.92 534.382 513.213 535.464 507.987 535.811 502.395 536.212 496.489 536.166 491.277 535.664 486.481ZM61.7262 609.644 55.2404 606.654C51.9166 605.147 46.9837 602.826 42.5357 600.091 38.8009 597.733 34.9923 594.996 30.8956 591.725 29.0054 590.227 27.1819 588.693 25.3654 587.124 24.1814 586.104 22.8814 584.923 21.8168 583.465 23.2538 584.342 24.5363 585.42 25.8749 586.545 27.6913 588.073 29.5464 589.599 31.4332 591.014 35.3893 594.018 39.3385 596.732 43.1435 599.063 47.5248 601.89 51.9202 604.096 55.6269 605.872L62.0354 609.041C63.223 609.623 64.5546 610.322 65.8054 611.234 64.3121 610.831 62.9243 610.215 61.7262 609.644ZM211.709 606.252 210.871 608.091 211.505 605.645C211.755 604.667 212 603.69 212.299 602.638 212.907 599.985 213.374 597.333 213.69 594.777 214.435 589.346 214.794 583.85 215.068 578.741 215.423 573.494 215.679 568.087 215.823 562.671L216.044 554.574C216.044 553.952 216.041 553.365 216.076 552.743L216.132 551.68 216.08 551.661 216.213 550.491C216.28 549.903 216.361 549.351 216.448 548.835 216.765 550.632 216.796 552.487 216.796 554.597L216.726 562.693C216.691 567.816 216.522 573.241 216.224 578.799 215.813 584.993 215.282 590.098 214.548 594.859 214.052 597.998 213.546 600.528 212.97 602.775 212.577 604.114 212.166 605.252 211.709 606.252ZM336.296 519.223 337.452 518.388C336.736 519.544 335.857 520.5 335.144 521.187L323.507 532.321 321.747 533.939C319.713 535.814 317.668 537.695 315.57 539.54L311.582 543.095C310.913 543.686 310.159 544.166 309.399 544.63 309.861 543.955 310.39 543.283 311.091 542.582L314.952 538.832C316.54 537.267 318.156 535.742 319.772 534.215L322.678 531.461 330.622 524.235 334.638 520.618C335.168 520.121 335.699 519.654 336.296 519.223ZM274.157 565.204C274.839 563.442 276.065 561.764 277.818 560.204 278.897 559.213 279.891 558.437 280.892 557.652 281.433 557.225 281.982 556.794 282.491 556.374L283.485 555.631C286.349 553.497 289.311 551.289 292.374 549.342 294.075 548.246 295.811 547.22 297.595 546.24 298.519 545.748 299.574 545.272 300.752 544.985 299.807 545.683 298.846 546.316 297.901 546.867 296.215 547.893 294.532 548.956 292.887 550.126 289.427 552.587 286.264 554.943 283.222 557.33 282.603 557.818 281.982 558.284 281.374 558.739 278.679 560.758 276.132 562.662 274.986 565.543 274.199 567.329 273.911 569.309 274.161 571.27 274.28 572.217 274.477 573.179 274.684 574.177L274.846 574.987C274.127 573.966 273.598 572.787 273.409 571.328 273.089 569.307 273.349 567.145 274.157 565.204Z" fill="#B8C995" transform="matrix(1.00204 0 0 1 158 156.592)"/><path d="M483.84 199.2 482.249 199.423C473.258 200.691 463.961 202 454.721 202.678L454.174 202.719 452.419 202.537C440.453 201.301 428.377 199.374 416.698 197.508L365.981 189.381 365.465 190.121C347.574 215.729 330.299 240.802 314.116 264.648 305.532 277.341 297.03 290.203 288.833 302.896L263.835 342.498 267.661 341.222C268.564 340.922 269.537 340.724 270.468 340.558 272.323 340.24 274.178 339.996 276.093 339.742 279.67 339.374 282.923 339.195 286.036 339.195L287.501 339.209C291.436 339.283 295.241 339.663 298.811 340.337 300.684 340.688 302.521 341.112 304.38 341.614 304.879 341.739 305.357 341.925 305.834 342.106L309.313 343.394 308.157 340.416C308.062 340.177 307.943 340 307.841 339.843 307.243 338.521 307.51 336.546 308.477 335.474 309.348 334.396 310.493 333.693 311.744 333.31L312.162 333.373 312.556 333.055C314.892 333.055 317.067 333.658 319.305 334.336L320.457 334.659 321.722 332.131C320.271 331.016 319.238 329.825 318.564 328.474 317.288 326.013 317.548 323.056 319.179 321.292L319.769 321.275 319.913 321.138C321.006 320.901 322.158 320.785 323.419 320.785 324.435 320.785 325.44 320.858 326.465 320.964L333.696 321.645C338.541 322.113 343.379 322.65 348.161 323.258 350.122 323.544 352.711 323.949 355.416 324.544 356.815 324.799 358.006 325.168 358.937 325.63 360.086 326.223 361.133 326.852 362.134 327.474 362.5 327.706 362.833 327.94 363.195 328.193L364.776 329.298 365.388 327.469C365.482 327.176 365.605 326.914 365.788 326.608L367.239 324.221C367.756 323.344 368.307 322.489 368.862 321.631 369.302 320.948 369.744 320.261 370.12 319.645L373.331 315.137 374.944 312.823C375.113 312.556 375.324 312.256 375.58 312.045L376.501 311.291 374.73 308.022C374.094 306.745 373.49 305.492 373.089 304.196 372.14 301.232 371.912 298.448 372.407 295.936 372.696 294.564 373.24 293.208 373.978 292.02 374.797 290.723 375.601 290.068 376.631 289.861L376.838 289.991 377.344 289.991C378.349 290.326 378.957 291.031 379.649 291.92L381.918 294.834C382.428 295.491 382.92 296.166 383.408 296.832L384.78 298.688 385.288 299.416C385.288 299.416 386.138 300.554 386.258 300.723L386.823 301.62C387.986 303.462 389.082 305.199 390.024 307.08L390.417 307.91C390.818 308.742 391.219 309.58 391.58 310.553 392.03 311.629 392.083 312.595 391.728 313.427L391.612 313.696 391.612 313.99C391.612 314.23 391.616 314.499 391.591 314.741 391.415 316.106 391.204 317.436 390.927 318.761 390.442 320.999 389.799 323.379 388.854 326.422 388.387 327.741 387.891 329.011 387.396 330.294L386.25 333.256 388.517 333.091C392.722 332.785 397.093 332.562 401.878 332.411L402.546 332.39 402.961 331.866C408.702 324.635 414.724 317.412 420.549 310.423 423.925 306.372 427.305 302.321 430.643 298.251L458.898 264.202C468.392 252.457 477.882 240.239 486.261 229.456 494.086 219.293 502.138 208.633 510.202 197.775L512.275 194.983 483.84 199.2ZM393.288 286.943 419.077 250.835 436.563 226.944 445.273 214.996C447.134 212.423 449.219 209.746 451.473 207.123 449.856 209.803 448.027 212.471 445.888 215.435L420.061 251.51 402.578 275.4 393.875 287.338C391.944 289.949 390.174 292.233 388.364 294.353 389.736 292.075 391.33 289.665 393.288 286.943Z" fill="#F59D9C" transform="matrix(1.00204 0 0 1 158 156.592)"/><path d="M308.434 122.798C308.195 134.387 308.35 146.141 308.498 157.507 308.621 166.953 308.747 176.719 308.652 186.318 308.487 204.466 307.7 225.825 303.111 246.624L303.048 246.912 298.881 252.731C293.383 260.257 287.002 269.189 281.31 278.476L280.664 279.533 279.522 279.048C274.544 276.938 269.505 274.952 264.467 272.963L259.513 271.002C258.543 270.6 257.862 270.314 256.973 270.027 256.147 269.741 255.265 269.558 254.173 269.442 253.635 269.386 253.101 269.362 252.581 269.362 251.179 269.362 249.84 269.534 248.6 269.72 244.707 270.377 241.686 271.484 239.11 273.202L238.611 273.534 237.582 273.323 236.77 272.889C236.138 272.227 235.467 271.807 234.775 271.638 233.619 271.359 232.53 271.094 231.419 271.094 231.419 271.094 230.963 271.104 230.959 271.104 228.32 271.104 225.829 271.988 223.879 273.529 222.102 275.017 220.633 276.912 219.298 279.47 218.715 280.601 218.23 281.741 217.784 282.915 217.46 283.788 217.264 284.545 217.362 285.351L217.597 287.229 215.728 286.955C215.549 286.929 215.366 286.917 215.184 286.917 214.467 286.917 213.673 287.103 212.893 287.454 211.793 287.95 210.711 288.759 209.682 289.859 208.023 291.67 206.491 293.829 204.879 296.644 202.437 301.011 200.318 305.919 198.414 311.639 197.321 313.594 196.422 315.462 195.459 317.777L192.708 317.004C193.534 311.755 193.917 306.193 193.878 300.003L194.76 295.806 195.607 291.911C196.464 288.032 197.68 283.916 199.218 279.679 200.547 275.939 202.268 272.006 204.331 267.998 205.543 265.55 206.892 263.264 208.322 260.845 209.095 259.535 209.882 258.208 210.651 256.836 214.456 249.885 217.678 242.12 220.496 233.113 221.722 229.089 222.804 224.894 223.7 220.653 224.607 216.489 224.986 213.055 224.895 209.838L224.881 209.348 225.436 208.554C225.65 208.222 225.875 207.892 226.128 207.611 228.9 204.387 232.178 202.283 235.85 201.383 238.78 200.607 241.893 200.542 245.189 200.473 246.014 200.456 246.85 200.438 247.687 200.408 252.475 200.24 256.351 199.424 259.538 197.919 262.97 196.389 266.16 193.88 269.052 190.449 271.884 187.213 274.052 183.533 275.801 180.357 279.266 173.727 282.319 166.229 284.863 158.099 287.448 150.24 289.469 142.331 291.317 134.903 292.94 127.855 294.806 119.625 296.334 111.456 296.703 109.995 296.914 108.765 297.125 107.542 297.29 106.576 297.458 105.612 297.676 104.668 298.063 102.467 298.389 100.088 298.656 97.4726 298.987 94.9921 299.32 92.473 299.573 89.9802L299.166 90.4053 299.046 86.9709C299.011 85.5919 298.938 84.2497 298.832 82.8707 298.699 81.1421 298.435 79.3678 298.031 77.4442 297.662 75.7085 297.248 74.1679 295.902 72.9118L291.918 68.3847C287.589 62.7842 281.567 58.7121 274.449 56.5426 271.378 55.601 268.153 55.1249 264.864 55.1249 260.876 55.1249 256.86 55.8522 253.252 57.2277 247.103 59.5519 241.124 63.5695 235.477 69.1735L233.492 71.1515C228.988 75.6505 224.733 79.9001 219.871 83.6489 213.866 88.3113 207.581 91.5437 201.197 93.2512 197.799 94.1401 194.296 94.6636 190.776 94.8112 190.199 94.8375 189.63 94.8498 189.061 94.8498 188.028 94.8498 187.009 94.8094 185.976 94.7374L185.439 94.7005 185.059 94.3228C184.483 93.7501 183.914 93.2091 183.274 92.7031 179.754 89.9222 176.49 88.5695 173.293 88.5695L172.664 88.5871C168.36 88.7557 164.888 91.7984 163.065 94.5916 162.036 96.1551 161.164 97.8451 160.465 99.6194L160.356 99.9004 160.142 100.113C156.41 103.398 154.225 107.33 152.943 110.964 153.832 109.086 154.865 107.23 156.084 105.525L158.673 106.599C158.072 110.204 157.883 113.417 158.079 116.709 158.315 120.549 159.755 124.342 162.13 127.386 164.217 130.167 167.257 132.502 171.178 134.346 172.137 134.775 173.152 135.147 174.206 135.451L175.872 135.933 175.092 137.482C175.004 137.656 174.944 137.911 174.884 138.181L174.203 141.247C173.802 143.104 173.328 144.966 172.815 146.791L172.723 147.199 169.888 146.981C169.832 146.268 169.779 145.56 169.723 144.855 169.628 151.647 170.001 158.226 170.422 164.039 171.044 172.729 171.936 181.794 173.071 190.983 175.306 208.965 178.71 226.854 183.187 244.156L183.977 247.273C188.102 263.475 192.367 280.231 193.014 297.134 193.397 306.476 192.61 315.488 190.677 323.917 188.78 332.43 185.706 340.536 182.948 347.343L182.582 348.241C182.582 348.241 181.539 348.241 181.5 348.241 180.246 348.241 178.988 348.242 177.734 348.344 170.893 348.924 164.393 351.396 159.443 355.306 158.28 356.218 157.134 357.263 155.841 358.596L153.431 361.081 153.368 357.622C153.333 355.513 153.456 353.483 153.744 351.587 154.236 347.996 155.279 344.191 157.029 339.631L157.767 337.602C158.933 334.406 160.142 331.102 161.045 327.72 161.628 325.607 162.078 323.532 162.38 321.545 162.668 319.804 162.728 318.339 162.559 317.032 162.229 318.065 162.039 319.116 161.842 320.21L161.617 321.428C161.287 323.443 160.802 325.494 160.177 327.481 159.263 330.591 158.104 333.57 156.878 336.723L155.901 339.255C154.608 342.814 153.22 347.067 152.788 351.475 152.581 353.597 152.546 355.733 152.683 357.824 152.76 359.05 152.915 360.012 153.164 360.852L153.371 361.536 152.95 362.112C150.961 364.843 149.236 367.886 147.82 371.155 145.744 376.041 144.458 381.118 143.474 385.438L143.284 386.283 142.444 386.507C141.661 386.718 140.846 387.034 140.017 387.449L135.656 389.448C134.532 389.94 133.415 390.393 132.301 390.845L129.114 392.159 128.535 390.905C126.999 387.605 125.077 384.624 123.574 382.397L120.246 377.39 120.187 377.186C119.4 374.569 118.932 372.209 118.764 369.973 118.426 366.324 118.95 362.34 120.369 357.811L121.437 354.934C121.437 354.934 123.296 350.832 123.609 350.15 124.185 348.906 124.779 347.631 125.26 346.387 126.781 342.551 128.12 338.533 129.244 334.44 131.11 327.379 132.652 319.81 134.248 309.912 134.855 305.796 135.463 301.68 135.931 297.531 136.282 294.815 136.612 291.742 136.605 288.557 135.997 291.447 135.583 294.402 135.189 297.411 134.645 301.566 134.033 305.684 133.345 309.766 131.788 319.058 130.06 327.028 128.057 334.132 127.115 337.874 125.903 341.758 124.354 345.967L123.247 348.597 121.968 351.549 120.619 348.627C118.3 343.606 116.831 337.967 116.245 331.864 115.574 325.932 115.595 319.427 116.318 311.413 117.559 298.089 120.359 284.696 123.071 271.742L123.25 270.881C125.822 258.61 127.674 245.252 128.911 230.046 129.529 222.673 129.926 215.943 130.13 209.464 130.323 204.166 130.453 198.957 130.052 193.759 129.8 197.337 129.677 200.944 129.554 204.468 129.497 206.121 129.441 207.774 129.371 209.426 129.086 216.235 128.608 223.147 127.962 229.974 126.904 242.484 125.014 255.794 122.186 270.653 120.844 277.304 119.456 284.166 118.272 291.029L115.415 290.885C115.018 285.246 114.323 279.695 113.35 274.386 111.849 266.324 109.594 258.336 107.412 250.612L107.264 250.089C104.854 241.465 102.855 233.675 102.785 225.605 102.679 217.698 104.369 209.773 106.421 200.981 108.592 192.06 111.206 183.071 113.736 174.381 115.795 167.296 117.928 159.968 119.814 152.699 122.102 143.935 123.929 135.94 125.404 128.254L125.875 125.796C127.27 118.532 128.714 111.021 130.305 103.681 133.647 88.747 137.782 71.5099 144.563 55.817 147.999 47.8046 152.124 40.5282 156.818 34.197 161.723 27.6356 167.531 21.6293 174.09 16.3398 188.945 4.65404 207.289 2.2034 220.064 2.2034L220.949 2.20691C229.382 2.27894 237.708 3.25919 245.691 5.12133 250.086 6.10334 254.025 7.21359 257.714 8.51182 260.623 9.58342 262.798 10.5022 264.787 11.4947L265.272 11.7372 265.433 12.1307C274.21 17.3341 282.35 24.3505 289.142 32.514 295.744 40.479 300.852 49.7493 304.327 60.0648 307.567 69.5652 309.383 80.0072 309.727 91.0992 309.931 96.0268 309.801 101.206 309.327 106.913 308.81 113.201 308.526 118.249 308.434 122.798Z" fill="#4F494B" transform="matrix(1.00204 0 0 1 158 156.592)"/><path d="M48.4418 418.41C46.332 418.792 44.2406 419.261 42.0807 419.419 39.9551 419.717 37.7267 419.597 35.6151 418.793 35.2084 418.638 35.0046 418.183 35.1592 417.777 35.2356 417.577 35.3849 417.425 35.565 417.342L35.6397 417.308C37.6933 416.368 39.638 416.22 41.6389 415.874 43.6337 415.658 45.6082 415.131 47.5793 414.699 51.5056 413.677 55.3871 412.403 59.2009 410.923 63.0367 409.496 66.8041 407.843 70.509 406.058 72.3632 405.168 74.1973 404.23 76.0076 403.253 77.8135 402.268 79.6255 401.296 81.7749 400.893L81.81 400.886C82.3538 400.784 82.8773 401.142 82.9791 401.686 83.0336 401.976 82.9554 402.262 82.7903 402.48 81.4069 404.289 79.6106 405.404 77.7661 406.429 75.9329 407.475 74.0778 408.479 72.1972 409.438 68.4378 411.356 64.6099 413.16 60.6625 414.717 56.68 416.176 52.6369 417.537 48.4418 418.41ZM68.61 429.087C67.8704 430.76 67.1721 432.446 66.6811 434.206 66.1163 435.939 65.5708 437.692 65.1843 439.407 64.3464 442.827 63.5102 446.101 62.118 449.135 60.7688 452.178 58.9401 454.98 56.6704 457.44 54.4086 459.914 51.8964 462.134 49.4941 464.782 49.3105 464.985 49.2332 465.291 49.3325 465.566 49.4766 465.962 49.9149 466.166 50.311 466.022 53.7595 464.768 56.767 462.549 59.2879 459.857 61.8351 457.184 63.9546 454.053 65.5093 450.687 67.1088 447.338 68.0698 443.762 68.9587 440.373 69.3742 438.658 69.9082 437.063 70.4581 435.459 70.9359 433.828 71.6122 432.277 72.3211 430.74 75.0168 424.543 78.951 418.873 83.9304 414.241 86.3696 411.876 89.0855 409.792 91.9473 407.949 94.8221 406.138 97.8051 404.464 100.679 402.582L100.747 402.538C101.044 402.343 101.219 401.989 101.17 401.613 101.1 401.089 100.619 400.721 100.096 400.79 96.3426 401.289 93.0847 402.963 90.0061 404.882 86.9292 406.803 84.0033 408.985 81.3524 411.479 75.9593 416.367 71.5947 422.42 68.61 429.087ZM538.359 502.58C538.01 508.059 536.922 513.613 534.916 518.815 530.945 529.347 523.075 537.866 514.422 544.375 510.108 547.698 505.575 550.644 501.301 553.737 497.163 556.883 492.776 560.31 488.403 563.359 480.821 568.735 473.059 573.813 464.989 578.407 464.903 578.482 464.827 578.571 464.739 578.644 462.015 581.156 459.143 583.479 456.19 585.688 456.516 586.131 456.738 586.622 456.933 587.122 457.346 588.112 457.706 589.124 458.019 590.155 458.644 592.215 459.08 594.357 459.243 596.56 459.322 598.764 459.099 601.029 458.442 603.187 458.094 604.265 457.7 605.319 457.146 606.31 456.906 606.879 456.509 607.368 456.017 607.781 456.615 609.067 456.95 610.484 456.893 611.967 456.639 616.062 453.528 619.507 450.027 619.897 450.411 620.684 450.742 621.518 450.816 622.497 450.946 623.813 450.574 625.318 449.73 626.488 447.942 628.787 445.433 629.607 443.191 630.174 438.608 631.171 434.135 631.153 429.709 631.028 425.292 630.877 420.898 630.457 416.599 630.107 412.387 629.816 407.972 629.748 403.661 629.64 394.987 629.395 386.295 629.31 377.602 629.336L364.561 629.458C360.394 629.552 356.225 629.551 352.038 628.999 351.757 629.656 351.436 630.3 351.021 630.919 350.903 631.094 350.724 631.197 350.532 631.23 350.517 631.247 350.507 631.27 350.491 631.285 349.403 632.339 348.201 632.67 346.981 632.896L343.327 633.594C340.895 634.083 338.445 634.455 336.002 634.881L328.634 635.899 324.95 636.406C323.725 636.592 322.49 636.72 321.142 636.125 320.973 636.05 320.897 635.889 320.789 635.755 320.591 635.71 320.412 635.614 320.306 635.445L320.284 635.407C319.879 634.755 319.579 634.074 319.223 633.408 307.957 635.924 296.587 637.749 285.24 639.669 273.819 641.588 262.45 643.353 251.309 646.217 240.116 648.933 229.253 652.567 218.239 656.286 212.737 658.094 207.002 659.818 201.14 660.635 195.348 661.611 189.52 662.082 183.699 662.507 160.394 663.937 137.142 662.039 114.123 660.893 102.53 660.655 90.8335 659.447 79.3603 657.489 73.614 656.468 67.8871 655.306 62.226 653.627 59.4548 652.746 56.5043 652.054 53.7445 649.818 52.4138 648.753 51.2587 646.891 51.329 644.932 51.3571 643.625 51.7946 642.53 52.4279 641.579 52.1406 640.872 51.9307 640.162 51.8016 639.445 51.5407 638.145 51.5881 636.664 52.0519 635.307 52.9663 632.498 55.265 630.761 57.381 629.675 58.9032 628.892 60.5132 628.407 62.1505 628.295 61.8808 627.423 61.7183 626.526 61.6261 625.621 57.6049 625.448 54.0572 623.887 50.3567 622.772L50.4832 622.81C46.2275 621.691 42.635 619.411 39.3455 616.951 36.0288 614.488 33.0977 611.636 30.4213 608.602 27.7124 605.595 25.1783 602.458 22.8015 599.217 20.5186 595.918 17.8159 592.881 16.7179 588.797 16.7039 588.745 16.7425 588.701 16.7372 588.649 12.5799 582.312 9.14905 575.482 6.51835 568.321 3.33076 559.516 1.15944 550.236 0.808096 540.769 0.41898 531.322 1.88761 521.724 5.4037 512.876 8.93649 504.029 14.2225 495.975 21.0746 489.277 23.4725 486.981 26.1033 484.916 28.8956 483.096 28.5056 482.832 28.1525 482.525 27.86 482.19 26.6478 480.889 25.8907 479.396 25.3162 477.923 24.1752 474.958 23.8379 471.951 23.6105 469.003 23.4752 466.043 23.5885 463.12 23.8055 460.219 23.9188 458.768 24.0619 457.323 24.235 455.881 24.3615 454.728 24.5591 453.582 25.1432 452.488 24.3246 451.453 23.5375 450.383 22.8489 449.217 18.6934 442.325 17.6613 434.127 17.9696 426.466 18.1909 418.751 19.924 411.208 20.198 403.99 20.3746 396.589 19.7377 389.114 19.0078 381.669 15.6226 351.844 9.11919 322.359 3.91487 292.61 2.66847 285.153 1.45369 277.685 0.594654 270.118L0 258.587C0.333779 254.737 0.433034 250.854 1.04438 247.034L2.31186 241.343C2.54989 240.402 2.68165 239.432 3.00752 238.515L4.06068 235.787C4.78621 233.978 5.4239 232.128 6.23024 230.358L9.14993 225.281C13.3617 218.754 18.7057 212.845 25.1116 208.483 37.7126 199.349 52.6431 194.649 67.3355 191.135 71.0316 190.288 74.7278 189.483 78.4222 188.754L89.4395 186.272C95.9544 184.9 102.475 183.546 109.035 182.34 111.895 172.238 114.883 162.21 117.462 152.087 119.545 144.031 121.404 135.928 122.96 127.771 124.514 119.594 126.038 111.327 127.788 103.138 131.322 86.7651 135.52 70.394 142.262 54.8304 145.646 47.0729 149.788 39.5739 154.905 32.7521 160.021 25.9118 166.013 19.8355 172.697 14.4873 186.412 3.76184 204.098-0.171919 220.959 0.00573021 229.461 0.0757798 237.915 1.25982 246.143 3.29323 253.884 5.40043 261.659 7.97755 268.3 12.9041 277.127 17.1365 284.606 23.6867 290.845 31.1343 297.782 39.4426 303.044 49.1006 306.54 59.3103 310.087 69.5156 311.837 80.2824 312.232 91.0123 312.447 96.3841 312.308 101.761 311.893 107.108 311.477 112.418 311.158 117.572 311.04 122.861 310.513 143.926 311.271 165.132 310.939 186.357 310.856 192.384 310.681 198.418 310.383 204.452 310.754 204.651 311.088 204.898 311.4 205.17 312.137 205.784 312.834 206.439 313.517 207.111 314.868 208.471 316.103 209.958 317.182 211.568 318.207 213.208 319.103 214.957 319.681 216.822 320.002 217.743 320.236 218.688 320.43 219.643 320.485 219.856 320.52 220.075 320.541 220.297L355.959 171.417C356.456 170.73 357.315 170.458 358.088 170.664L405.871 183.625 429.762 190.105C437.603 192.299 445.447 194.476 453.132 197.248 456.763 194.904 460.856 193.987 464.79 192.577L476.912 188.545C484.969 185.784 493.141 183.377 501.261 180.807L501.289 180.798C501.917 180.599 502.575 180.761 503.038 181.164L508.732 186.155C510.62 187.831 512.414 189.616 513.804 191.871 513.948 192.105 513.912 192.364 513.801 192.595 514.501 192.78 515.062 193.362 515.178 194.124 515.255 194.633 515.114 195.134 514.833 195.519 506.088 207.429 497.23 219.234 488.273 230.978 479.315 242.719 470.24 254.373 460.83 265.781L432.388 299.729C422.853 310.986 413.54 322.429 403.818 333.531L403.757 333.6C403.456 333.944 403.024 334.113 402.601 334.1 397.658 333.926 392.714 333.723 387.771 333.335 387.633 333.681 387.515 334.045 387.374 334.389L385.956 338.041C385.591 339.127 385.066 340.129 384.31 341.017 386.077 342.702 387.088 344.811 387.745 347.041 388.405 349.361 388.777 351.781 388.781 354.22 388.81 356.7 388.311 359.091 387.971 361.245L386.913 367.897C386.762 368.834 386.624 369.769 386.475 370.705 394.561 375.045 401.845 380.656 408.452 387.008 415.438 393.744 421.758 401.348 426.354 410.092 430.69 418.994 433.695 428.133 435.807 437.706 436.517 441.133 437.065 444.617 437.408 448.128 446.239 443.973 455.425 440.552 465.014 438.233 470.29 436.946 475.722 436.021 481.273 435.917 486.813 435.748 492.483 436.664 497.69 438.596 502.937 440.548 507.678 442.864 512.525 445.6 517.289 448.376 521.73 451.831 525.469 455.975 533.109 464.21 537.221 475.258 538.286 486.186 538.852 491.673 538.749 497.176 538.359 502.58ZM386.11 373.051C385.702 375.747 385.326 378.444 385.075 381.143 384.866 383.35 384.732 385.555 384.687 387.749 384.685 389.55 384.654 391.306 384.323 393.144 384.928 394.75 385.138 396.346 385.319 398.029L385.927 403.811C386.263 407.707 386.439 411.711 385.866 415.779 385.231 419.785 383.749 424.028 380.672 427.151L379.536 428.31 378.218 429.245C377.354 429.901 376.451 430.466 375.459 430.84 374.368 431.427 373.191 431.74 371.989 431.863 370.592 432.611 369.074 432.914 367.543 433.022 365.663 433.124 363.763 433.183 361.849 432.947 359.938 432.747 358.017 432.349 356.167 431.628 354.285 430.847 352.604 430.08 350.833 428.338L351.298 428.723C348.856 426.982 348.287 424.844 347.602 422.961 347.015 421.029 346.664 419.121 346.4 417.221 346.14 415.321 345.975 413.429 345.869 411.541 345.758 409.758 345.779 407.973 346.431 406.179 344.917 405.548 343.89 404.135 343.379 402.715 342.766 401.097 342.467 399.456 342.292 397.859 342.26 397.575 342.255 397.296 342.233 397.013 338.917 398.524 335.634 400.065 332.595 401.919 329.029 404.135 325.948 407.057 323.913 410.549 321.847 414.049 321.045 418.072 321.225 422.208 321.384 426.448 322.2 430.758 322.963 435.032 324.607 443.607 326.844 452.122 329.289 460.572 330.529 464.793 331.809 469.006 333.165 473.197 334.517 477.388 335.796 481.603 336.471 486.037 336.538 486.449 336.258 486.838 335.846 486.905 335.535 486.956 335.232 486.801 335.076 486.547 332.755 482.667 331.186 478.514 329.78 474.309 328.362 470.107 327.019 465.88 325.714 461.638 323.142 453.142 320.77 444.572 318.974 435.804 318.212 431.382 317.436 426.966 317.301 422.359 317.128 417.68 318.154 412.723 320.662 408.624 323.13 404.502 326.726 401.235 330.675 398.838 334.197 396.68 338.032 395.139 342.116 394.568 342.087 392.553 342.157 390.598 342.053 388.802 342.014 387.389 341.791 386.504 341.208 385.144 340.665 383.862 339.998 382.557 339.305 381.268 338.61 379.976 337.868 378.694 337.109 377.421 336.525 376.468 335.959 375.5 335.65 374.364 332.228 372.13 328.797 369.912 325.333 367.803 321.346 365.169 316.695 363.117 312.665 359.622 310.708 357.883 308.684 355.871 307.761 352.855 307.287 351.378 307.379 349.595 308.037 348.183 308.602 346.94 309.546 346.072 310.575 345.437 310.106 345.075 309.657 344.684 309.227 344.261 307.277 344.487 305.611 344.018 303.878 343.695 302.087 343.273 300.277 342.942 298.448 342.698 294.8 342.208 291.124 341.838 287.426 341.821 287.011 341.807 286.595 341.823 286.179 341.814 285.84 343.881 285.205 345.89 284.23 347.739 283.137 350.33 281.633 352.72 280.133 355.084 277.034 359.777 273.15 363.844 269.274 367.656 265.357 371.407 261.344 374.991 258.958 379.342 257.661 381.477 257.173 383.872 256.87 386.297 256.952 387.536 256.889 388.772 256.888 390.045 257.013 391.318 257.03 392.625 256.895 394.034L256.889 394.095C256.848 394.522 256.469 394.835 256.043 394.794 255.801 394.771 255.595 394.637 255.469 394.449 252.252 389.586 252.893 382.763 255.66 377.599 258.44 372.348 262.666 368.547 266.441 364.745 270.331 361.022 274.058 357.268 277.018 352.948 278.45 350.769 279.895 348.58 280.949 346.188 281.718 344.757 282.314 343.265 283.039 341.797 280.802 341.821 278.563 341.898 276.329 342.089 274.483 342.259 272.638 342.456 270.806 342.727 268.977 343.011 267.15 343.29 265.196 342.944L265.133 342.933C264.939 342.899 264.811 342.763 264.676 342.641 264.649 342.629 264.619 342.644 264.593 342.629 264.567 342.613 264.565 342.58 264.542 342.561 264.507 342.556 264.47 342.571 264.436 342.562 262.192 341.954 260.835 340.445 259.345 339.07 257.791 341.591 255.832 343.747 253.613 345.665 251.389 347.519 248.958 349.182 246.272 350.53 245.707 351.59 245.152 352.655 244.59 353.716 244.539 355.369 243.971 356.756 243.467 358.173 242.948 359.601 242.577 361.073 242.259 362.55 241.674 365.516 241.592 368.549 242.027 371.479 242.383 374.418 243.25 377.296 244.651 379.943 245.238 381.327 246.177 382.526 246.995 383.798 247.88 385.035 248.867 386.168 249.283 387.971L249.311 388.097C249.411 388.53 249.14 388.963 248.706 389.063 248.547 389.099 248.387 389.086 248.244 389.032 244.833 387.758 243.07 384.62 241.295 381.746 239.499 378.811 238.488 375.409 237.996 372.001 237.768 370.141 237.747 368.269 237.881 366.415 235.762 370.433 233.591 374.424 231.423 378.416 233.689 385.068 234.956 391.956 235.734 398.908 236.561 406.451 236.861 414.083 236.314 421.715 235.762 429.329 234.347 437.014 231.235 444.195 229.709 447.766 227.625 451.221 225.244 454.259 222.921 457.25 220.53 460.187 218.05 463.047 208.076 474.429 196.974 484.903 184.492 493.597 178.932 497.434 173.088 500.893 166.96 503.8 171.297 504.395 175.613 505.092 179.92 505.82 186.073 506.845 192.243 507.778 198.431 508.491 210.791 509.962 223.272 510.851 235.555 510.037 241.737 509.601 247.586 508.718 253.533 506.709 259.484 504.89 265.423 502.911 271.348 500.912L289.1 494.795C294.54 492.879 300.028 491.091 305.687 489.774 303.962 486.075 302.534 482.254 301.354 478.375 300.237 474.686 299.377 470.939 298.629 467.173 297.02 466.781 295.536 466.098 294.186 465.229 292.352 464.171 290.597 462.999 288.853 461.809 285.391 459.4 282.095 456.76 278.978 453.941 275.894 451.082 272.953 448.085 270.147 444.97 268.752 443.406 267.377 441.823 266.048 440.201 264.699 438.595 263.433 436.914 262.802 434.737 262.649 434.205 262.954 433.65 263.485 433.496 263.766 433.415 264.054 433.462 264.285 433.603L264.326 433.628C266.174 434.764 267.5 436.311 268.825 437.864 270.155 439.411 271.532 440.921 272.927 442.411 275.729 445.383 278.669 448.219 281.707 450.928 284.676 453.721 287.872 456.236 291.081 458.718 292.711 459.924 294.353 461.116 296.067 462.193 296.687 462.621 297.311 463.037 297.926 463.47 297.845 462.986 297.726 462.508 297.651 462.023 296.724 456.59 296.221 450.752 296.722 445.129 296.785 444.315 296.893 443.51 296.984 442.702 296.587 442.418 296.302 442.061 296.049 441.682L294.71 439.765 292.036 435.928C291.219 434.601 290.354 433.305 289.59 431.943L288.413 429.92C288.015 429.25 287.708 428.521 288.011 427.392 288.16 426.839 288.701 426.496 289.254 426.581 290.409 426.758 290.952 427.335 291.406 427.969L292.782 429.862C293.72 431.11 294.557 432.424 295.442 433.707L297.753 437.502C298.32 434.479 299.05 431.493 299.936 428.562 299.977 428.429 300.026 428.299 300.067 428.166 299.742 427.677 299.538 427.156 299.38 426.624L298.511 423.752C297.907 421.844 297.42 419.906 296.879 417.982L295.509 412.143 294.827 409.222C294.583 408.253 294.395 407.27 294.916 406.102 295.188 405.493 295.901 405.22 296.51 405.492 296.591 405.528 296.671 405.577 296.741 405.627 297.765 406.393 298.08 407.344 298.339 408.309L299.165 411.192 300.814 416.959C301.248 418.779 301.719 420.589 302.109 422.421 303.393 419.235 304.922 416.151 306.94 413.303 307.243 412.876 307.835 412.775 308.262 413.078 308.615 413.328 308.745 413.776 308.609 414.164L308.593 414.209C305.014 424.417 301.097 434.654 300.49 445.409 300.076 450.776 300.564 455.983 301.526 461.388 302.403 466.747 303.653 472.033 305.24 477.19 306.756 482.368 308.704 487.416 311.231 492.128 312.396 494.549 313.929 496.726 315.359 498.974 317.027 501.026 318.543 503.236 320.512 504.998 322.288 506.977 324.471 508.454 326.543 510.075 328.841 511.32 331.004 512.887 333.533 513.661 337.962 515.625 342.743 516.329 347.639 517.309 356.302 516.44 364.909 516.632 373.363 515.722 382.748 514.888 392.026 512.846 400.419 508.79 417.175 500.786 430.243 484.777 432.908 466.33 435.82 447.933 430.756 428.713 422.984 411.833 418.7 403.567 412.672 396.194 405.923 389.621 399.73 383.674 393.005 378.239 386.11 373.051ZM307.522 544.858C308.232 543.599 309.105 542.516 310.096 541.558L313.943 537.81C316.492 535.293 319.122 532.863 321.714 530.393L329.669 523.176 333.648 519.569C334.22 519.04 334.815 518.536 335.441 518.064 334.356 517.753 333.273 517.431 332.228 516.976 329.459 516.138 327.053 514.476 324.529 513.114 322.238 511.383 319.839 509.762 317.89 507.65 315.732 505.739 314.075 503.402 312.263 501.2 310.708 498.826 309.052 496.5 307.795 493.964 307.331 493.118 306.91 492.253 306.482 491.39 301.234 494.052 295.792 496.184 290.292 498.153L272.558 504.44C266.629 506.498 260.697 508.535 254.681 510.432 248.755 512.51 242.135 513.621 235.838 514.09 223.09 514.855 210.464 513.817 197.97 512.241 191.717 511.469 185.5 510.48 179.303 509.397 173.807 508.438 168.344 507.295 163.004 505.571 157.397 507.94 151.497 509.677 145.449 510.375L147.912 511.746 171.135 524.679 194.207 537.88 202.048 542.367C204.997 540.581 208.304 539.721 211.652 539.305 215.488 538.863 219.39 538.974 223.2 539.625 226.969 540.207 230.819 541.616 234.133 542.915 237.657 544.136 241.653 546.43 243.872 550.068 246.147 553.634 246.924 557.627 247.334 561.435 247.653 564.46 247.622 567.457 247.526 570.394 248.194 570.463 248.811 570.66 249.412 570.896L252.486 572.046 258.633 574.349C260.649 575.199 262.686 575.996 264.678 576.905L267.68 578.234C268.388 578.542 269.071 578.913 269.659 579.524 271.194 578.593 272.733 577.668 274.273 576.745 272.941 575.308 272.252 573.482 271.976 571.554 271.641 569.283 271.916 566.846 272.812 564.668 273.68 562.461 275.183 560.622 276.837 559.137 278.544 557.593 280.016 556.558 281.639 555.237 284.875 552.801 288.125 550.341 291.591 548.142 293.312 547.028 295.083 545.969 296.913 544.98 298.682 544.025 300.627 543.198 302.838 543.278 303.072 543.106 303.358 543.034 303.627 543.107 305.097 543.508 306.362 544.128 307.522 544.858ZM215.972 595.102C215.549 597.801 215.024 600.501 214.356 603.197 213.98 604.403 213.573 605.66 213.011 606.856 213.502 606.861 213.991 606.866 214.459 606.854 219.072 606.671 223.975 604.54 228.631 602.538 233.793 600.185 238.834 597.569 243.815 594.818 243.81 594.799 243.793 594.784 243.789 594.765 243.111 591.036 243.164 587.35 243.322 583.669L243.708 572.636C243.794 568.954 243.879 565.354 243.451 561.857 243.043 558.38 242.225 554.94 240.458 552.272 238.792 549.515 236.075 547.823 232.713 546.561 229.186 545.128 226.073 543.955 222.545 543.335 219.094 542.699 215.552 542.551 212.054 542.906 209.719 543.182 207.391 543.619 205.068 544.095L205.743 544.481C208.854 546.258 211.916 548.123 214.794 550.316 214.919 549.053 215.126 547.79 215.502 546.526 215.657 546.006 216.203 545.709 216.724 545.863 217.052 545.96 217.294 546.221 217.387 546.526 218.184 549.217 218.244 551.913 218.225 554.609L218.179 562.7C218.113 568.096 217.966 573.497 217.679 578.902 217.284 584.302 216.811 589.702 215.972 595.102ZM245.517 593.862C252.531 589.93 259.432 585.745 266.334 581.544L263.263 580.443C261.193 579.727 259.169 578.899 257.123 578.124L251.083 575.554 248.064 574.266C247.834 574.172 247.606 574.073 247.38 573.966L246.884 583.841C246.701 587.197 246.384 590.545 245.517 593.862ZM315.308 265.444C306.758 278.105 298.324 290.843 290.049 303.675L267.2 339.866C268.191 339.524 269.209 339.311 270.233 339.143 272.134 338.811 274.045 338.556 275.959 338.329 279.791 337.904 283.651 337.71 287.519 337.756 291.383 337.857 295.255 338.212 299.067 338.938 300.978 339.276 302.87 339.704 304.742 340.229 305.457 340.389 306.142 340.67 306.825 340.954 306.73 340.766 306.605 340.623 306.518 340.425 305.702 338.61 306.072 336.024 307.353 334.578 308.562 333.064 310.139 332.317 311.7 331.876 311.711 331.873 311.72 331.882 311.731 331.88 311.909 331.727 312.12 331.619 312.347 331.613 314.942 331.574 317.331 332.222 319.699 332.937L320.848 333.282C319.433 332.197 318.148 330.872 317.278 329.12 315.749 326.167 315.974 322.319 318.351 320.072 318.583 319.854 318.882 319.815 319.172 319.867 319.194 319.86 319.203 319.829 319.226 319.823 321.73 319.192 324.165 319.288 326.587 319.514L333.85 320.21C338.693 320.696 343.533 321.212 348.385 321.836 350.811 322.198 353.216 322.579 355.687 323.111 356.867 323.361 358.311 323.701 359.58 324.355 360.795 324.947 361.851 325.596 362.918 326.254 363.301 326.494 363.655 326.759 364.032 327.003 364.166 326.591 364.357 326.217 364.576 325.861L366.006 323.495C366.939 321.904 367.972 320.38 368.958 318.824L372.136 314.303 373.727 312.044C373.998 311.642 374.291 311.254 374.672 310.924L373.428 308.677C372.815 307.354 372.158 306.051 371.715 304.636 370.831 301.835 370.399 298.724 371.005 295.624 371.339 294.085 371.922 292.585 372.77 291.242 373.613 289.9 374.75 288.694 376.579 288.422 376.845 288.382 377.101 288.456 377.303 288.602 377.319 288.6 377.326 288.582 377.343 288.581 377.501 288.566 377.66 288.588 377.802 288.635 379.206 289.108 380.015 290.049 380.777 291.027L383.066 293.955C383.808 294.926 384.513 295.932 385.24 296.918 387.26 293.109 389.646 289.564 392.132 286.092L400.732 274.056 417.931 249.985 435.382 226.095 444.109 214.151C446.656 210.622 449.291 207.156 452.289 203.954 438 202.498 423.866 200.09 409.706 197.845L366.647 190.937C349.364 215.648 332.234 240.486 315.308 265.444ZM385.041 354.194C385.236 349.976 383.573 346.062 382.555 341.865L382.529 341.754C382.493 341.606 382.563 341.477 382.594 341.338 382.593 341.337 382.593 341.337 382.593 341.336 381.817 339.629 382.203 338.237 382.563 336.923L383.795 333.08 386.346 325.6C387.218 323.141 388.036 320.678 388.664 318.204 388.972 316.966 389.22 315.734 389.401 314.506 389.502 313.625 389.592 312.804 389.882 311.941 389.79 311.754 389.699 311.566 389.607 311.366 389.139 310.332 388.553 309.306 387.972 308.283 386.734 306.259 385.46 304.217 384.095 302.226 382.783 300.196 381.424 298.183 380.024 296.195L377.894 293.232C377.498 292.71 377.124 292.172 376.834 291.568 376.516 292.114 376.178 292.625 375.862 293.142 375.296 294.121 374.922 295.202 374.717 296.327 374.359 298.602 374.76 301.031 375.577 303.366 375.918 304.561 376.473 305.699 376.97 306.856L378.788 310.497 380.581 314.154C381.184 315.37 381.693 316.636 381.556 318.243 381.514 318.728 381.087 319.088 380.603 319.047 380.473 319.036 380.348 318.995 380.242 318.935 378.838 318.138 378.079 316.998 377.415 315.81L376.578 314.326 375.282 316.394 372.343 321.075C371.291 322.586 370.284 324.128 369.179 325.604L367.551 327.839C367.303 328.183 367.03 328.51 366.695 328.796 367.473 329.33 368.28 329.838 369.049 330.381 371.057 331.782 373.007 333.259 374.498 335.358 374.815 335.804 374.71 336.422 374.264 336.739 374 336.927 373.659 336.961 373.372 336.869 370.959 336.082 368.962 334.729 366.981 333.364 364.989 332.017 362.978 330.695 360.949 329.479 359.939 328.883 358.907 328.285 357.928 327.837 357.025 327.39 356.075 327.189 354.882 326.956 352.598 326.504 350.194 326.191 347.815 325.857 343.05 325.133 338.245 324.51 333.438 323.916L326.22 323.058C324.096 322.817 321.986 322.457 319.92 321.632 319.751 323.826 319.644 325.774 320.545 327.473 321.492 329.335 323.477 330.781 325.682 331.82 327.896 332.881 330.37 333.591 332.89 334.121L340.749 335.59C343.42 336.149 346.076 336.767 348.729 337.566 350.056 337.969 351.379 338.407 352.715 338.972 354.044 339.502 355.479 340.389 356.564 341.245 360.966 344.732 364.625 348.659 367.798 353.125 368.038 353.463 367.959 353.931 367.62 354.171 367.433 354.304 367.215 354.307 367.007 354.254 366.969 354.253 366.934 354.291 366.896 354.285 364.306 353.866 362.095 352.778 359.927 351.619 357.754 350.475 355.568 349.337 353.388 348.291 349.152 346.308 344.353 344.88 339.71 343.329L325.681 338.664 318.634 336.404C316.378 335.702 314.142 334.93 312.081 333.584 311.226 334.544 310.425 335.469 310.002 336.353 309.522 337.379 309.459 338.149 309.849 339.141 310.7 341.141 313.104 343.053 315.514 344.217 320.881 346.888 326.376 349.449 331.841 352.017L348.162 359.934 356.337 363.868C359.069 365.163 361.776 366.514 364.179 368.511 364.594 368.854 364.651 369.468 364.307 369.882 364.074 370.162 363.715 370.279 363.38 370.218 360.305 369.65 357.535 368.43 354.793 367.151L346.55 363.347 330.084 355.686C324.644 353.016 319.218 350.362 313.8 347.544 313.18 347.204 312.568 346.836 311.965 346.45 311.044 348.615 310.664 350.205 311.183 351.845 311.733 353.611 313.322 355.32 315.075 356.76 318.602 359.732 323.168 361.628 327.475 364.353 331.688 367.033 335.783 369.815 339.875 372.614L345.984 376.839C348.023 378.243 350.019 379.709 351.61 381.763 351.943 382.194 351.864 382.815 351.433 383.149 351.171 383.352 350.83 383.4 350.534 383.311 348.062 382.548 345.984 381.216 343.94 379.834L342.109 378.62C342.269 378.888 342.441 379.145 342.598 379.415 343.371 380.748 344.122 382.097 344.801 383.561 345.497 384.924 346.09 386.98 346.113 388.587 346.198 391.831 345.963 394.729 346.089 397.554 346.168 398.947 346.355 400.297 346.743 401.514 347.161 402.747 347.562 403.756 347.966 405.309L347.991 405.403C347.993 405.413 347.984 405.421 347.987 405.431 348.155 405.541 348.323 405.658 348.401 405.835L348.416 405.87C349.2 407.673 349.352 409.485 349.487 411.292 349.634 413.099 349.84 414.896 350.128 416.66 350.418 418.42 350.794 420.158 351.328 421.758 351.827 423.311 352.702 424.88 353.399 425.25 353.505 425.307 353.6 425.376 353.682 425.457L353.863 425.637C354.651 426.414 356.202 427.362 357.623 427.915 359.106 428.504 360.704 428.893 362.337 429.156 363.97 429.439 365.664 429.46 367.357 429.448 368.345 429.412 369.331 429.378 370.349 429.454 371.552 428.727 372.76 428.302 373.868 427.641 374.684 427.31 375.383 426.819 376.032 426.27L377.046 425.505 377.881 424.557C380.105 422.044 381.351 418.714 381.847 415.16 382.428 411.611 382.395 407.864 382.161 404.096L381.708 398.381C381.541 396.715 381.479 394.953 381.966 393.194 381.301 391.425 381.134 389.561 381.114 387.743 381.1 385.428 381.182 383.126 381.338 380.839 381.672 376.267 382.195 371.734 382.926 367.251L384.149 360.569C384.57 358.285 385.036 356.239 385.041 354.194ZM355.042 344.93C355.462 345.144 355.857 345.376 356.272 345.593 355.654 345.087 355.038 344.57 354.416 344.087 352.549 342.551 350.255 341.885 347.696 341.149 345.874 340.648 344.002 340.243 342.121 339.868 346.433 341.379 350.742 342.811 355.042 344.93ZM509.058 196.931 484.05 200.607C474.343 202.008 464.631 203.383 454.824 204.121 452.596 208.436 449.868 212.389 447.05 216.278L438.443 228.308 421.223 252.365 403.755 276.241 395.019 288.179C392.376 291.798 389.628 295.34 386.456 298.577 386.791 299.045 387.146 299.493 387.476 299.967 388.819 302.071 390.176 304.18 391.314 306.454 391.875 307.605 392.435 308.751 392.903 309.99 393.369 311.126 393.654 312.557 393.068 313.972 393.06 314.293 393.04 314.613 393.006 314.924 392.854 316.328 392.628 317.701 392.346 319.049 391.767 321.736 391.017 324.342 390.197 326.905 389.628 328.515 389.009 330.079 388.405 331.655 392.879 331.32 397.351 331.122 401.825 330.963 410.88 319.602 420.315 308.559 429.541 297.34L457.77 263.28C467.038 251.842 476.094 240.211 485.129 228.565 493.196 218.091 501.163 207.531 509.058 196.931ZM320.162 227.261 300.616 253.985C294.476 262.436 288.234 270.812 281.436 278.785 282.86 280.975 284.039 283.167 284.222 286.189 284.325 287.71 283.706 289.641 282.42 290.826 281.147 292.005 279.68 292.499 278.342 292.801 275.64 293.323 273.113 293.201 270.657 292.909 269.943 292.809 269.255 292.613 268.557 292.453 269.634 293.706 270.76 294.917 271.809 296.204L271.901 296.316C272.445 296.984 272.433 297.925 271.924 298.577 270.226 300.754 268.207 302.022 265.829 302.835 263.478 303.616 260.956 303.616 258.668 303.131 257.653 302.94 256.695 302.631 255.766 302.269L256.238 302.811C257.604 304.401 258.891 306.06 259.549 308.248 259.588 308.375 259.535 308.493 259.512 308.615 259.589 308.748 259.661 308.886 259.655 309.033 259.585 311.247 258.269 313.462 256.093 314.699 255.938 314.791 255.766 314.837 255.606 314.917 255.246 317.22 253.844 318.809 252.734 320.599L250.058 324.647C252.623 327.081 255.152 329.551 257.638 332.065L261.883 336.454C263.012 337.637 264.204 338.754 264.975 340.299 271.164 326.774 279.086 314.209 286.997 301.724 295.229 288.819 303.614 276.019 312.113 263.299 329.081 237.836 346.454 212.665 364.176 187.721 364.614 187.1 365.361 186.819 366.063 186.93L410.295 194.22C424.984 196.669 439.706 198.917 454.25 202.266 463.938 200.073 473.725 198.539 483.516 197.029L512.242 192.673C510.078 191.658 508.19 190.32 506.419 188.849L501.433 184.656C493.669 187.224 485.948 189.919 478.121 192.291L465.929 196.107C461.835 197.286 457.913 198.996 453.492 199.163 453.436 199.165 453.4 199.116 453.347 199.109 453.218 199.143 453.094 199.201 452.958 199.177 444.804 197.724 436.819 195.645 428.827 193.589L404.903 187.23 358.377 174.865 320.162 227.261ZM258.652 273.195C257.834 272.869 256.905 272.432 256.18 272.198 255.496 271.944 254.727 271.802 253.938 271.704 252.348 271.52 250.634 271.646 248.934 271.899 246.75 272.246 244.552 272.772 242.326 273.278 243.933 273.89 245.505 274.585 247.064 275.311 250.355 276.891 253.45 278.173 256.88 280.381 259.966 282.839 262.273 285.445 264.766 288.081 265.113 288.451 265.419 288.853 265.761 289.227 267.555 289.204 269.307 289.294 271.019 289.417 273.282 289.612 275.572 289.655 277.541 289.219 278.504 288.993 279.342 288.611 279.812 288.147 280.248 287.677 280.462 287.15 280.416 286.304 280.354 284.786 279.433 282.863 278.387 281.308 271.757 278.73 265.228 275.909 258.652 273.195ZM234.248 273.711C233.178 273.533 232.117 273.324 231.092 273.458 229.049 273.6 227.131 274.259 225.512 275.591 223.865 276.875 222.469 278.645 221.342 280.614 220.767 281.592 220.277 282.639 219.833 283.704 219.642 284.197 219.44 284.688 219.184 285.165 220.631 284.999 222.051 285.082 223.456 285.229 225.558 285.445 227.649 285.71 229.74 286.02 231.83 286.334 233.917 286.7 236.013 287.156 238.127 287.649 240.169 288.082 242.462 289.188 244.736 290.467 246.135 291.987 247.724 293.462 248.365 294.091 248.948 294.755 249.566 295.398 250.178 295.651 250.814 295.882 251.368 296.191 252.284 296.633 253.176 297.06 254.027 297.564 255.773 298.419 257.543 299.254 259.367 299.529 261.173 299.869 262.988 299.81 264.618 299.228 265.709 298.869 266.788 298.188 267.646 297.427L261.819 290.748C259.49 288.167 257.062 285.411 254.609 283.39 252.075 281.71 248.627 280.107 245.522 278.592 242.646 277.232 239.78 275.829 237.097 274.007 236.002 274.14 235.13 273.878 234.248 273.711ZM310.132 209.052C309.943 212.109 309.726 215.166 309.448 218.222 308.692 225.886 307.631 233.64 305.495 241.106L317.105 225.038 318.644 222.914C318.627 222.904 318.608 222.914 318.591 222.904 318.583 222.898 318.576 222.893 318.568 222.888L318.469 222.817C317.433 222.075 317.234 221.294 316.962 220.498 316.724 219.7 316.456 218.914 316.111 218.155 315.442 216.638 314.711 215.141 313.76 213.764 312.894 212.338 311.9 210.969 310.772 209.706 310.566 209.481 310.342 209.273 310.132 209.052ZM107.804 201.313C105.954 209.34 104.106 217.566 104.222 225.582 104.296 233.678 106.406 241.694 108.65 249.696 110.897 257.712 113.208 265.824 114.759 274.112 115.772 279.622 116.469 285.188 116.855 290.768 118.043 283.93 119.419 277.14 120.776 270.371 123.34 256.977 125.366 243.451 126.547 229.827 127.162 223.02 127.633 216.195 127.918 209.363 128.206 202.53 128.299 195.695 129.059 188.864L129.061 188.843C129.119 188.323 129.588 187.947 130.109 188.005 130.546 188.054 130.881 188.394 130.942 188.81 131.96 195.71 131.805 202.613 131.569 209.504 131.339 216.396 130.923 223.281 130.36 230.156 129.236 243.901 127.489 257.628 124.648 271.164 121.855 284.601 119.019 298.012 117.748 311.543 117.129 318.296 116.935 325.088 117.665 331.739 118.217 337.39 119.556 342.885 121.914 348.028 122.286 347.183 122.651 346.341 122.987 345.457 124.414 341.649 125.677 337.749 126.69 333.757 128.887 325.828 130.543 317.706 131.924 309.538 132.593 305.449 133.236 301.353 133.772 297.241 134.293 293.128 134.867 289.02 136.007 284.97 136.142 284.459 136.667 284.154 137.177 284.29 137.57 284.394 137.843 284.746 137.885 285.127 138.275 289.376 137.902 293.548 137.371 297.7 136.877 301.857 136.277 306.001 135.65 310.142 134.349 318.419 132.772 326.668 130.615 334.826 129.528 338.899 128.168 342.922 126.619 346.893 125.848 348.855 124.846 350.862 124.023 352.723L122.772 355.453 121.756 358.26C120.556 362.031 119.851 365.984 120.195 369.863 120.389 372.198 120.866 374.503 121.552 376.76L124.775 381.58C126.644 384.367 128.415 387.219 129.842 390.311 131.58 389.59 133.325 388.893 135.046 388.124L139.382 386.15C140.248 385.734 141.131 385.354 142.078 385.101 143.19 380.23 144.478 375.333 146.491 370.579 147.889 367.327 149.646 364.169 151.774 361.269 151.471 360.178 151.307 359.055 151.252 357.924 151.108 355.741 151.139 353.529 151.372 351.339 151.783 346.94 153.111 342.71 154.558 338.736 156.073 334.773 157.66 330.969 158.805 327.06 159.395 325.111 159.863 323.138 160.22 321.145 160.589 319.146 160.808 317.161 161.769 315.153L161.797 315.095C162.035 314.599 162.629 314.389 163.126 314.627 163.39 314.754 163.574 314.986 163.652 315.248 164.281 317.42 164.176 319.615 163.799 321.747 163.468 323.886 163.015 326.012 162.44 328.089 161.32 332.259 159.775 336.249 158.373 340.143 156.881 344.011 155.722 347.857 155.154 351.798 154.877 353.708 154.778 355.642 154.823 357.58 155.979 356.364 157.219 355.219 158.562 354.18 164.005 349.854 170.823 347.471 177.612 346.901 178.948 346.792 180.283 346.792 181.618 346.803 184.704 339.163 187.505 331.527 189.27 323.585 191.242 314.959 191.936 306.062 191.593 297.192 190.911 279.388 186.228 261.959 181.778 244.508 177.258 227.004 173.885 209.114 171.641 191.165 170.524 182.182 169.633 173.174 168.982 164.148 168.33 155.122 167.928 146.075 168.615 136.995 168.655 136.474 169.109 136.085 169.629 136.124 170.094 136.159 170.455 136.525 170.499 136.974L170.5 136.995C170.82 140.282 171.069 143.573 171.325 146.864L171.43 146.417C171.916 144.595 172.386 142.77 172.81 140.936L173.42 138.18C173.506 137.727 173.605 137.278 173.792 136.843 172.696 136.512 171.615 136.127 170.567 135.654 166.961 133.951 163.491 131.592 160.981 128.27 158.447 124.992 156.904 120.907 156.647 116.812 156.429 113.21 156.688 109.817 157.247 106.367 154.567 110.147 152.753 114.7 151.254 119.343 151.129 119.737 150.709 119.955 150.315 119.831 149.98 119.724 149.772 119.398 149.796 119.062 150.337 111.887 153.128 104.369 158.967 99.2256 159.023 99.1769 159.085 99.1395 159.14 99.0915 159.855 97.262 160.743 95.4803 161.868 93.7958 164.1 90.3827 167.996 87.3201 172.587 87.1358 177.15 86.9127 181.056 89.1334 184.167 91.579 184.84 92.1234 185.472 92.7057 186.089 93.3011 187.615 93.3944 189.124 93.4416 190.697 93.3564 194.12 93.2242 197.516 92.7218 200.814 91.8489 207.423 90.0994 213.536 86.7577 218.986 82.5024 224.493 78.2797 229.346 73.2194 234.451 68.1502 239.615 63.0482 245.7 58.5297 252.724 55.8893 259.734 53.225 267.71 52.9733 274.869 55.1794 282.045 57.3494 288.459 61.5789 293.009 67.4424 293.327 67.8533 293.253 68.4451 292.842 68.7639 292.488 69.0391 291.998 69.0215 291.666 68.7477L291.596 68.6893C286.284 64.3172 280.305 60.6019 273.834 58.6618 267.352 56.7323 260.354 57.0015 254.047 59.4361 247.722 61.8705 242.114 66.0408 237.213 70.9561 232.241 75.9303 227.288 81.2789 221.452 85.7109 217.567 88.6971 213.267 91.238 208.7 93.1816 208.624 93.7969 208.389 94.3406 208.087 94.8448 207.613 95.6999 207.054 96.5053 206.459 97.2904 205.245 98.8389 203.746 100.221 202.013 101.273 200.251 102.249 198.305 103.001 196.31 103.159 195.319 103.335 194.335 103.262 193.355 103.271 192.401 103.241 191.439 102.958 190.647 102.063 190.394 102.071 190.143 102.018 189.956 101.849 188.136 100.204 186.442 98.557 184.739 96.9645 183.09 96.8284 181.477 96.6597 180.001 96.5396 173.875 96.134 167.612 97.3255 162.772 100.78 162.184 102.392 161.732 104.079 161.413 105.792 160.693 109.264 160.374 113.061 160.542 116.52 160.708 119.98 161.918 123.269 163.955 126.008 165.969 128.778 168.901 130.86 172.07 132.419 175.308 133.911 178.727 134.94 182.295 136.257 182.693 136.394 182.904 136.827 182.767 137.224 182.67 137.506 182.407 137.696 182.13 137.733 180.452 137.914 178.768 137.819 177.101 137.571 177.109 137.999 177.063 138.417 176.991 138.831L176.512 141.694C176.17 143.598 175.799 145.495 175.381 147.38 174.884 149.245 174.412 151.115 173.799 152.944L172.896 155.689C172.719 156.223 172.486 156.741 172.117 157.217 172.275 159.438 172.434 161.659 172.601 163.878 173.297 172.836 174.232 181.775 175.388 190.682 177.715 208.514 181.147 226.109 185.716 243.514 189.264 257.812 193.007 272.305 194.586 287.175 195.308 284.391 196.106 281.628 197.058 278.916 198.477 274.801 200.186 270.787 202.134 266.895 204.024 262.968 206.364 259.232 208.334 255.598 212.433 248.261 215.663 240.438 218.27 232.423 219.53 228.399 220.646 224.327 221.556 220.209 221.828 218.922 222.103 217.633 222.376 216.345 222.039 217.032 221.653 217.684 221.342 218.386 218.158 225.518 216.051 233.179 213.325 240.719L213.317 240.739C213.177 241.126 212.75 241.326 212.362 241.186 212.028 241.065 211.834 240.729 211.877 240.39 212.901 232.387 214.86 224.493 218.086 216.94 219.727 213.183 221.701 209.49 224.428 206.19 227.172 202.931 230.995 200.242 235.261 199.175 239.509 198.039 243.692 198.233 247.576 198.024 251.474 197.86 255.184 197.287 258.494 195.703 261.823 194.18 264.714 191.715 267.119 188.768 269.621 185.915 271.634 182.557 273.482 179.136 280.746 165.259 285.145 149.774 289.024 134.371 290.876 126.62 292.655 118.844 294.174 111.006 294.389 109.989 294.59 108.968 294.797 107.949L295.33 104.399C295.752 100.833 296.211 97.2765 296.377 93.7126 296.676 90.1554 296.713 86.5956 296.502 83.0789 296.41 81.3164 296.178 79.5827 295.893 77.8708 295.541 76.1971 295.193 74.4849 295.242 72.7824L295.25 72.5229C295.265 71.9893 295.71 71.5694 296.244 71.585 296.489 71.5923 296.713 71.6915 296.879 71.8474 298.546 73.4173 299.032 75.2889 299.453 77.162 299.819 79.0305 300.118 80.9045 300.268 82.7752 300.388 84.1566 300.434 85.5365 300.482 86.9162 300.497 86.9197 300.51 86.9072 300.525 86.9114 300.967 87.0372 301.245 87.4577 301.207 87.8991 300.937 91.1521 300.525 94.385 300.089 97.6134 299.835 100.083 299.526 102.543 299.096 104.98 298.572 107.157 298.363 109.406 297.76 111.563 297.75 111.612 297.745 111.662 297.734 111.711 296.257 119.596 294.514 127.438 292.695 135.265 290.785 143.074 288.741 150.86 286.242 158.538 283.808 166.23 280.851 173.809 277.056 181.069 275.081 184.657 272.929 188.21 270.135 191.364 267.47 194.575 264.11 197.446 260.136 199.236 256.189 201.094 251.813 201.694 247.743 201.833 243.66 202.004 239.727 201.842 236.199 202.784 232.66 203.663 229.641 205.744 227.199 208.56 226.878 208.942 226.638 209.401 226.334 209.802 226.428 213.599 225.886 217.309 225.106 220.968 224.22 225.208 223.123 229.4 221.877 233.549 219.289 241.812 216.077 249.918 211.896 257.55 209.738 261.399 207.479 264.891 205.611 268.649 203.686 272.375 201.988 276.222 200.569 280.171 199.129 284.111 197.921 288.141 197.008 292.233 196.446 294.813 195.898 297.401 195.329 299.992 195.371 305.728 195.019 311.512 194.128 317.219 194.98 315.139 195.932 313.134 197.054 311.168 198.821 305.88 200.907 300.828 203.631 295.936 205.027 293.474 206.599 291.065 208.625 288.884 209.644 287.798 210.854 286.805 212.318 286.128 213.411 285.622 214.716 285.366 215.943 285.527 215.798 284.395 216.08 283.382 216.447 282.398 216.898 281.179 217.403 279.975 218.023 278.81 219.243 276.482 220.808 274.223 222.987 272.405 225.212 270.654 228.15 269.578 230.997 269.649 232.445 269.588 233.787 269.923 235.123 270.247 236.152 270.506 237.047 271.103 237.814 271.896 237.979 271.934 238.142 271.977 238.306 272.019 241.334 269.999 244.766 268.896 248.371 268.302 250.28 267.994 252.249 267.804 254.306 268.002 255.334 268.112 256.376 268.284 257.419 268.648 258.435 268.976 259.168 269.321 260.056 269.657 266.729 272.338 273.449 274.907 280.066 277.729 285.545 268.818 291.578 260.309 297.714 251.875L301.722 246.327C306.005 226.732 307.013 206.508 307.21 186.314 307.432 165.185 306.562 144.037 306.981 122.752 307.089 117.453 307.473 112.038 307.902 106.794 308.332 101.588 308.491 96.3624 308.306 91.1535 307.973 80.7466 306.327 70.3531 302.964 60.533 299.651 50.7069 294.654 41.4351 288.047 33.4466 281.435 25.508 273.482 18.5377 264.584 13.2945L264.5 13.2453C264.322 13.1404 264.232 12.9636 264.155 12.7873 261.926 11.6748 259.573 10.7398 257.223 9.87416 253.361 8.48503 249.38 7.41781 245.37 6.50849 237.353 4.67007 229.13 3.72539 220.926 3.62811 204.618 3.50162 187.809 7.36972 175.005 17.4604 168.669 22.5637 162.854 28.492 157.992 35.0512 153.103 41.6161 149.133 48.8496 145.868 56.406 139.325 71.5497 135.332 87.7627 131.722 103.987 129.951 112.13 128.41 120.285 126.818 128.515 125.221 136.764 123.316 144.946 121.192 153.057 117.003 169.292 111.746 185.204 107.804 201.313ZM192.318 325.92C190.44 333.29 187.601 340.363 183.7 346.87 187.893 347.11 192 348.011 195.882 349.618L196.374 349.079 199.433 345.734C200.204 344.871 201.006 344.036 202.055 343.419 199.92 341.819 198.284 339.765 196.857 337.552 195.198 334.975 193.719 332.209 192.849 329.083 192.575 328.071 192.412 327.005 192.318 325.92ZM179.538 92.8223C177.379 91.5527 175.063 90.7332 172.805 90.9036 170.09 91.0524 167.687 92.6998 165.88 95.0147 170.223 93.2492 174.997 92.6256 179.538 92.8223ZM193.376 99.6984C194.164 99.6097 194.964 99.6145 195.71 99.3965 197.233 99.1005 198.662 98.5543 199.956 97.7656 201.19 97.0954 202.317 96.1869 203.305 95.1153 202.799 95.2635 202.312 95.4662 201.8 95.5971 198.207 96.5183 194.514 97.0323 190.821 97.1446 190.342 97.1692 189.85 97.154 189.363 97.1562 190.062 98.1547 190.696 99.1916 191.232 100.284 192.015 99.7768 192.694 99.7287 193.376 99.6984ZM31.9303 481.262C36.3643 478.78 41.1505 476.926 46.1449 475.903 50.8503 474.946 55.7085 474.59 60.5246 475.171 65.4487 475.769 69.801 477.255 74.2675 478.402 78.7103 479.613 83.1408 480.783 87.6002 481.758 92.0087 482.817 96.5736 483.273 101.232 484.505 105.825 485.671 110.297 487.376 114.477 489.731 118.414 492.067 122.265 495.135 124.397 499.445 125.24 499.721 126.051 500.086 126.832 500.512 130.113 501.881 133.227 503.546 136.299 505.283L143.04 509.034C149.962 506.932 156.715 504.673 163.206 501.645 169.924 498.601 176.295 494.788 182.356 490.54 194.453 481.981 205.274 471.631 214.981 460.385 217.416 457.578 219.796 454.721 222.09 451.798 224.351 448.941 226.184 445.937 227.638 442.62 230.553 436.027 231.973 428.746 232.546 421.428 233.122 414.093 232.885 406.666 232.126 399.294 231.49 393.388 230.601 387.495 229.71 381.599 229.36 382.233 229.032 382.877 228.681 383.51L219.597 400.137C216.488 405.637 213.87 411.399 209.671 416.313 209.399 416.632 208.919 416.669 208.6 416.397 208.367 416.197 208.285 415.887 208.363 415.61 210.142 409.396 213.5 404.031 216.369 398.403L225.215 381.649C231.039 370.439 237.246 359.436 243.245 348.319 243.441 347.949 243.759 347.669 244.113 347.508 249.122 345.266 253.255 341.168 257.859 337.679L254.868 334.882C251.927 332.07 249.014 329.228 246.184 326.303L246.128 326.245C245.479 325.574 245.421 324.55 245.942 323.815L249.69 318.517C250.336 317.658 250.901 316.744 251.567 315.899 250.736 315.924 249.913 315.892 249.143 315.755 246.915 315.366 244.897 314.547 243.043 313.543 241.333 312.609 239.788 311.572 238.238 310.337L228.383 307.604 223.266 306.183C221.557 305.726 219.862 305.211 218.353 303.991 217.909 303.632 217.84 302.981 218.199 302.537 218.364 302.333 218.592 302.208 218.831 302.168 220.745 301.846 222.475 302.231 224.189 302.673L229.343 303.951 239.65 306.509C239.939 306.581 240.197 306.715 240.412 306.894L240.47 306.943C243.191 309.224 246.58 311.257 249.84 312.008 251.482 312.359 253.053 312.261 254.347 311.582 255.495 310.976 256.511 309.971 257.809 308.848 256.104 307.868 254.799 306.552 253.553 305.184L249.3 300.676 244.951 296.337C243.509 294.979 241.911 293.521 240.546 292.753 237.429 291.261 233.077 290.465 229.14 289.736 227.118 289.39 225.084 289.085 223.048 288.828 221.009 288.59 218.986 288.293 217.032 287.499L216.959 287.47C216.898 287.445 216.882 287.377 216.831 287.343 214.529 288.036 212.961 289.519 211.234 291.308 209.564 293.18 208.147 295.412 206.895 297.738 205.26 300.807 203.913 304.08 202.69 307.391 203.004 307.297 203.326 307.177 203.625 307.12 205.878 306.605 208.083 306.553 210.225 306.678 214.521 306.919 218.651 307.77 222.683 308.922 226.649 310.201 230.714 311.503 234.36 313.984 236.112 315.126 237.8 316.302 239.477 317.494 241.153 318.682 242.756 319.973 243.919 321.874 243.949 321.923 243.925 321.98 243.944 322.032 244.14 322.206 244.235 322.459 244.193 322.704 243.855 324.687 242.685 326.372 241.03 327.538 239.38 328.708 237.358 329.186 235.475 329.226 233.562 329.311 231.742 328.99 229.989 328.563 228.392 328.147 226.878 327.579 225.381 326.977 221.615 327.02 217.848 326.987 214.081 326.935 213.884 327.433 213.646 327.918 213.318 328.36 212.642 329.303 211.764 330.06 210.837 330.599 209.904 331.122 208.938 331.467 207.978 331.696 207.014 331.926 206.033 331.975 205.013 331.253 204.505 330.893 204.385 330.19 204.745 329.682 204.769 329.649 204.793 329.618 204.819 329.588L205.013 329.369C205.688 328.605 206.389 328.384 207.064 328.195 207.74 327.994 208.366 327.718 208.895 327.383 209.942 326.678 210.46 325.788 210.605 324.63 210.731 323.622 211.596 322.886 212.589 322.898L212.628 322.898C217.004 322.946 221.38 323.028 225.754 323.198L225.779 323.199C226.033 323.209 226.281 323.269 226.501 323.363 227.966 323.993 229.435 324.592 230.933 325.017 232.424 325.415 233.937 325.711 235.384 325.669 236.837 325.67 238.224 325.444 239.46 324.872 240.443 324.42 241.389 323.687 242.199 322.829 240.431 322.294 238.918 321.407 237.461 320.444 235.765 319.335 234.059 318.242 232.35 317.221 229.129 315.231 225.326 313.959 221.527 312.82 217.741 311.653 213.842 310.752 209.987 310.448 208.066 310.283 206.142 310.306 204.408 310.664 203.192 310.945 202.165 311.309 201.142 311.774 201.058 312.038 200.945 312.298 200.864 312.561 200.815 312.716 200.752 312.86 200.675 312.994L200.659 313.021C199.267 315.414 197.933 318.018 197 320.594 196.536 321.908 196.164 323.161 196.094 324.326 196.03 325.546 196.193 326.83 196.516 328.111 197.176 330.681 198.439 333.208 199.923 335.595 201.445 337.969 203.157 340.246 204.472 342.886L204.497 342.937C204.634 343.213 204.598 343.504 204.476 343.763 204.496 343.899 204.532 344.036 204.5 344.166 204.098 345.827 203.147 347.002 202.151 348.138L199.204 351.583 193.305 358.467C191.274 360.704 189.283 362.977 187.203 365.172L184.111 368.488C183.188 369.486 182.179 370.407 180.788 370.989 181.511 373.346 181.753 375.724 182.007 378.097 182.287 380.56 182.65 383.02 183.165 385.44 184.171 390.28 185.509 395.064 187.517 399.521 189.431 404.01 191.928 408.213 195.095 411.844 196.842 413.477 198.477 415.262 200.534 416.505 202.41 418.044 204.603 418.905 206.49 420.836L206.609 420.958C206.9 421.254 206.895 421.73 206.598 422.02 206.426 422.187 206.193 422.256 205.973 422.228 203.349 421.88 200.657 421.11 198.541 419.459 196.213 418.098 194.341 416.182 192.364 414.384 188.762 410.448 185.949 405.912 183.786 401.13 181.702 396.305 180.414 391.234 179.454 386.151 178.966 383.606 178.638 381.039 178.396 378.466 178.138 375.894 178.023 373.304 178.829 370.683 178.893 370.474 179.051 370.336 179.215 370.216 179.215 370.213 179.214 370.21 179.215 370.207 179.563 368.499 180.46 367.274 181.436 366.121L184.35 362.647C186.274 360.315 188.288 358.063 190.26 355.773L194.153 351.511C188.765 350.559 183.291 350.063 177.937 350.518 171.722 351.097 165.704 353.278 160.906 357.148 156.046 360.961 152.552 366.324 150.113 372.111 147.689 377.909 146.394 384.264 145.008 390.63 142.272 403.362 139.953 416.238 137.483 429.088 136.251 435.516 135.001 441.945 133.627 448.365 132.951 451.579 132.169 454.776 131.232 457.948 130.143 461.093 129.343 464.28 127.098 467.235 126.853 467.557 126.395 467.619 126.073 467.375 125.806 467.172 125.718 466.821 125.835 466.524L125.903 466.354C126.975 463.645 127.542 460.302 128.176 457.175L130.142 447.632C131.452 441.251 132.645 434.83 133.821 428.403 136.181 415.546 138.389 402.654 141.041 389.786 141.074 389.633 141.109 389.478 141.143 389.325 141.084 389.354 141.027 389.386 140.967 389.416L136.633 391.552C133.733 392.954 130.798 394.297 127.824 395.569 124.824 396.771 121.791 397.933 118.652 398.852 117.096 399.337 115.494 399.736 113.891 400.124 112.281 400.484 110.55 400.667 108.811 399.988 108.385 399.822 108.174 399.342 108.34 398.916 108.401 398.762 108.502 398.636 108.627 398.545L108.677 398.51C110.119 397.466 111.528 397.055 113.03 396.657 114.515 396.217 116 395.77 117.473 395.229 120.414 394.156 123.371 393.059 126.278 391.808 126.774 391.611 127.261 391.387 127.756 391.187 125.548 388.814 123.647 386.228 121.83 383.586L115.06 373.762C110.394 367.003 107.139 359.641 103.772 352.409 100.566 345.09 97.5837 337.699 94.6702 330.285L90.3802 319.136C88.9441 315.422 87.6248 311.664 86.9687 307.657 86.8835 307.134 87.2375 306.641 87.761 306.555 88.1571 306.49 88.5401 306.684 88.7377 307.006 90.8458 310.453 92.3443 314.127 93.7672 317.831L98.1793 328.885C101.167 336.233 104.243 343.544 107.484 350.759 110.297 357.043 113.09 363.37 116.602 369.141 116.354 365.044 117.027 360.97 118.194 357.129L119.264 354.046 120.573 351.075C120.693 350.796 120.809 350.541 120.929 350.27 116.949 345.073 115.033 338.511 114.183 332.153 113.309 325.15 113.516 318.136 114.088 311.22 114.46 306.966 115.012 302.748 115.632 298.544 114.759 290.517 113.546 282.562 111.749 274.732 110.003 266.633 107.566 258.706 105.233 250.661 102.962 242.635 100.71 234.31 100.594 225.645 100.467 216.912 102.351 208.664 104.201 200.452 105.515 195.016 106.983 189.644 108.485 184.29 95.1454 188.161 81.6432 191.667 68.1523 194.603 53.6751 198.112 39.2023 202.79 27.304 211.501 21.231 215.659 16.2954 221.21 12.3849 227.299L9.6787 232.032C8.93561 233.688 8.35501 235.421 7.6813 237.11L6.70017 239.657C6.39538 240.513 6.28207 241.432 6.06248 242.317L4.8881 247.668C2.29868 262.176 5.56356 277.111 7.91758 291.918 13.0279 321.578 19.4338 351.118 22.7646 381.272 23.4787 388.828 24.1067 396.41 23.9003 404.097 23.5498 411.955 21.8177 419.223 21.5964 426.608 21.3346 433.906 22.1673 441.322 25.7299 447.549 26.6593 449.065 27.5772 450.587 28.726 451.993 29.8811 453.424 31.1117 454.845 32.3458 456.254L39.7838 464.744C40.1334 465.13 40.1035 465.726 39.717 466.076 39.3534 466.405 38.7895 466.384 38.4346 466.06 35.6932 463.454 32.922 460.883 30.2825 458.163 29.4911 457.351 28.69 456.518 27.8934 455.669 27.8776 455.864 27.8644 456.059 27.8451 456.254 27.7265 457.65 27.6369 459.048 27.5772 460.445 27.4603 463.236 27.4656 466.028 27.6685 468.763 27.7959 471.495 28.1613 474.215 28.9061 476.646 29.2935 477.848 29.8179 478.964 30.5118 479.795 30.9703 480.31 31.4191 480.766 31.9303 481.262ZM51.5381 619.298C54.9207 620.583 58.4271 621.501 61.5655 623.503 61.6981 620.764 62.5484 618.127 63.8545 615.835 64.4571 614.742 65.223 613.727 66.0776 612.785 64.3358 612.378 62.7205 611.704 61.1386 610.966L54.6545 607.953C50.3584 606.013 45.8805 603.82 41.7715 601.292 37.6652 598.706 33.7591 595.849 29.983 592.846 28.0875 591.353 26.2508 589.79 24.4282 588.211 22.6021 586.636 20.8445 584.976 19.6464 582.711 19.3917 582.229 19.5761 581.631 20.0583 581.376 20.3412 581.226 20.6635 581.228 20.9332 581.352L20.9692 581.368C23.202 582.411 24.9983 583.93 26.791 585.456 28.6022 586.96 30.4274 588.45 32.3071 589.867 36.0472 592.724 39.9147 595.408 43.9139 597.84 47.8753 600.398 51.9245 602.502 56.2654 604.59L62.6775 607.752C64.508 608.651 66.2867 609.659 67.8765 611.059 68.5213 610.531 69.1941 610.039 69.9091 609.615 72.4634 608.147 75.3049 607.415 78.0603 607.115 79.4393 606.969 80.8096 606.913 82.135 606.891 83.3841 606.904 84.3793 606.733 85.652 606.461 88.0816 605.93 90.5471 605.162 93.076 604.431 98.4032 602.671 104.31 603.193 109.453 604.325 120.002 606.488 129.483 611.329 139.422 613.379 149.519 615.692 159.729 617.774 169.883 618.114 174.949 618.273 179.98 617.768 184.66 616.259 186.971 615.445 189.228 614.467 191.297 613.136 193.508 611.766 195.891 610.326 198.415 609.249 200.94 608.161 203.668 607.315 206.474 607.025 207.568 606.888 208.646 606.853 209.708 606.843 210.091 605.348 210.455 603.839 210.902 602.322 211.473 599.782 211.925 597.193 212.282 594.57 212.987 589.322 213.345 583.988 213.624 578.656 213.981 573.324 214.244 567.975 214.402 562.618L214.596 554.577C214.604 553.941 214.615 553.305 214.637 552.67 210.91 551.291 207.421 549.493 203.993 547.585L192.376 541.129 169.141 528.217 146.056 515.037 134.516 508.444C132.053 507.058 129.62 505.617 127.272 504.027 125.801 503.649 124.437 503.132 123.006 502.727 121.962 502.334 120.888 502.035 119.783 501.832 118.686 501.611 117.615 501.288 116.489 501.197 112.057 500.495 107.5 500.54 102.944 500.91 98.3734 501.173 93.7839 501.78 89.0741 502.253 86.7262 502.499 84.309 502.64 81.8417 502.616 79.3989 502.499 76.5504 502.06 74.6338 499.966 74.2728 499.572 74.3 498.96 74.6944 498.6 74.9184 498.394 75.2144 498.315 75.4937 498.357L75.6562 498.383C77.8065 498.724 79.7266 498.861 81.9216 498.987 84.1281 498.957 86.3775 498.788 88.6718 498.497 93.2499 497.946 97.9175 497.208 102.674 496.857 107.429 496.585 112.291 496.644 117.083 497.515 118.289 497.647 119.463 498.019 120.649 498.29 120.782 498.319 120.907 498.378 121.04 498.409 118.746 496.036 115.862 494.206 112.884 492.651 108.939 490.619 104.673 489.147 100.333 488.021 96.0571 486.899 91.3939 486.442 86.8158 485.376 82.2536 484.405 77.7511 483.241 73.2846 482.049 68.8217 480.916 64.356 479.469 60.0942 478.998 55.7375 478.492 51.2684 478.843 46.9521 479.746 38.28 481.567 30.2843 486.067 23.8801 492.21 17.4882 498.367 12.363 506.045 9.01905 514.315 5.6637 522.62 4.21879 531.644 4.53236 540.633 4.8108 549.636 6.83192 558.567 9.86931 567.113 12.4745 574.534 15.8738 581.648 19.324 588.811 21.8318 591.303 23.5859 594.289 25.7712 596.982 28.1498 600.095 30.6725 603.09 33.3322 605.927 36.0007 608.753 38.7763 611.466 41.7548 613.841 44.7316 616.187 47.9596 618.278 51.4098 619.26L51.495 619.284 51.5381 619.298ZM318.46 631.969C316.126 627.166 314.637 622.132 312.076 617.459 309.209 611.569 305.986 605.842 302.369 600.366 298.865 594.822 295.088 589.434 290.999 584.288 288.943 581.724 286.849 579.19 284.668 576.735 283.942 575.925 283.232 575.101 282.518 574.279 274.632 580.329 266.317 585.735 257.843 590.906 248.869 596.302 239.789 601.545 230.167 605.955 227.762 607.059 225.291 608.061 222.743 608.945 220.216 609.804 217.479 610.586 214.566 610.666 212.816 610.708 211.205 610.684 209.639 610.709 209.566 610.713 209.503 610.737 209.431 610.72 208.584 610.738 207.732 610.737 206.917 610.846 204.526 611.101 202.215 611.828 199.962 612.807 197.687 613.793 195.593 615.064 193.379 616.448 191.058 617.951 188.507 619.082 185.908 620.003 180.649 621.727 175.147 622.268 169.799 622.127 159.063 621.846 148.712 619.642 138.514 617.253 136.009 616.668 133.326 616.023 130.802 615.161L123.373 612.561C118.477 610.827 113.595 609.143 108.651 608.069 103.676 606.988 98.7915 606.524 94.1072 608.042 91.6214 608.745 89.0978 609.524 86.4267 610.097 85.1531 610.381 83.5554 610.618 82.1904 610.59 80.9088 610.605 79.6703 610.652 78.4547 610.775 76.0313 611.027 73.7247 611.641 71.7343 612.769 69.7764 613.933 68.1357 615.574 66.9885 617.619 64.5739 621.653 64.3578 626.678 67.0386 630.365 68.1769 631.634 70.1181 632.302 72.2157 632.459 74.351 632.628 76.6119 632.379 78.8605 632.015 81.0669 631.621 83.5018 631.024 85.8382 630.67 88.2089 630.318 90.577 629.987 92.9618 629.818 93.372 629.789 93.7286 630.098 93.7576 630.508 93.7839 630.876 93.5362 631.201 93.1901 631.285 90.8923 631.846 88.5963 632.361 86.331 632.992L79.4648 634.877C77.0844 635.482 74.5987 635.861 71.9978 635.723 69.4585 635.596 66.5168 634.9 64.3929 632.647L64.3244 632.567 64.277 632.505C63.8905 631.997 63.5585 631.445 63.2476 630.88 61.7947 631.614 60.3648 632.206 59.0621 632.889 57.3871 633.789 56.03 635.032 55.6453 636.455 55.4222 637.16 55.3941 637.929 55.5847 638.751 55.7481 639.592 56.0731 640.446 56.4771 640.946 57.3326 642.117 59.0744 642.982 60.9418 643.52 64.7232 644.694 69.0254 644.922 73.2565 645.066L79.7661 645.189C81.94 645.222 84.1131 645.367 86.2862 646.232 86.6964 646.395 86.8967 646.859 86.7333 647.269 86.6498 647.481 86.4821 647.637 86.2862 647.716 84.1131 648.581 81.94 648.725 79.7661 648.759L73.2363 648.872C68.8006 648.921 64.3113 648.714 59.735 647.405 57.8561 646.783 55.8298 645.886 54.1863 644.204 54.1846 644.402 54.1187 644.628 54.1503 644.806 54.2452 645.803 54.9769 646.511 55.8552 647.23 57.698 648.597 60.5536 649.307 63.2511 650.163 68.6943 651.755 74.3334 652.88 79.9804 653.859 91.3298 655.742 102.72 656.88 114.273 657.072 137.457 658.171 160.495 659.831 183.455 658.488 189.173 658.096 194.898 657.66 200.527 656.736 206.146 655.979 211.556 654.379 217.044 652.607 227.969 648.971 239.098 645.303 250.423 642.611 261.726 639.761 273.272 638.022 284.675 636.159 295.894 634.451 307.122 632.83 318.46 631.969ZM349.839 629.661C350.868 626.06 350.171 622.123 349.39 618.308 348.483 614.28 347.234 610.267 345.723 606.337 342.699 598.474 338.936 590.84 334.799 583.454 332.706 579.78 330.568 576.103 328.137 572.749 325.65 569.383 323.041 566.055 320.32 562.819 317.59 559.589 314.745 556.446 311.79 553.437 308.919 550.499 305.76 547.757 303.069 545.017 301.667 546.265 300.208 547.199 298.663 548.095 296.985 549.091 295.332 550.166 293.713 551.309 290.481 553.601 287.276 555.982 284.12 558.459 280.867 560.996 277.55 562.97 276.293 566.131 275.623 567.666 275.368 569.366 275.575 571.09 275.766 572.503 276.125 573.945 276.395 575.473 277.98 574.531 279.572 573.604 281.166 572.68 280.215 571.517 279.294 570.326 278.475 569.036L278.453 569.002C278.169 568.552 278.301 567.956 278.751 567.671 279.066 567.47 279.455 567.477 279.757 567.654 282.756 569.421 285.115 571.819 287.366 574.307 289.631 576.782 291.806 579.334 293.941 581.919 298.186 587.11 302.141 592.541 305.792 598.177 309.399 603.842 312.604 609.766 315.445 615.859L317.528 620.451 319.367 625.152C320.52 627.871 321.209 630.779 321.559 633.748 322.461 633.19 323.418 632.98 324.384 632.821L328.045 632.168 335.368 630.865C337.822 630.518 340.268 630.115 342.733 629.83L346.424 629.368C347.523 629.224 348.642 629.194 349.839 629.661ZM453.317 587.778C451.655 588.959 449.978 590.119 448.281 591.244 442.445 594.916 436.446 598.315 430.258 601.324 417.816 607.156 404.954 612.155 391.554 615.345L371.721 620.253C365.583 621.78 359.427 623.232 353.14 624.159 353.083 625.057 352.946 625.948 352.741 626.827 356.644 626.116 360.563 625.908 364.485 625.829L377.568 625.558C386.293 625.439 395.023 625.406 403.762 625.579 408.154 625.746 412.452 625.861 416.926 626.224 421.3 626.638 425.577 627.101 429.863 627.302 434.121 627.488 438.442 627.517 442.4 626.699 444.325 626.244 446.198 625.593 447.27 624.506 448.303 623.534 448.548 621.777 448.237 619.763 447.467 620.141 446.492 620.057 445.628 619.86 444.663 619.692 443.675 619.544 442.66 619.438 440.635 619.241 438.59 618.99 436.525 618.844L430.333 618.214 427.224 617.952C426.186 617.887 425.152 617.77 424.151 616.928 423.646 616.517 423.57 615.774 423.982 615.269 424.048 615.188 424.143 615.104 424.225 615.045 425.315 614.291 426.371 614.278 427.422 614.328L430.58 614.444C432.684 614.533 434.792 614.637 436.903 614.796 439.006 615.027 441.121 615.251 443.235 615.671 444.291 615.864 445.361 616.105 446.44 616.381 447.334 616.708 448.297 616.946 449.052 618.079 450.009 616.94 450.96 616.134 451.732 615.251 452.633 614.239 453.088 613.05 453.086 611.856 453.108 609.474 451.101 606.943 448.788 606.457 448.505 606.397 448.227 606.347 447.945 606.328 447.705 606.322 447.375 606.327 446.884 606.359L444.289 606.449C442.57 606.482 440.865 606.472 439.165 606.442L434.072 606.3C432.377 606.252 430.684 606.136 429.02 605.264 428.511 604.997 428.315 604.369 428.582 603.86 428.697 603.639 428.892 603.472 429.104 603.382 430.807 602.651 432.483 602.639 434.157 602.671L439.174 602.663C440.843 602.643 442.509 602.604 444.158 602.523L446.612 602.365C446.961 602.334 447.473 602.291 448.075 602.291 448.636 602.312 449.194 602.37 449.732 602.503 451.325 602.922 452.752 603.735 453.905 604.819 453.911 604.801 453.919 604.784 453.925 604.765 454.309 603.946 454.55 603.074 454.763 602.197 455.1 600.424 455.322 598.611 455.183 596.756 455.118 594.904 454.85 593.026 454.382 591.177 454.151 590.252 453.874 589.333 453.548 588.433 453.467 588.216 453.388 587.999 453.317 587.778ZM534.246 486.601C533.278 476.276 529.552 466.193 522.578 458.58 515.779 450.852 506.087 445.933 496.428 442.099 486.766 438.311 476.043 439.239 465.825 441.699 456.312 443.86 447.007 447.101 437.562 450.04 437.985 455.675 437.854 461.363 436.885 466.987 435.313 476.753 431.167 486.146 424.983 493.871 418.82 501.597 410.934 507.893 402.014 512.126 393.095 516.379 383.338 518.448 373.674 519.255 364.789 519.965 355.979 519.533 347.264 519.166 344.494 519.348 341.684 519.258 338.905 518.816 338.144 520.131 337.182 521.228 336.123 522.224L332.245 525.939 324.486 533.367C321.839 535.779 319.231 538.232 316.542 540.597L312.532 544.171C311.627 544.983 310.623 545.689 309.518 546.286 311.254 547.706 312.777 549.336 314.407 550.814 317.499 553.852 320.452 557.004 323.3 560.256 329.073 566.632 334.093 574 338.16 581.583 342.31 589.151 346.065 596.932 349.112 605.063 350.606 609.136 351.976 613.294 352.738 617.659 352.939 619.015 353.099 620.443 353.155 621.886 358.961 619.827 364.883 618.243 370.826 616.735L390.613 611.686C403.701 608.483 416.332 603.446 428.492 597.666 434.578 594.767 440.465 591.491 446.184 587.961 451.806 584.296 457.275 580.381 462.226 575.888 463.532 574.832 464.602 573.572 465.805 572.425 466.973 571.245 468.177 570.125 469.245 568.775L475.844 560.994C480.271 555.831 484.716 550.687 489.773 546.048 490.078 545.769 490.551 545.789 490.83 546.094 491.065 546.349 491.088 546.725 490.909 547.004 487.2 552.786 482.88 558.064 478.542 563.321L473.44 569.437C477.733 566.427 482.038 563.442 486.295 560.404 490.697 557.299 494.739 554.106 499.113 550.749 503.505 547.542 507.952 544.622 512.114 541.384 520.466 535.028 527.64 527.097 531.249 517.41 533.073 512.597 534.057 507.516 534.367 502.307 534.73 497.029 534.775 491.777 534.246 486.601ZM230.791 484.799C227.396 485.145 223.992 485.423 220.586 485.654 217.181 485.871 213.775 486.104 210.396 486.975 210.051 487.064 209.753 487.345 209.675 487.717 209.567 488.239 209.902 488.751 210.425 488.859 213.908 489.584 217.361 489.481 220.807 489.277 224.253 489.092 227.697 488.862 231.136 488.561 238.013 487.97 244.886 487.228 251.72 486.125 258.534 484.917 265.34 483.572 272.019 481.609 275.36 480.651 278.688 479.597 281.942 478.318 283.563 477.657 285.202 477.045 286.732 476.166 288.251 475.263 289.718 474.266 291.076 473.134 291.284 472.96 291.391 472.679 291.331 472.395 291.243 471.987 290.842 471.727 290.433 471.815L290.367 471.829C286.919 472.57 283.887 473.871 280.688 474.984 277.539 476.163 274.289 477.136 271.022 478.015 264.493 479.822 257.783 481.037 251.067 482.115 244.358 483.273 237.583 484.121 230.791 484.799Z" transform="matrix(1.00204 0 0 1 158 156.592)"/></g></svg>